G04 EAGLE Gerber RS-274X export*
G75*
%MOMM*%
%FSLAX34Y34*%
%LPD*%
%INCopper Layer 2*%
%IPPOS*%
%AMOC8*
5,1,8,0,0,1.08239X$1,22.5*%
G01*
%ADD10C,0.904800*%
%ADD11C,1.400000*%
%ADD12C,3.220000*%
%ADD13C,1.244600*%
%ADD14C,4.191000*%

G36*
X478908Y2556D02*
X478908Y2556D01*
X479027Y2563D01*
X479065Y2576D01*
X479106Y2581D01*
X479216Y2624D01*
X479329Y2661D01*
X479364Y2683D01*
X479401Y2698D01*
X479497Y2767D01*
X479598Y2831D01*
X479626Y2861D01*
X479659Y2884D01*
X479735Y2976D01*
X479816Y3063D01*
X479836Y3098D01*
X479861Y3129D01*
X479912Y3237D01*
X479970Y3341D01*
X479980Y3381D01*
X479997Y3417D01*
X480019Y3534D01*
X480049Y3649D01*
X480053Y3709D01*
X480057Y3729D01*
X480055Y3750D01*
X480059Y3810D01*
X480059Y580390D01*
X480044Y580508D01*
X480037Y580627D01*
X480024Y580665D01*
X480019Y580706D01*
X479976Y580816D01*
X479939Y580929D01*
X479917Y580964D01*
X479902Y581001D01*
X479833Y581097D01*
X479769Y581198D01*
X479739Y581226D01*
X479716Y581259D01*
X479624Y581335D01*
X479537Y581416D01*
X479502Y581436D01*
X479471Y581461D01*
X479363Y581512D01*
X479259Y581570D01*
X479219Y581580D01*
X479183Y581597D01*
X479066Y581619D01*
X478951Y581649D01*
X478891Y581653D01*
X478871Y581657D01*
X478850Y581655D01*
X478790Y581659D01*
X3810Y581659D01*
X3692Y581644D01*
X3573Y581637D01*
X3535Y581624D01*
X3494Y581619D01*
X3384Y581576D01*
X3271Y581539D01*
X3236Y581517D01*
X3199Y581502D01*
X3103Y581433D01*
X3002Y581369D01*
X2974Y581339D01*
X2941Y581316D01*
X2865Y581224D01*
X2784Y581137D01*
X2764Y581102D01*
X2739Y581071D01*
X2688Y580963D01*
X2630Y580859D01*
X2620Y580819D01*
X2603Y580783D01*
X2581Y580666D01*
X2551Y580551D01*
X2547Y580491D01*
X2543Y580471D01*
X2545Y580450D01*
X2541Y580390D01*
X2541Y3810D01*
X2556Y3692D01*
X2563Y3573D01*
X2576Y3535D01*
X2581Y3494D01*
X2624Y3384D01*
X2661Y3271D01*
X2683Y3236D01*
X2698Y3199D01*
X2767Y3103D01*
X2831Y3002D01*
X2861Y2974D01*
X2884Y2941D01*
X2976Y2865D01*
X3063Y2784D01*
X3098Y2764D01*
X3129Y2739D01*
X3237Y2688D01*
X3341Y2630D01*
X3381Y2620D01*
X3417Y2603D01*
X3534Y2581D01*
X3649Y2551D01*
X3709Y2547D01*
X3729Y2543D01*
X3750Y2545D01*
X3810Y2541D01*
X478790Y2541D01*
X478908Y2556D01*
G37*
%LPC*%
G36*
X446176Y528954D02*
X446176Y528954D01*
X437541Y532531D01*
X430931Y539141D01*
X427354Y547776D01*
X427354Y557124D01*
X430931Y565759D01*
X437541Y572369D01*
X446176Y575946D01*
X455524Y575946D01*
X464159Y572369D01*
X470769Y565759D01*
X474346Y557124D01*
X474346Y547776D01*
X470769Y539141D01*
X464159Y532531D01*
X455524Y528954D01*
X446176Y528954D01*
G37*
%LPD*%
%LPC*%
G36*
X27076Y8254D02*
X27076Y8254D01*
X18441Y11831D01*
X11831Y18441D01*
X8254Y27076D01*
X8254Y36424D01*
X11831Y45059D01*
X18441Y51669D01*
X27076Y55246D01*
X36424Y55246D01*
X45059Y51669D01*
X51669Y45059D01*
X55246Y36424D01*
X55246Y27076D01*
X51669Y18441D01*
X45059Y11831D01*
X36424Y8254D01*
X27076Y8254D01*
G37*
%LPD*%
%LPC*%
G36*
X446176Y46354D02*
X446176Y46354D01*
X437541Y49931D01*
X430931Y56541D01*
X427354Y65176D01*
X427354Y74524D01*
X430931Y83159D01*
X437541Y89769D01*
X446176Y93346D01*
X455524Y93346D01*
X464159Y89769D01*
X470769Y83159D01*
X474346Y74524D01*
X474346Y65176D01*
X470769Y56541D01*
X464159Y49931D01*
X455524Y46354D01*
X446176Y46354D01*
G37*
%LPD*%
%LPC*%
G36*
X191302Y133059D02*
X191302Y133059D01*
X187796Y134512D01*
X185112Y137196D01*
X183659Y140702D01*
X183659Y144498D01*
X185112Y148004D01*
X187796Y150688D01*
X191302Y152141D01*
X195098Y152141D01*
X198604Y150688D01*
X201288Y148004D01*
X202027Y146220D01*
X202096Y146099D01*
X202161Y145976D01*
X202175Y145961D01*
X202185Y145944D01*
X202282Y145844D01*
X202375Y145741D01*
X202392Y145730D01*
X202406Y145715D01*
X202524Y145643D01*
X202641Y145566D01*
X202660Y145560D01*
X202677Y145549D01*
X202810Y145508D01*
X202942Y145463D01*
X202962Y145461D01*
X202981Y145455D01*
X203120Y145449D01*
X203259Y145438D01*
X203279Y145441D01*
X203299Y145440D01*
X203435Y145468D01*
X203572Y145492D01*
X203591Y145501D01*
X203610Y145505D01*
X203735Y145566D01*
X203862Y145623D01*
X203878Y145635D01*
X203896Y145644D01*
X204002Y145735D01*
X204110Y145821D01*
X204123Y145838D01*
X204138Y145851D01*
X204218Y145965D01*
X204302Y146075D01*
X204314Y146101D01*
X204321Y146111D01*
X204328Y146130D01*
X204373Y146220D01*
X205112Y148004D01*
X207796Y150688D01*
X211302Y152141D01*
X215098Y152141D01*
X218604Y150688D01*
X221288Y148004D01*
X222741Y144498D01*
X222741Y140702D01*
X221288Y137196D01*
X218604Y134512D01*
X215098Y133059D01*
X211302Y133059D01*
X207796Y134512D01*
X205112Y137196D01*
X204373Y138980D01*
X204304Y139100D01*
X204239Y139224D01*
X204225Y139239D01*
X204215Y139256D01*
X204119Y139356D01*
X204025Y139459D01*
X204008Y139470D01*
X203994Y139485D01*
X203875Y139557D01*
X203759Y139634D01*
X203740Y139640D01*
X203723Y139651D01*
X203590Y139692D01*
X203458Y139737D01*
X203438Y139739D01*
X203419Y139745D01*
X203280Y139751D01*
X203141Y139762D01*
X203121Y139759D01*
X203101Y139760D01*
X202965Y139732D01*
X202828Y139708D01*
X202809Y139699D01*
X202790Y139695D01*
X202665Y139634D01*
X202538Y139577D01*
X202522Y139565D01*
X202504Y139556D01*
X202398Y139465D01*
X202290Y139379D01*
X202277Y139362D01*
X202262Y139349D01*
X202182Y139236D01*
X202098Y139125D01*
X202086Y139099D01*
X202079Y139089D01*
X202072Y139070D01*
X202027Y138980D01*
X201288Y137196D01*
X198604Y134512D01*
X195098Y133059D01*
X191302Y133059D01*
G37*
%LPD*%
%LPC*%
G36*
X166302Y133059D02*
X166302Y133059D01*
X162796Y134512D01*
X160112Y137196D01*
X158659Y140702D01*
X158659Y144498D01*
X160112Y148004D01*
X162796Y150688D01*
X166302Y152141D01*
X170098Y152141D01*
X173604Y150688D01*
X176288Y148004D01*
X177741Y144498D01*
X177741Y140702D01*
X176288Y137196D01*
X173604Y134512D01*
X170098Y133059D01*
X166302Y133059D01*
G37*
%LPD*%
%LPC*%
G36*
X89957Y342436D02*
X89957Y342436D01*
X86736Y343770D01*
X84270Y346236D01*
X82936Y349457D01*
X82936Y352943D01*
X84270Y356164D01*
X86736Y358630D01*
X89957Y359964D01*
X93443Y359964D01*
X96664Y358630D01*
X99130Y356164D01*
X100464Y352943D01*
X100464Y349457D01*
X99898Y348090D01*
X99888Y348057D01*
X99873Y348025D01*
X99847Y347904D01*
X99814Y347784D01*
X99813Y347749D01*
X99806Y347714D01*
X99811Y347590D01*
X99809Y347466D01*
X99817Y347432D01*
X99818Y347397D01*
X99854Y347278D01*
X99883Y347156D01*
X99899Y347125D01*
X99909Y347092D01*
X99973Y346985D01*
X100032Y346875D01*
X100055Y346849D01*
X100073Y346819D01*
X100162Y346732D01*
X100246Y346640D01*
X100275Y346621D01*
X100300Y346596D01*
X100407Y346534D01*
X100511Y346465D01*
X100544Y346454D01*
X100575Y346436D01*
X100694Y346402D01*
X100812Y346362D01*
X100847Y346359D01*
X100881Y346350D01*
X101005Y346347D01*
X101129Y346337D01*
X101164Y346343D01*
X101199Y346342D01*
X101320Y346370D01*
X101442Y346391D01*
X101474Y346406D01*
X101508Y346413D01*
X101619Y346471D01*
X101732Y346522D01*
X101760Y346544D01*
X101791Y346560D01*
X101883Y346642D01*
X101981Y346720D01*
X102002Y346748D01*
X102028Y346772D01*
X102126Y346899D01*
X102462Y347403D01*
X103447Y348388D01*
X104604Y349161D01*
X105889Y349693D01*
X106451Y349805D01*
X106451Y344399D01*
X101045Y344399D01*
X101160Y344979D01*
X101168Y345083D01*
X101184Y345187D01*
X101179Y345242D01*
X101183Y345296D01*
X101164Y345399D01*
X101154Y345503D01*
X101136Y345555D01*
X101126Y345609D01*
X101082Y345704D01*
X101047Y345802D01*
X101016Y345848D01*
X100993Y345898D01*
X100927Y345979D01*
X100868Y346066D01*
X100827Y346102D01*
X100792Y346145D01*
X100708Y346207D01*
X100630Y346276D01*
X100581Y346301D01*
X100536Y346334D01*
X100440Y346373D01*
X100347Y346421D01*
X100293Y346433D01*
X100242Y346454D01*
X100138Y346467D01*
X100036Y346490D01*
X99981Y346489D01*
X99927Y346496D01*
X99823Y346484D01*
X99718Y346481D01*
X99665Y346465D01*
X99611Y346459D01*
X99513Y346421D01*
X99413Y346392D01*
X99365Y346364D01*
X99314Y346344D01*
X99229Y346284D01*
X99139Y346231D01*
X99073Y346172D01*
X99055Y346160D01*
X99045Y346148D01*
X99018Y346124D01*
X96664Y343770D01*
X93443Y342436D01*
X89957Y342436D01*
G37*
%LPD*%
%LPC*%
G36*
X89957Y494836D02*
X89957Y494836D01*
X86736Y496170D01*
X84270Y498636D01*
X82936Y501857D01*
X82936Y505343D01*
X84270Y508564D01*
X86736Y511030D01*
X89957Y512364D01*
X93443Y512364D01*
X96664Y511030D01*
X99130Y508564D01*
X100464Y505343D01*
X100464Y501857D01*
X99130Y498636D01*
X96664Y496170D01*
X93443Y494836D01*
X89957Y494836D01*
G37*
%LPD*%
%LPC*%
G36*
X64557Y494836D02*
X64557Y494836D01*
X61336Y496170D01*
X58870Y498636D01*
X57536Y501857D01*
X57536Y505343D01*
X58870Y508564D01*
X61336Y511030D01*
X64557Y512364D01*
X68043Y512364D01*
X71264Y511030D01*
X73730Y508564D01*
X75064Y505343D01*
X75064Y501857D01*
X73730Y498636D01*
X71264Y496170D01*
X68043Y494836D01*
X64557Y494836D01*
G37*
%LPD*%
%LPC*%
G36*
X343957Y469436D02*
X343957Y469436D01*
X340736Y470770D01*
X338270Y473236D01*
X336936Y476457D01*
X336936Y479943D01*
X338270Y483164D01*
X340736Y485630D01*
X343957Y486964D01*
X347443Y486964D01*
X350664Y485630D01*
X353130Y483164D01*
X354464Y479943D01*
X354464Y476457D01*
X353130Y473236D01*
X350664Y470770D01*
X347443Y469436D01*
X343957Y469436D01*
G37*
%LPD*%
%LPC*%
G36*
X318557Y469436D02*
X318557Y469436D01*
X315336Y470770D01*
X312870Y473236D01*
X311536Y476457D01*
X311536Y479943D01*
X312870Y483164D01*
X315336Y485630D01*
X318557Y486964D01*
X322043Y486964D01*
X325264Y485630D01*
X327730Y483164D01*
X329064Y479943D01*
X329064Y476457D01*
X327730Y473236D01*
X325264Y470770D01*
X322043Y469436D01*
X318557Y469436D01*
G37*
%LPD*%
%LPC*%
G36*
X89957Y469436D02*
X89957Y469436D01*
X86736Y470770D01*
X84270Y473236D01*
X82936Y476457D01*
X82936Y479943D01*
X84270Y483164D01*
X86736Y485630D01*
X89957Y486964D01*
X93443Y486964D01*
X96664Y485630D01*
X99130Y483164D01*
X100464Y479943D01*
X100464Y476457D01*
X99130Y473236D01*
X96664Y470770D01*
X93443Y469436D01*
X89957Y469436D01*
G37*
%LPD*%
%LPC*%
G36*
X64557Y469436D02*
X64557Y469436D01*
X61336Y470770D01*
X58870Y473236D01*
X57536Y476457D01*
X57536Y479943D01*
X58870Y483164D01*
X61336Y485630D01*
X64557Y486964D01*
X68043Y486964D01*
X71264Y485630D01*
X73730Y483164D01*
X75064Y479943D01*
X75064Y476457D01*
X73730Y473236D01*
X71264Y470770D01*
X68043Y469436D01*
X64557Y469436D01*
G37*
%LPD*%
%LPC*%
G36*
X343957Y444036D02*
X343957Y444036D01*
X340736Y445370D01*
X338270Y447836D01*
X336936Y451057D01*
X336936Y454543D01*
X338270Y457764D01*
X340736Y460230D01*
X343957Y461564D01*
X347443Y461564D01*
X350664Y460230D01*
X353130Y457764D01*
X354464Y454543D01*
X354464Y451057D01*
X353130Y447836D01*
X350664Y445370D01*
X347443Y444036D01*
X343957Y444036D01*
G37*
%LPD*%
%LPC*%
G36*
X318557Y444036D02*
X318557Y444036D01*
X315336Y445370D01*
X312870Y447836D01*
X311536Y451057D01*
X311536Y454543D01*
X312870Y457764D01*
X315336Y460230D01*
X318557Y461564D01*
X322043Y461564D01*
X325264Y460230D01*
X327730Y457764D01*
X329064Y454543D01*
X329064Y451057D01*
X327730Y447836D01*
X325264Y445370D01*
X322043Y444036D01*
X318557Y444036D01*
G37*
%LPD*%
%LPC*%
G36*
X89957Y444036D02*
X89957Y444036D01*
X86736Y445370D01*
X84270Y447836D01*
X82936Y451057D01*
X82936Y454543D01*
X84270Y457764D01*
X86736Y460230D01*
X89957Y461564D01*
X93443Y461564D01*
X96664Y460230D01*
X99130Y457764D01*
X100464Y454543D01*
X100464Y451057D01*
X99130Y447836D01*
X96664Y445370D01*
X93443Y444036D01*
X89957Y444036D01*
G37*
%LPD*%
%LPC*%
G36*
X64557Y444036D02*
X64557Y444036D01*
X61336Y445370D01*
X58870Y447836D01*
X57536Y451057D01*
X57536Y454543D01*
X58870Y457764D01*
X61336Y460230D01*
X64557Y461564D01*
X68043Y461564D01*
X71264Y460230D01*
X73730Y457764D01*
X75064Y454543D01*
X75064Y451057D01*
X73730Y447836D01*
X71264Y445370D01*
X68043Y444036D01*
X64557Y444036D01*
G37*
%LPD*%
%LPC*%
G36*
X343957Y418636D02*
X343957Y418636D01*
X340736Y419970D01*
X338270Y422436D01*
X336936Y425657D01*
X336936Y429143D01*
X338270Y432364D01*
X340736Y434830D01*
X343957Y436164D01*
X347443Y436164D01*
X350664Y434830D01*
X353130Y432364D01*
X354464Y429143D01*
X354464Y425657D01*
X353130Y422436D01*
X350664Y419970D01*
X347443Y418636D01*
X343957Y418636D01*
G37*
%LPD*%
%LPC*%
G36*
X318557Y418636D02*
X318557Y418636D01*
X315336Y419970D01*
X312870Y422436D01*
X311536Y425657D01*
X311536Y429143D01*
X312870Y432364D01*
X315336Y434830D01*
X318557Y436164D01*
X322043Y436164D01*
X325264Y434830D01*
X327730Y432364D01*
X329064Y429143D01*
X329064Y425657D01*
X327730Y422436D01*
X325264Y419970D01*
X322043Y418636D01*
X318557Y418636D01*
G37*
%LPD*%
%LPC*%
G36*
X89957Y418636D02*
X89957Y418636D01*
X86736Y419970D01*
X84270Y422436D01*
X82936Y425657D01*
X82936Y429143D01*
X84270Y432364D01*
X86736Y434830D01*
X89957Y436164D01*
X93443Y436164D01*
X96664Y434830D01*
X99130Y432364D01*
X100464Y429143D01*
X100464Y425657D01*
X99130Y422436D01*
X96664Y419970D01*
X93443Y418636D01*
X89957Y418636D01*
G37*
%LPD*%
%LPC*%
G36*
X64557Y418636D02*
X64557Y418636D01*
X61336Y419970D01*
X58870Y422436D01*
X57536Y425657D01*
X57536Y429143D01*
X58870Y432364D01*
X61336Y434830D01*
X64557Y436164D01*
X68043Y436164D01*
X71264Y434830D01*
X73730Y432364D01*
X75064Y429143D01*
X75064Y425657D01*
X73730Y422436D01*
X71264Y419970D01*
X68043Y418636D01*
X64557Y418636D01*
G37*
%LPD*%
%LPC*%
G36*
X343957Y393236D02*
X343957Y393236D01*
X340736Y394570D01*
X338270Y397036D01*
X336936Y400257D01*
X336936Y403743D01*
X338270Y406964D01*
X340736Y409430D01*
X343957Y410764D01*
X347443Y410764D01*
X350664Y409430D01*
X353130Y406964D01*
X354464Y403743D01*
X354464Y400257D01*
X353130Y397036D01*
X350664Y394570D01*
X347443Y393236D01*
X343957Y393236D01*
G37*
%LPD*%
%LPC*%
G36*
X318557Y393236D02*
X318557Y393236D01*
X315336Y394570D01*
X312870Y397036D01*
X311536Y400257D01*
X311536Y403743D01*
X312870Y406964D01*
X315336Y409430D01*
X318557Y410764D01*
X322043Y410764D01*
X325264Y409430D01*
X327730Y406964D01*
X329064Y403743D01*
X329064Y400257D01*
X327730Y397036D01*
X325264Y394570D01*
X322043Y393236D01*
X318557Y393236D01*
G37*
%LPD*%
%LPC*%
G36*
X89957Y393236D02*
X89957Y393236D01*
X86736Y394570D01*
X84270Y397036D01*
X82936Y400257D01*
X82936Y403743D01*
X84270Y406964D01*
X86736Y409430D01*
X89957Y410764D01*
X93443Y410764D01*
X96664Y409430D01*
X99130Y406964D01*
X100464Y403743D01*
X100464Y400257D01*
X99130Y397036D01*
X96664Y394570D01*
X93443Y393236D01*
X89957Y393236D01*
G37*
%LPD*%
%LPC*%
G36*
X64557Y393236D02*
X64557Y393236D01*
X61336Y394570D01*
X58870Y397036D01*
X57536Y400257D01*
X57536Y403743D01*
X58870Y406964D01*
X61336Y409430D01*
X64557Y410764D01*
X68043Y410764D01*
X71264Y409430D01*
X73730Y406964D01*
X75064Y403743D01*
X75064Y400257D01*
X73730Y397036D01*
X71264Y394570D01*
X68043Y393236D01*
X64557Y393236D01*
G37*
%LPD*%
%LPC*%
G36*
X89957Y367836D02*
X89957Y367836D01*
X86736Y369170D01*
X84270Y371636D01*
X82936Y374857D01*
X82936Y378343D01*
X84270Y381564D01*
X86736Y384030D01*
X89957Y385364D01*
X93443Y385364D01*
X96664Y384030D01*
X99130Y381564D01*
X100464Y378343D01*
X100464Y374857D01*
X99130Y371636D01*
X96664Y369170D01*
X93443Y367836D01*
X89957Y367836D01*
G37*
%LPD*%
%LPC*%
G36*
X64557Y367836D02*
X64557Y367836D01*
X61336Y369170D01*
X58870Y371636D01*
X57536Y374857D01*
X57536Y378343D01*
X58870Y381564D01*
X61336Y384030D01*
X64557Y385364D01*
X68043Y385364D01*
X71264Y384030D01*
X73730Y381564D01*
X75064Y378343D01*
X75064Y374857D01*
X73730Y371636D01*
X71264Y369170D01*
X68043Y367836D01*
X64557Y367836D01*
G37*
%LPD*%
%LPC*%
G36*
X343957Y367836D02*
X343957Y367836D01*
X340736Y369170D01*
X338270Y371636D01*
X336936Y374857D01*
X336936Y378343D01*
X338270Y381564D01*
X340736Y384030D01*
X343957Y385364D01*
X347443Y385364D01*
X350664Y384030D01*
X353130Y381564D01*
X354464Y378343D01*
X354464Y374857D01*
X353130Y371636D01*
X350664Y369170D01*
X347443Y367836D01*
X343957Y367836D01*
G37*
%LPD*%
%LPC*%
G36*
X318557Y367836D02*
X318557Y367836D01*
X315336Y369170D01*
X312870Y371636D01*
X311536Y374857D01*
X311536Y378343D01*
X312870Y381564D01*
X315336Y384030D01*
X318557Y385364D01*
X322043Y385364D01*
X325264Y384030D01*
X327730Y381564D01*
X329064Y378343D01*
X329064Y374857D01*
X327730Y371636D01*
X325264Y369170D01*
X322043Y367836D01*
X318557Y367836D01*
G37*
%LPD*%
%LPC*%
G36*
X64557Y342436D02*
X64557Y342436D01*
X61336Y343770D01*
X58870Y346236D01*
X57536Y349457D01*
X57536Y352943D01*
X58870Y356164D01*
X61336Y358630D01*
X64557Y359964D01*
X68043Y359964D01*
X71264Y358630D01*
X73730Y356164D01*
X75064Y352943D01*
X75064Y349457D01*
X73730Y346236D01*
X71264Y343770D01*
X68043Y342436D01*
X64557Y342436D01*
G37*
%LPD*%
%LPC*%
G36*
X343957Y342436D02*
X343957Y342436D01*
X340736Y343770D01*
X338270Y346236D01*
X336936Y349457D01*
X336936Y352943D01*
X338270Y356164D01*
X340736Y358630D01*
X343957Y359964D01*
X347443Y359964D01*
X350664Y358630D01*
X353130Y356164D01*
X354464Y352943D01*
X354464Y349457D01*
X353130Y346236D01*
X350664Y343770D01*
X347443Y342436D01*
X343957Y342436D01*
G37*
%LPD*%
%LPC*%
G36*
X318557Y342436D02*
X318557Y342436D01*
X315336Y343770D01*
X312870Y346236D01*
X311536Y349457D01*
X311536Y352943D01*
X312870Y356164D01*
X315336Y358630D01*
X318557Y359964D01*
X322043Y359964D01*
X325264Y358630D01*
X327730Y356164D01*
X329064Y352943D01*
X329064Y349457D01*
X327730Y346236D01*
X325264Y343770D01*
X322043Y342436D01*
X318557Y342436D01*
G37*
%LPD*%
%LPC*%
G36*
X318557Y88436D02*
X318557Y88436D01*
X315336Y89770D01*
X312870Y92236D01*
X311536Y95457D01*
X311536Y98943D01*
X312870Y102164D01*
X315336Y104630D01*
X318557Y105964D01*
X322043Y105964D01*
X325264Y104630D01*
X327730Y102164D01*
X329064Y98943D01*
X329064Y95457D01*
X327730Y92236D01*
X325264Y89770D01*
X322043Y88436D01*
X318557Y88436D01*
G37*
%LPD*%
%LPC*%
G36*
X64557Y139236D02*
X64557Y139236D01*
X61336Y140570D01*
X58870Y143036D01*
X57536Y146257D01*
X57536Y149743D01*
X58870Y152964D01*
X61336Y155430D01*
X64557Y156764D01*
X68043Y156764D01*
X71264Y155430D01*
X73730Y152964D01*
X75064Y149743D01*
X75064Y146257D01*
X73730Y143036D01*
X71264Y140570D01*
X68043Y139236D01*
X64557Y139236D01*
G37*
%LPD*%
%LPC*%
G36*
X89957Y139236D02*
X89957Y139236D01*
X86736Y140570D01*
X84270Y143036D01*
X82936Y146257D01*
X82936Y149743D01*
X84270Y152964D01*
X86736Y155430D01*
X89957Y156764D01*
X93443Y156764D01*
X96664Y155430D01*
X99130Y152964D01*
X100464Y149743D01*
X100464Y146257D01*
X99130Y143036D01*
X96664Y140570D01*
X93443Y139236D01*
X89957Y139236D01*
G37*
%LPD*%
%LPC*%
G36*
X318557Y139236D02*
X318557Y139236D01*
X315336Y140570D01*
X312870Y143036D01*
X311536Y146257D01*
X311536Y149743D01*
X312870Y152964D01*
X315336Y155430D01*
X318557Y156764D01*
X322043Y156764D01*
X325264Y155430D01*
X327730Y152964D01*
X329064Y149743D01*
X329064Y146257D01*
X327730Y143036D01*
X325264Y140570D01*
X322043Y139236D01*
X318557Y139236D01*
G37*
%LPD*%
%LPC*%
G36*
X343957Y139236D02*
X343957Y139236D01*
X340736Y140570D01*
X338270Y143036D01*
X336936Y146257D01*
X336936Y149743D01*
X338270Y152964D01*
X340736Y155430D01*
X343957Y156764D01*
X347443Y156764D01*
X350664Y155430D01*
X353130Y152964D01*
X354464Y149743D01*
X354464Y146257D01*
X353130Y143036D01*
X350664Y140570D01*
X347443Y139236D01*
X343957Y139236D01*
G37*
%LPD*%
%LPC*%
G36*
X343957Y317036D02*
X343957Y317036D01*
X340736Y318370D01*
X338270Y320836D01*
X336936Y324057D01*
X336936Y327543D01*
X338270Y330764D01*
X340736Y333230D01*
X343957Y334564D01*
X347443Y334564D01*
X350664Y333230D01*
X353130Y330764D01*
X354464Y327543D01*
X354464Y324057D01*
X353130Y320836D01*
X350664Y318370D01*
X347443Y317036D01*
X343957Y317036D01*
G37*
%LPD*%
%LPC*%
G36*
X64557Y317036D02*
X64557Y317036D01*
X61336Y318370D01*
X58870Y320836D01*
X57536Y324057D01*
X57536Y327543D01*
X58870Y330764D01*
X61336Y333230D01*
X64557Y334564D01*
X68043Y334564D01*
X71264Y333230D01*
X73730Y330764D01*
X75064Y327543D01*
X75064Y324057D01*
X73730Y320836D01*
X71264Y318370D01*
X68043Y317036D01*
X64557Y317036D01*
G37*
%LPD*%
%LPC*%
G36*
X64557Y164636D02*
X64557Y164636D01*
X61336Y165970D01*
X58870Y168436D01*
X57536Y171657D01*
X57536Y175143D01*
X58870Y178364D01*
X61336Y180830D01*
X64557Y182164D01*
X68043Y182164D01*
X71264Y180830D01*
X73730Y178364D01*
X75064Y175143D01*
X75064Y171657D01*
X73730Y168436D01*
X71264Y165970D01*
X68043Y164636D01*
X64557Y164636D01*
G37*
%LPD*%
%LPC*%
G36*
X89957Y164636D02*
X89957Y164636D01*
X86736Y165970D01*
X84270Y168436D01*
X82936Y171657D01*
X82936Y175143D01*
X84270Y178364D01*
X86736Y180830D01*
X89957Y182164D01*
X93443Y182164D01*
X96664Y180830D01*
X99130Y178364D01*
X100464Y175143D01*
X100464Y171657D01*
X99130Y168436D01*
X96664Y165970D01*
X93443Y164636D01*
X89957Y164636D01*
G37*
%LPD*%
%LPC*%
G36*
X318557Y164636D02*
X318557Y164636D01*
X315336Y165970D01*
X312870Y168436D01*
X311536Y171657D01*
X311536Y175143D01*
X312870Y178364D01*
X315336Y180830D01*
X318557Y182164D01*
X322043Y182164D01*
X325264Y180830D01*
X327730Y178364D01*
X329064Y175143D01*
X329064Y171657D01*
X327730Y168436D01*
X325264Y165970D01*
X322043Y164636D01*
X318557Y164636D01*
G37*
%LPD*%
%LPC*%
G36*
X343957Y164636D02*
X343957Y164636D01*
X340736Y165970D01*
X338270Y168436D01*
X336936Y171657D01*
X336936Y175143D01*
X338270Y178364D01*
X340736Y180830D01*
X343957Y182164D01*
X347443Y182164D01*
X350664Y180830D01*
X353130Y178364D01*
X354464Y175143D01*
X354464Y171657D01*
X353130Y168436D01*
X350664Y165970D01*
X347443Y164636D01*
X343957Y164636D01*
G37*
%LPD*%
%LPC*%
G36*
X89957Y190036D02*
X89957Y190036D01*
X86736Y191370D01*
X84270Y193836D01*
X82936Y197057D01*
X82936Y200543D01*
X84270Y203764D01*
X86736Y206230D01*
X89957Y207564D01*
X93443Y207564D01*
X96664Y206230D01*
X99130Y203764D01*
X100464Y200543D01*
X100464Y197057D01*
X99130Y193836D01*
X96664Y191370D01*
X93443Y190036D01*
X89957Y190036D01*
G37*
%LPD*%
%LPC*%
G36*
X318557Y190036D02*
X318557Y190036D01*
X315336Y191370D01*
X312870Y193836D01*
X311536Y197057D01*
X311536Y200543D01*
X312870Y203764D01*
X315336Y206230D01*
X318557Y207564D01*
X322043Y207564D01*
X325264Y206230D01*
X327730Y203764D01*
X329064Y200543D01*
X329064Y197057D01*
X327730Y193836D01*
X325264Y191370D01*
X322043Y190036D01*
X318557Y190036D01*
G37*
%LPD*%
%LPC*%
G36*
X64557Y190036D02*
X64557Y190036D01*
X61336Y191370D01*
X58870Y193836D01*
X57536Y197057D01*
X57536Y200543D01*
X58870Y203764D01*
X61336Y206230D01*
X64557Y207564D01*
X68043Y207564D01*
X71264Y206230D01*
X73730Y203764D01*
X75064Y200543D01*
X75064Y197057D01*
X73730Y193836D01*
X71264Y191370D01*
X68043Y190036D01*
X64557Y190036D01*
G37*
%LPD*%
%LPC*%
G36*
X343957Y190036D02*
X343957Y190036D01*
X340736Y191370D01*
X338270Y193836D01*
X336936Y197057D01*
X336936Y200543D01*
X338270Y203764D01*
X340736Y206230D01*
X343957Y207564D01*
X347443Y207564D01*
X350664Y206230D01*
X353130Y203764D01*
X354464Y200543D01*
X354464Y197057D01*
X353130Y193836D01*
X350664Y191370D01*
X347443Y190036D01*
X343957Y190036D01*
G37*
%LPD*%
%LPC*%
G36*
X343957Y291636D02*
X343957Y291636D01*
X340736Y292970D01*
X338270Y295436D01*
X336936Y298657D01*
X336936Y302143D01*
X338270Y305364D01*
X340736Y307830D01*
X343957Y309164D01*
X347443Y309164D01*
X350664Y307830D01*
X353130Y305364D01*
X354464Y302143D01*
X354464Y298657D01*
X353130Y295436D01*
X350664Y292970D01*
X347443Y291636D01*
X343957Y291636D01*
G37*
%LPD*%
%LPC*%
G36*
X318557Y291636D02*
X318557Y291636D01*
X315336Y292970D01*
X312870Y295436D01*
X311536Y298657D01*
X311536Y302143D01*
X312870Y305364D01*
X315336Y307830D01*
X318557Y309164D01*
X322043Y309164D01*
X325264Y307830D01*
X327730Y305364D01*
X329064Y302143D01*
X329064Y298657D01*
X327730Y295436D01*
X325264Y292970D01*
X322043Y291636D01*
X318557Y291636D01*
G37*
%LPD*%
%LPC*%
G36*
X89957Y291636D02*
X89957Y291636D01*
X86736Y292970D01*
X84270Y295436D01*
X82936Y298657D01*
X82936Y302143D01*
X84270Y305364D01*
X86736Y307830D01*
X89957Y309164D01*
X93443Y309164D01*
X96664Y307830D01*
X99130Y305364D01*
X100464Y302143D01*
X100464Y298657D01*
X99130Y295436D01*
X96664Y292970D01*
X93443Y291636D01*
X89957Y291636D01*
G37*
%LPD*%
%LPC*%
G36*
X64557Y291636D02*
X64557Y291636D01*
X61336Y292970D01*
X58870Y295436D01*
X57536Y298657D01*
X57536Y302143D01*
X58870Y305364D01*
X61336Y307830D01*
X64557Y309164D01*
X68043Y309164D01*
X71264Y307830D01*
X73730Y305364D01*
X75064Y302143D01*
X75064Y298657D01*
X73730Y295436D01*
X71264Y292970D01*
X68043Y291636D01*
X64557Y291636D01*
G37*
%LPD*%
%LPC*%
G36*
X343957Y266236D02*
X343957Y266236D01*
X340736Y267570D01*
X338270Y270036D01*
X336936Y273257D01*
X336936Y276743D01*
X338270Y279964D01*
X340736Y282430D01*
X343957Y283764D01*
X347443Y283764D01*
X350664Y282430D01*
X353130Y279964D01*
X354464Y276743D01*
X354464Y273257D01*
X353130Y270036D01*
X350664Y267570D01*
X347443Y266236D01*
X343957Y266236D01*
G37*
%LPD*%
%LPC*%
G36*
X318557Y266236D02*
X318557Y266236D01*
X315336Y267570D01*
X312870Y270036D01*
X311536Y273257D01*
X311536Y276743D01*
X312870Y279964D01*
X315336Y282430D01*
X318557Y283764D01*
X322043Y283764D01*
X325264Y282430D01*
X327730Y279964D01*
X329064Y276743D01*
X329064Y273257D01*
X327730Y270036D01*
X325264Y267570D01*
X322043Y266236D01*
X318557Y266236D01*
G37*
%LPD*%
%LPC*%
G36*
X89957Y266236D02*
X89957Y266236D01*
X86736Y267570D01*
X84270Y270036D01*
X82936Y273257D01*
X82936Y276743D01*
X84270Y279964D01*
X86736Y282430D01*
X89957Y283764D01*
X93443Y283764D01*
X96664Y282430D01*
X99130Y279964D01*
X100464Y276743D01*
X100464Y273257D01*
X99130Y270036D01*
X96664Y267570D01*
X93443Y266236D01*
X89957Y266236D01*
G37*
%LPD*%
%LPC*%
G36*
X343957Y494836D02*
X343957Y494836D01*
X340736Y496170D01*
X338270Y498636D01*
X336936Y501857D01*
X336936Y505343D01*
X338270Y508564D01*
X340736Y511030D01*
X343957Y512364D01*
X347443Y512364D01*
X350664Y511030D01*
X353130Y508564D01*
X354464Y505343D01*
X354464Y501857D01*
X353130Y498636D01*
X350664Y496170D01*
X347443Y494836D01*
X343957Y494836D01*
G37*
%LPD*%
%LPC*%
G36*
X64557Y240836D02*
X64557Y240836D01*
X61336Y242170D01*
X58870Y244636D01*
X57536Y247857D01*
X57536Y251343D01*
X58870Y254564D01*
X61336Y257030D01*
X64557Y258364D01*
X68043Y258364D01*
X71264Y257030D01*
X73730Y254564D01*
X75064Y251343D01*
X75064Y247857D01*
X73730Y244636D01*
X71264Y242170D01*
X68043Y240836D01*
X64557Y240836D01*
G37*
%LPD*%
%LPC*%
G36*
X64557Y215436D02*
X64557Y215436D01*
X61336Y216770D01*
X58870Y219236D01*
X57536Y222457D01*
X57536Y225943D01*
X58870Y229164D01*
X61336Y231630D01*
X64557Y232964D01*
X68043Y232964D01*
X71264Y231630D01*
X73730Y229164D01*
X75064Y225943D01*
X75064Y222457D01*
X73730Y219236D01*
X71264Y216770D01*
X68043Y215436D01*
X64557Y215436D01*
G37*
%LPD*%
%LPC*%
G36*
X89957Y215436D02*
X89957Y215436D01*
X86736Y216770D01*
X84270Y219236D01*
X82936Y222457D01*
X82936Y225943D01*
X84270Y229164D01*
X86736Y231630D01*
X89957Y232964D01*
X93443Y232964D01*
X96664Y231630D01*
X99130Y229164D01*
X100464Y225943D01*
X100464Y222457D01*
X99130Y219236D01*
X96664Y216770D01*
X93443Y215436D01*
X89957Y215436D01*
G37*
%LPD*%
%LPC*%
G36*
X318557Y215436D02*
X318557Y215436D01*
X315336Y216770D01*
X312870Y219236D01*
X311536Y222457D01*
X311536Y225943D01*
X312870Y229164D01*
X315336Y231630D01*
X318557Y232964D01*
X322043Y232964D01*
X325264Y231630D01*
X327730Y229164D01*
X329064Y225943D01*
X329064Y222457D01*
X327730Y219236D01*
X325264Y216770D01*
X322043Y215436D01*
X318557Y215436D01*
G37*
%LPD*%
%LPC*%
G36*
X343957Y215436D02*
X343957Y215436D01*
X340736Y216770D01*
X338270Y219236D01*
X336936Y222457D01*
X336936Y225943D01*
X338270Y229164D01*
X340736Y231630D01*
X343957Y232964D01*
X347443Y232964D01*
X350664Y231630D01*
X353130Y229164D01*
X354464Y225943D01*
X354464Y222457D01*
X353130Y219236D01*
X350664Y216770D01*
X347443Y215436D01*
X343957Y215436D01*
G37*
%LPD*%
%LPC*%
G36*
X343957Y113836D02*
X343957Y113836D01*
X340736Y115170D01*
X338270Y117636D01*
X336936Y120857D01*
X336936Y124343D01*
X338270Y127564D01*
X340736Y130030D01*
X343957Y131364D01*
X347443Y131364D01*
X350664Y130030D01*
X353130Y127564D01*
X354464Y124343D01*
X354464Y120857D01*
X353130Y117636D01*
X350664Y115170D01*
X347443Y113836D01*
X343957Y113836D01*
G37*
%LPD*%
%LPC*%
G36*
X318557Y113836D02*
X318557Y113836D01*
X315336Y115170D01*
X312870Y117636D01*
X311536Y120857D01*
X311536Y124343D01*
X312870Y127564D01*
X315336Y130030D01*
X318557Y131364D01*
X322043Y131364D01*
X325264Y130030D01*
X327730Y127564D01*
X329064Y124343D01*
X329064Y120857D01*
X327730Y117636D01*
X325264Y115170D01*
X322043Y113836D01*
X318557Y113836D01*
G37*
%LPD*%
%LPC*%
G36*
X89957Y113836D02*
X89957Y113836D01*
X86736Y115170D01*
X84270Y117636D01*
X82936Y120857D01*
X82936Y124343D01*
X84270Y127564D01*
X86736Y130030D01*
X89957Y131364D01*
X93443Y131364D01*
X96664Y130030D01*
X99130Y127564D01*
X100464Y124343D01*
X100464Y120857D01*
X99130Y117636D01*
X96664Y115170D01*
X93443Y113836D01*
X89957Y113836D01*
G37*
%LPD*%
%LPC*%
G36*
X64557Y266236D02*
X64557Y266236D01*
X61336Y267570D01*
X58870Y270036D01*
X57536Y273257D01*
X57536Y276743D01*
X58870Y279964D01*
X61336Y282430D01*
X64557Y283764D01*
X68043Y283764D01*
X71264Y282430D01*
X73730Y279964D01*
X75064Y276743D01*
X75064Y273257D01*
X73730Y270036D01*
X71264Y267570D01*
X68043Y266236D01*
X64557Y266236D01*
G37*
%LPD*%
%LPC*%
G36*
X343957Y88436D02*
X343957Y88436D01*
X340736Y89770D01*
X338270Y92236D01*
X336936Y95457D01*
X336936Y98943D01*
X338270Y102164D01*
X340736Y104630D01*
X343957Y105964D01*
X347443Y105964D01*
X350664Y104630D01*
X353130Y102164D01*
X354464Y98943D01*
X354464Y95457D01*
X353130Y92236D01*
X350664Y89770D01*
X347443Y88436D01*
X343957Y88436D01*
G37*
%LPD*%
%LPC*%
G36*
X89957Y88436D02*
X89957Y88436D01*
X86736Y89770D01*
X84270Y92236D01*
X82936Y95457D01*
X82936Y98943D01*
X84270Y102164D01*
X86736Y104630D01*
X89957Y105964D01*
X93443Y105964D01*
X96664Y104630D01*
X99130Y102164D01*
X100464Y98943D01*
X100464Y95457D01*
X99130Y92236D01*
X96664Y89770D01*
X93443Y88436D01*
X89957Y88436D01*
G37*
%LPD*%
%LPC*%
G36*
X64557Y88436D02*
X64557Y88436D01*
X61336Y89770D01*
X58870Y92236D01*
X57536Y95457D01*
X57536Y98943D01*
X58870Y102164D01*
X61336Y104630D01*
X64557Y105964D01*
X68043Y105964D01*
X71264Y104630D01*
X73730Y102164D01*
X75064Y98943D01*
X75064Y95457D01*
X73730Y92236D01*
X71264Y89770D01*
X68043Y88436D01*
X64557Y88436D01*
G37*
%LPD*%
%LPC*%
G36*
X318557Y494836D02*
X318557Y494836D01*
X315336Y496170D01*
X312870Y498636D01*
X311536Y501857D01*
X311536Y505343D01*
X312870Y508564D01*
X315336Y511030D01*
X318557Y512364D01*
X322043Y512364D01*
X325264Y511030D01*
X327730Y508564D01*
X329064Y505343D01*
X329064Y501857D01*
X327730Y498636D01*
X325264Y496170D01*
X322043Y494836D01*
X318557Y494836D01*
G37*
%LPD*%
%LPC*%
G36*
X343957Y63036D02*
X343957Y63036D01*
X340736Y64370D01*
X338270Y66836D01*
X336936Y70057D01*
X336936Y73543D01*
X338270Y76764D01*
X340736Y79230D01*
X343957Y80564D01*
X347443Y80564D01*
X350664Y79230D01*
X353130Y76764D01*
X354464Y73543D01*
X354464Y70057D01*
X353130Y66836D01*
X350664Y64370D01*
X347443Y63036D01*
X343957Y63036D01*
G37*
%LPD*%
%LPC*%
G36*
X318557Y63036D02*
X318557Y63036D01*
X315336Y64370D01*
X312870Y66836D01*
X311536Y70057D01*
X311536Y73543D01*
X312870Y76764D01*
X315336Y79230D01*
X318557Y80564D01*
X322043Y80564D01*
X325264Y79230D01*
X327730Y76764D01*
X329064Y73543D01*
X329064Y70057D01*
X327730Y66836D01*
X325264Y64370D01*
X322043Y63036D01*
X318557Y63036D01*
G37*
%LPD*%
%LPC*%
G36*
X89957Y63036D02*
X89957Y63036D01*
X86736Y64370D01*
X84270Y66836D01*
X82936Y70057D01*
X82936Y73543D01*
X84270Y76764D01*
X86736Y79230D01*
X89957Y80564D01*
X93443Y80564D01*
X96664Y79230D01*
X99130Y76764D01*
X100464Y73543D01*
X100464Y70057D01*
X99130Y66836D01*
X96664Y64370D01*
X93443Y63036D01*
X89957Y63036D01*
G37*
%LPD*%
%LPC*%
G36*
X64557Y63036D02*
X64557Y63036D01*
X61336Y64370D01*
X58870Y66836D01*
X57536Y70057D01*
X57536Y73543D01*
X58870Y76764D01*
X61336Y79230D01*
X64557Y80564D01*
X68043Y80564D01*
X71264Y79230D01*
X73730Y76764D01*
X75064Y73543D01*
X75064Y70057D01*
X73730Y66836D01*
X71264Y64370D01*
X68043Y63036D01*
X64557Y63036D01*
G37*
%LPD*%
%LPC*%
G36*
X64557Y113836D02*
X64557Y113836D01*
X61336Y115170D01*
X58870Y117636D01*
X57536Y120857D01*
X57536Y124343D01*
X58870Y127564D01*
X61336Y130030D01*
X64557Y131364D01*
X68043Y131364D01*
X71264Y130030D01*
X73730Y127564D01*
X75064Y124343D01*
X75064Y120857D01*
X73730Y117636D01*
X71264Y115170D01*
X68043Y113836D01*
X64557Y113836D01*
G37*
%LPD*%
%LPC*%
G36*
X271439Y118038D02*
X271439Y118038D01*
X271439Y133966D01*
X272545Y133821D01*
X274905Y133188D01*
X277162Y132253D01*
X279278Y131031D01*
X281217Y129544D01*
X282945Y127816D01*
X284432Y125877D01*
X285654Y123761D01*
X286589Y121504D01*
X287222Y119144D01*
X287367Y118038D01*
X271439Y118038D01*
G37*
%LPD*%
%LPC*%
G36*
X140039Y118038D02*
X140039Y118038D01*
X140039Y133966D01*
X141145Y133821D01*
X143505Y133188D01*
X145762Y132253D01*
X147878Y131031D01*
X149817Y129544D01*
X151545Y127816D01*
X153032Y125877D01*
X154254Y123761D01*
X155189Y121504D01*
X155822Y119144D01*
X155967Y118038D01*
X140039Y118038D01*
G37*
%LPD*%
%LPC*%
G36*
X271439Y112960D02*
X271439Y112960D01*
X287367Y112960D01*
X287222Y111854D01*
X286589Y109494D01*
X285654Y107237D01*
X284432Y105121D01*
X282945Y103182D01*
X281217Y101454D01*
X279278Y99967D01*
X277162Y98745D01*
X274905Y97810D01*
X272545Y97177D01*
X271439Y97032D01*
X271439Y112960D01*
G37*
%LPD*%
%LPC*%
G36*
X140039Y112960D02*
X140039Y112960D01*
X155967Y112960D01*
X155822Y111854D01*
X155189Y109494D01*
X154254Y107237D01*
X153032Y105121D01*
X151545Y103182D01*
X149817Y101454D01*
X147878Y99967D01*
X145762Y98745D01*
X143505Y97810D01*
X141145Y97177D01*
X140039Y97032D01*
X140039Y112960D01*
G37*
%LPD*%
%LPC*%
G36*
X119033Y118038D02*
X119033Y118038D01*
X119178Y119144D01*
X119811Y121504D01*
X120746Y123761D01*
X121968Y125877D01*
X123455Y127816D01*
X125183Y129544D01*
X127122Y131031D01*
X129238Y132253D01*
X131495Y133188D01*
X133855Y133821D01*
X134961Y133966D01*
X134961Y118038D01*
X119033Y118038D01*
G37*
%LPD*%
%LPC*%
G36*
X250433Y118038D02*
X250433Y118038D01*
X250578Y119144D01*
X251211Y121504D01*
X252146Y123761D01*
X253368Y125877D01*
X254855Y127816D01*
X256583Y129544D01*
X258522Y131031D01*
X260638Y132253D01*
X262895Y133188D01*
X265255Y133821D01*
X266361Y133966D01*
X266361Y118038D01*
X250433Y118038D01*
G37*
%LPD*%
%LPC*%
G36*
X265255Y97177D02*
X265255Y97177D01*
X262895Y97810D01*
X260638Y98745D01*
X258522Y99967D01*
X256583Y101454D01*
X254855Y103182D01*
X253368Y105121D01*
X252146Y107237D01*
X251211Y109494D01*
X250578Y111854D01*
X250433Y112960D01*
X266361Y112960D01*
X266361Y97032D01*
X265255Y97177D01*
G37*
%LPD*%
%LPC*%
G36*
X133855Y97177D02*
X133855Y97177D01*
X131495Y97810D01*
X129238Y98745D01*
X127122Y99967D01*
X125183Y101454D01*
X123455Y103182D01*
X121968Y105121D01*
X120746Y107237D01*
X119811Y109494D01*
X119178Y111854D01*
X119033Y112960D01*
X134961Y112960D01*
X134961Y97032D01*
X133855Y97177D01*
G37*
%LPD*%
%LPC*%
G36*
X182745Y335835D02*
X182745Y335835D01*
X180148Y336911D01*
X178161Y338898D01*
X177085Y341495D01*
X177085Y344305D01*
X178161Y346902D01*
X180148Y348889D01*
X182745Y349965D01*
X185555Y349965D01*
X188152Y348889D01*
X190139Y346902D01*
X191215Y344305D01*
X191215Y341495D01*
X190139Y338898D01*
X188152Y336911D01*
X185555Y335835D01*
X182745Y335835D01*
G37*
%LPD*%
%LPC*%
G36*
X131945Y335835D02*
X131945Y335835D01*
X129348Y336911D01*
X127361Y338898D01*
X126285Y341495D01*
X126285Y344305D01*
X127361Y346902D01*
X129348Y348889D01*
X131945Y349965D01*
X134755Y349965D01*
X137352Y348889D01*
X139339Y346902D01*
X140415Y344305D01*
X140415Y341495D01*
X139339Y338898D01*
X137352Y336911D01*
X134755Y335835D01*
X131945Y335835D01*
G37*
%LPD*%
%LPC*%
G36*
X157345Y335835D02*
X157345Y335835D01*
X154748Y336911D01*
X152761Y338898D01*
X151685Y341495D01*
X151685Y344305D01*
X152761Y346902D01*
X154748Y348889D01*
X157345Y349965D01*
X160155Y349965D01*
X162752Y348889D01*
X164739Y346902D01*
X165815Y344305D01*
X165815Y341495D01*
X164739Y338898D01*
X162752Y336911D01*
X160155Y335835D01*
X157345Y335835D01*
G37*
%LPD*%
%LPC*%
G36*
X208145Y335835D02*
X208145Y335835D01*
X205548Y336911D01*
X203561Y338898D01*
X202485Y341495D01*
X202485Y344305D01*
X203561Y346902D01*
X205548Y348889D01*
X208145Y349965D01*
X210955Y349965D01*
X213552Y348889D01*
X215539Y346902D01*
X216615Y344305D01*
X216615Y341495D01*
X215539Y338898D01*
X213552Y336911D01*
X210955Y335835D01*
X208145Y335835D01*
G37*
%LPD*%
%LPC*%
G36*
X398645Y18335D02*
X398645Y18335D01*
X396048Y19411D01*
X394061Y21398D01*
X392985Y23995D01*
X392985Y26805D01*
X394061Y29402D01*
X396048Y31389D01*
X398645Y32465D01*
X401455Y32465D01*
X404052Y31389D01*
X406039Y29402D01*
X407115Y26805D01*
X407115Y23995D01*
X406039Y21398D01*
X404052Y19411D01*
X401455Y18335D01*
X398645Y18335D01*
G37*
%LPD*%
%LPC*%
G36*
X424045Y18335D02*
X424045Y18335D01*
X421448Y19411D01*
X419461Y21398D01*
X418385Y23995D01*
X418385Y26805D01*
X419461Y29402D01*
X421448Y31389D01*
X424045Y32465D01*
X426855Y32465D01*
X429452Y31389D01*
X431439Y29402D01*
X432515Y26805D01*
X432515Y23995D01*
X431439Y21398D01*
X429452Y19411D01*
X426855Y18335D01*
X424045Y18335D01*
G37*
%LPD*%
%LPC*%
G36*
X373245Y18335D02*
X373245Y18335D01*
X370648Y19411D01*
X368661Y21398D01*
X367585Y23995D01*
X367585Y26805D01*
X368661Y29402D01*
X370648Y31389D01*
X373245Y32465D01*
X376055Y32465D01*
X378652Y31389D01*
X380639Y29402D01*
X381715Y26805D01*
X381715Y23995D01*
X380639Y21398D01*
X378652Y19411D01*
X376055Y18335D01*
X373245Y18335D01*
G37*
%LPD*%
%LPC*%
G36*
X240699Y145099D02*
X240699Y145099D01*
X240699Y151820D01*
X241862Y151442D01*
X243201Y150760D01*
X244415Y149877D01*
X245477Y148815D01*
X246360Y147601D01*
X247042Y146262D01*
X247420Y145099D01*
X240699Y145099D01*
G37*
%LPD*%
%LPC*%
G36*
X228980Y145099D02*
X228980Y145099D01*
X229358Y146262D01*
X230040Y147601D01*
X230923Y148815D01*
X231985Y149877D01*
X233199Y150760D01*
X234538Y151442D01*
X235701Y151820D01*
X235701Y145099D01*
X228980Y145099D01*
G37*
%LPD*%
%LPC*%
G36*
X240699Y140101D02*
X240699Y140101D01*
X247420Y140101D01*
X247042Y138938D01*
X246360Y137599D01*
X245477Y136385D01*
X244415Y135323D01*
X243201Y134440D01*
X241862Y133758D01*
X240699Y133380D01*
X240699Y140101D01*
G37*
%LPD*%
%LPC*%
G36*
X234538Y133758D02*
X234538Y133758D01*
X233199Y134440D01*
X231985Y135323D01*
X230923Y136385D01*
X230040Y137599D01*
X229358Y138938D01*
X228980Y140101D01*
X235701Y140101D01*
X235701Y133380D01*
X234538Y133758D01*
G37*
%LPD*%
%LPC*%
G36*
X322522Y328022D02*
X322522Y328022D01*
X322522Y334293D01*
X322856Y334227D01*
X324451Y333566D01*
X325887Y332607D01*
X327107Y331387D01*
X328066Y329951D01*
X328727Y328356D01*
X328793Y328022D01*
X322522Y328022D01*
G37*
%LPD*%
%LPC*%
G36*
X93922Y328022D02*
X93922Y328022D01*
X93922Y334293D01*
X94256Y334227D01*
X95851Y333566D01*
X97287Y332607D01*
X98507Y331387D01*
X99466Y329951D01*
X100127Y328356D01*
X100193Y328022D01*
X93922Y328022D01*
G37*
%LPD*%
%LPC*%
G36*
X347922Y251822D02*
X347922Y251822D01*
X347922Y258093D01*
X348256Y258027D01*
X349851Y257366D01*
X351287Y256407D01*
X352507Y255187D01*
X353466Y253751D01*
X354127Y252156D01*
X354193Y251822D01*
X347922Y251822D01*
G37*
%LPD*%
%LPC*%
G36*
X93922Y251822D02*
X93922Y251822D01*
X93922Y258093D01*
X94256Y258027D01*
X95851Y257366D01*
X97287Y256407D01*
X98507Y255187D01*
X99466Y253751D01*
X100127Y252156D01*
X100193Y251822D01*
X93922Y251822D01*
G37*
%LPD*%
%LPC*%
G36*
X322522Y251822D02*
X322522Y251822D01*
X322522Y258093D01*
X322856Y258027D01*
X324451Y257366D01*
X325887Y256407D01*
X327107Y255187D01*
X328066Y253751D01*
X328727Y252156D01*
X328793Y251822D01*
X322522Y251822D01*
G37*
%LPD*%
%LPC*%
G36*
X322522Y247378D02*
X322522Y247378D01*
X328793Y247378D01*
X328727Y247044D01*
X328066Y245449D01*
X327107Y244013D01*
X325887Y242793D01*
X324451Y241834D01*
X322856Y241173D01*
X322522Y241107D01*
X322522Y247378D01*
G37*
%LPD*%
%LPC*%
G36*
X311807Y251822D02*
X311807Y251822D01*
X311873Y252156D01*
X312534Y253751D01*
X313493Y255187D01*
X314713Y256407D01*
X316149Y257366D01*
X317744Y258027D01*
X318078Y258093D01*
X318078Y251822D01*
X311807Y251822D01*
G37*
%LPD*%
%LPC*%
G36*
X93922Y247378D02*
X93922Y247378D01*
X100193Y247378D01*
X100127Y247044D01*
X99466Y245449D01*
X98507Y244013D01*
X97287Y242793D01*
X95851Y241834D01*
X94256Y241173D01*
X93922Y241107D01*
X93922Y247378D01*
G37*
%LPD*%
%LPC*%
G36*
X93922Y323578D02*
X93922Y323578D01*
X100193Y323578D01*
X100127Y323244D01*
X99466Y321649D01*
X98507Y320213D01*
X97287Y318993D01*
X95851Y318034D01*
X94256Y317373D01*
X93922Y317307D01*
X93922Y323578D01*
G37*
%LPD*%
%LPC*%
G36*
X83207Y251822D02*
X83207Y251822D01*
X83273Y252156D01*
X83934Y253751D01*
X84893Y255187D01*
X86113Y256407D01*
X87549Y257366D01*
X89144Y258027D01*
X89478Y258093D01*
X89478Y251822D01*
X83207Y251822D01*
G37*
%LPD*%
%LPC*%
G36*
X311807Y328022D02*
X311807Y328022D01*
X311873Y328356D01*
X312534Y329951D01*
X313493Y331387D01*
X314713Y332607D01*
X316149Y333566D01*
X317744Y334227D01*
X318078Y334293D01*
X318078Y328022D01*
X311807Y328022D01*
G37*
%LPD*%
%LPC*%
G36*
X322522Y323578D02*
X322522Y323578D01*
X328793Y323578D01*
X328727Y323244D01*
X328066Y321649D01*
X327107Y320213D01*
X325887Y318993D01*
X324451Y318034D01*
X322856Y317373D01*
X322522Y317307D01*
X322522Y323578D01*
G37*
%LPD*%
%LPC*%
G36*
X83207Y328022D02*
X83207Y328022D01*
X83273Y328356D01*
X83934Y329951D01*
X84893Y331387D01*
X86113Y332607D01*
X87549Y333566D01*
X89144Y334227D01*
X89478Y334293D01*
X89478Y328022D01*
X83207Y328022D01*
G37*
%LPD*%
%LPC*%
G36*
X337207Y251822D02*
X337207Y251822D01*
X337273Y252156D01*
X337934Y253751D01*
X338893Y255187D01*
X340113Y256407D01*
X341549Y257366D01*
X343144Y258027D01*
X343478Y258093D01*
X343478Y251822D01*
X337207Y251822D01*
G37*
%LPD*%
%LPC*%
G36*
X347922Y247378D02*
X347922Y247378D01*
X354193Y247378D01*
X354127Y247044D01*
X353466Y245449D01*
X352507Y244013D01*
X351287Y242793D01*
X349851Y241834D01*
X348256Y241173D01*
X347922Y241107D01*
X347922Y247378D01*
G37*
%LPD*%
%LPC*%
G36*
X343144Y241173D02*
X343144Y241173D01*
X341549Y241834D01*
X340113Y242793D01*
X338893Y244013D01*
X337934Y245449D01*
X337273Y247044D01*
X337207Y247378D01*
X343478Y247378D01*
X343478Y241107D01*
X343144Y241173D01*
G37*
%LPD*%
%LPC*%
G36*
X89144Y317373D02*
X89144Y317373D01*
X87549Y318034D01*
X86113Y318993D01*
X84893Y320213D01*
X83934Y321649D01*
X83273Y323244D01*
X83207Y323578D01*
X89478Y323578D01*
X89478Y317307D01*
X89144Y317373D01*
G37*
%LPD*%
%LPC*%
G36*
X317744Y317373D02*
X317744Y317373D01*
X316149Y318034D01*
X314713Y318993D01*
X313493Y320213D01*
X312534Y321649D01*
X311873Y323244D01*
X311807Y323578D01*
X318078Y323578D01*
X318078Y317307D01*
X317744Y317373D01*
G37*
%LPD*%
%LPC*%
G36*
X317744Y241173D02*
X317744Y241173D01*
X316149Y241834D01*
X314713Y242793D01*
X313493Y244013D01*
X312534Y245449D01*
X311873Y247044D01*
X311807Y247378D01*
X318078Y247378D01*
X318078Y241107D01*
X317744Y241173D01*
G37*
%LPD*%
%LPC*%
G36*
X89144Y241173D02*
X89144Y241173D01*
X87549Y241834D01*
X86113Y242793D01*
X84893Y244013D01*
X83934Y245449D01*
X83273Y247044D01*
X83207Y247378D01*
X89478Y247378D01*
X89478Y241107D01*
X89144Y241173D01*
G37*
%LPD*%
%LPC*%
G36*
X109449Y344399D02*
X109449Y344399D01*
X109449Y349805D01*
X110011Y349693D01*
X111296Y349161D01*
X112453Y348388D01*
X113438Y347403D01*
X114211Y346246D01*
X114743Y344961D01*
X114855Y344399D01*
X109449Y344399D01*
G37*
%LPD*%
%LPC*%
G36*
X350749Y26899D02*
X350749Y26899D01*
X350749Y32305D01*
X351311Y32193D01*
X352596Y31661D01*
X353753Y30888D01*
X354738Y29903D01*
X355511Y28746D01*
X356043Y27461D01*
X356155Y26899D01*
X350749Y26899D01*
G37*
%LPD*%
%LPC*%
G36*
X109449Y341401D02*
X109449Y341401D01*
X114855Y341401D01*
X114743Y340839D01*
X114211Y339554D01*
X113438Y338397D01*
X112453Y337412D01*
X111296Y336639D01*
X110011Y336107D01*
X109449Y335995D01*
X109449Y341401D01*
G37*
%LPD*%
%LPC*%
G36*
X342345Y26899D02*
X342345Y26899D01*
X342457Y27461D01*
X342989Y28746D01*
X343762Y29903D01*
X344747Y30888D01*
X345904Y31661D01*
X347189Y32193D01*
X347751Y32305D01*
X347751Y26899D01*
X342345Y26899D01*
G37*
%LPD*%
%LPC*%
G36*
X350749Y23901D02*
X350749Y23901D01*
X356155Y23901D01*
X356043Y23339D01*
X355511Y22054D01*
X354738Y20897D01*
X353753Y19912D01*
X352596Y19139D01*
X351311Y18607D01*
X350749Y18495D01*
X350749Y23901D01*
G37*
%LPD*%
%LPC*%
G36*
X105889Y336107D02*
X105889Y336107D01*
X104604Y336639D01*
X103447Y337412D01*
X102462Y338397D01*
X101689Y339554D01*
X101157Y340839D01*
X101045Y341401D01*
X106451Y341401D01*
X106451Y335995D01*
X105889Y336107D01*
G37*
%LPD*%
%LPC*%
G36*
X347189Y18607D02*
X347189Y18607D01*
X345904Y19139D01*
X344747Y19912D01*
X343762Y20897D01*
X342989Y22054D01*
X342457Y23339D01*
X342345Y23901D01*
X347751Y23901D01*
X347751Y18495D01*
X347189Y18607D01*
G37*
%LPD*%
%LPC*%
G36*
X268899Y115498D02*
X268899Y115498D01*
X268899Y115500D01*
X268901Y115500D01*
X268901Y115498D01*
X268899Y115498D01*
G37*
%LPD*%
%LPC*%
G36*
X137499Y115498D02*
X137499Y115498D01*
X137499Y115500D01*
X137501Y115500D01*
X137501Y115498D01*
X137499Y115498D01*
G37*
%LPD*%
D10*
X107950Y342900D03*
X133350Y342900D03*
X158750Y342900D03*
X184150Y342900D03*
X209550Y342900D03*
D11*
X168200Y142600D03*
X193200Y142600D03*
X213200Y142600D03*
X238200Y142600D03*
D12*
X137500Y115499D03*
X268900Y115499D03*
D10*
X349250Y25400D03*
X374650Y25400D03*
X400050Y25400D03*
X425450Y25400D03*
D13*
X345700Y71800D03*
X320300Y71800D03*
X345700Y97200D03*
X320300Y97200D03*
X345700Y122600D03*
X320300Y122600D03*
X345700Y148000D03*
X320300Y148000D03*
X345700Y173400D03*
X320300Y173400D03*
X345700Y198800D03*
X320300Y198800D03*
X345700Y224200D03*
X320300Y224200D03*
X345700Y249600D03*
X320300Y249600D03*
X345700Y275000D03*
X320300Y275000D03*
X345700Y300400D03*
X320300Y300400D03*
X345700Y325800D03*
X320300Y325800D03*
X345700Y351200D03*
X320300Y351200D03*
X345700Y376600D03*
X320300Y376600D03*
X345700Y402000D03*
X320300Y402000D03*
X345700Y427400D03*
X320300Y427400D03*
X345700Y452800D03*
X320300Y452800D03*
X345700Y478200D03*
X320300Y478200D03*
X345700Y503600D03*
X320300Y503600D03*
X91700Y71800D03*
X66300Y71800D03*
X91700Y97200D03*
X66300Y97200D03*
X91700Y122600D03*
X66300Y122600D03*
X91700Y148000D03*
X66300Y148000D03*
X91700Y173400D03*
X66300Y173400D03*
X91700Y198800D03*
X66300Y198800D03*
X91700Y224200D03*
X66300Y224200D03*
X91700Y249600D03*
X66300Y249600D03*
X91700Y275000D03*
X66300Y275000D03*
X91700Y300400D03*
X66300Y300400D03*
X91700Y325800D03*
X66300Y325800D03*
X91700Y351200D03*
X66300Y351200D03*
X91700Y376600D03*
X66300Y376600D03*
X91700Y402000D03*
X66300Y402000D03*
X91700Y427400D03*
X66300Y427400D03*
X91700Y452800D03*
X66300Y452800D03*
X91700Y478200D03*
X66300Y478200D03*
X91700Y503600D03*
X66300Y503600D03*
D14*
X31750Y31750D03*
X450850Y69850D03*
X450850Y552450D03*
M02*
