G04 EAGLE Gerber RS-274X export*
G75*
%MOMM*%
%FSLAX34Y34*%
%LPD*%
%INSilkscreen Top*%
%IPPOS*%
%AMOC8*
5,1,8,0,0,1.08239X$1,22.5*%
G01*
%ADD10R,0.076200X0.076200*%
%ADD11R,0.076200X0.381000*%
%ADD12R,0.076200X0.152400*%
%ADD13R,0.076200X0.533400*%
%ADD14R,0.076200X0.228600*%
%ADD15R,0.076200X0.457200*%
%ADD16R,0.076200X0.304800*%
%ADD17R,0.076200X0.685800*%
%ADD18R,0.076200X0.762000*%
%ADD19R,0.076200X0.838200*%
%ADD20R,0.076200X0.990600*%
%ADD21R,0.076200X2.362200*%
%ADD22R,0.076200X1.752600*%
%ADD23R,0.076200X1.295400*%
%ADD24C,0.076200*%
%ADD25C,0.101600*%
%ADD26C,0.050800*%
%ADD27C,0.254000*%
%ADD28C,0.152400*%
%ADD29C,0.203200*%
%ADD30C,0.127000*%


D10*
X441198Y243840D03*
X440436Y181356D03*
D11*
X440436Y244602D03*
D12*
X439674Y181737D03*
D13*
X439674Y244602D03*
D12*
X438912Y176403D03*
D14*
X438912Y182118D03*
D10*
X438912Y189738D03*
X438912Y202692D03*
X438912Y208788D03*
D14*
X438912Y246126D03*
D13*
X438150Y176784D03*
D15*
X438150Y183261D03*
X438150Y190119D03*
D12*
X438150Y194691D03*
D14*
X438150Y198120D03*
D15*
X438150Y203073D03*
X438150Y208407D03*
D14*
X438150Y212598D03*
D16*
X438150Y219837D03*
D14*
X438150Y225552D03*
D15*
X438150Y231267D03*
D14*
X438150Y236220D03*
D12*
X438150Y240411D03*
D13*
X438150Y244602D03*
D10*
X437388Y144780D03*
D14*
X437388Y178308D03*
D12*
X437388Y181737D03*
D14*
X437388Y185166D03*
X437388Y188214D03*
D10*
X437388Y194310D03*
D14*
X437388Y198120D03*
X437388Y201168D03*
D12*
X437388Y206883D03*
X437388Y212979D03*
D16*
X437388Y219837D03*
D14*
X437388Y225552D03*
D12*
X437388Y229743D03*
D14*
X437388Y233172D03*
X437388Y236220D03*
X437388Y240030D03*
X437388Y243078D03*
D12*
X437388Y246507D03*
D15*
X436626Y144399D03*
D14*
X436626Y179070D03*
D10*
X436626Y181356D03*
D12*
X436626Y185547D03*
X436626Y187833D03*
X436626Y193929D03*
D14*
X436626Y198120D03*
D12*
X436626Y200787D03*
X436626Y206121D03*
X436626Y212979D03*
D16*
X436626Y219837D03*
X436626Y225933D03*
D14*
X436626Y229362D03*
D12*
X436626Y233553D03*
X436626Y235839D03*
X436626Y240411D03*
X436626Y242697D03*
X436626Y246507D03*
D17*
X435864Y144780D03*
D16*
X435864Y178689D03*
D12*
X435864Y181737D03*
D18*
X435864Y188595D03*
D12*
X435864Y194691D03*
D14*
X435864Y198120D03*
D12*
X435864Y200787D03*
D13*
X435864Y208026D03*
D14*
X435864Y212598D03*
D11*
X435864Y220218D03*
X435864Y225552D03*
D14*
X435864Y229362D03*
D12*
X435864Y233553D03*
D14*
X435864Y236220D03*
X435864Y240030D03*
D12*
X435864Y242697D03*
X435864Y246507D03*
D19*
X435102Y144780D03*
D13*
X435102Y176784D03*
D12*
X435102Y181737D03*
D15*
X435102Y187071D03*
D14*
X435102Y191262D03*
D10*
X435102Y194310D03*
D14*
X435102Y198120D03*
D12*
X435102Y200787D03*
D14*
X435102Y206502D03*
X435102Y209550D03*
X435102Y212598D03*
D12*
X435102Y219075D03*
X435102Y221361D03*
X435102Y224409D03*
X435102Y226695D03*
D14*
X435102Y229362D03*
D12*
X435102Y233553D03*
D14*
X435102Y236220D03*
D12*
X435102Y240411D03*
X435102Y242697D03*
X435102Y246507D03*
D20*
X434340Y144780D03*
D13*
X434340Y176022D03*
D14*
X434340Y182118D03*
X434340Y185166D03*
X434340Y188214D03*
X434340Y191262D03*
D16*
X434340Y194691D03*
D14*
X434340Y198120D03*
D16*
X434340Y201549D03*
X434340Y206883D03*
D12*
X434340Y209931D03*
D14*
X434340Y212598D03*
D12*
X434340Y219075D03*
D15*
X434340Y222885D03*
D14*
X434340Y227076D03*
X434340Y230124D03*
X434340Y233172D03*
X434340Y236220D03*
D16*
X434340Y239649D03*
X434340Y243459D03*
D12*
X434340Y246507D03*
D20*
X433578Y144780D03*
D12*
X433578Y174117D03*
D15*
X433578Y183261D03*
X433578Y190119D03*
X433578Y196215D03*
X433578Y203073D03*
X433578Y208407D03*
D16*
X433578Y213741D03*
D12*
X433578Y219075D03*
D11*
X433578Y223266D03*
D14*
X433578Y227076D03*
D11*
X433578Y231648D03*
D13*
X433578Y237744D03*
D15*
X433578Y244983D03*
D20*
X432816Y144780D03*
D12*
X432816Y174117D03*
D14*
X432816Y182880D03*
D12*
X432816Y190119D03*
D10*
X432816Y194310D03*
D14*
X432816Y196596D03*
X432816Y203454D03*
X432816Y208788D03*
D10*
X432816Y212598D03*
D12*
X432816Y214503D03*
X432816Y219075D03*
D16*
X432816Y222885D03*
D14*
X432816Y227076D03*
D12*
X432816Y232029D03*
D10*
X432816Y236220D03*
D14*
X432816Y238506D03*
D16*
X432816Y244983D03*
D20*
X432054Y144780D03*
D16*
X432054Y174879D03*
D14*
X432054Y178308D03*
D12*
X432054Y218313D03*
D16*
X432054Y222885D03*
D12*
X432054Y227457D03*
D20*
X431292Y144780D03*
D13*
X431292Y176784D03*
D10*
X431292Y218694D03*
D12*
X431292Y222885D03*
X431292Y227457D03*
X430530Y122301D03*
D20*
X430530Y144780D03*
D12*
X430530Y167259D03*
D11*
X430530Y176784D03*
D10*
X430530Y218694D03*
X430530Y222504D03*
X430530Y227838D03*
D12*
X429768Y123063D03*
D19*
X429768Y144780D03*
D12*
X429768Y166497D03*
D14*
X429006Y123444D03*
D17*
X429006Y144780D03*
D16*
X429006Y165735D03*
D14*
X428244Y124968D03*
D11*
X428244Y144780D03*
D14*
X428244Y164592D03*
D11*
X427482Y125730D03*
X427482Y163068D03*
D16*
X426720Y126873D03*
D11*
X426720Y162306D03*
X425958Y128016D03*
D16*
X425958Y161163D03*
D18*
X425958Y177927D03*
D12*
X425958Y184023D03*
D15*
X425958Y196215D03*
D10*
X425958Y199644D03*
D11*
X425196Y129540D03*
D15*
X425196Y159639D03*
D18*
X425196Y177927D03*
D16*
X425196Y184023D03*
D19*
X425196Y197358D03*
D15*
X424434Y131445D03*
X424434Y158115D03*
D12*
X424434Y174879D03*
X424434Y184023D03*
X424434Y193929D03*
D16*
X424434Y200787D03*
D18*
X423672Y132969D03*
D17*
X423672Y156210D03*
D12*
X423672Y174879D03*
D16*
X423672Y184023D03*
D12*
X423672Y193929D03*
D14*
X423672Y201930D03*
D18*
X422910Y135255D03*
X422910Y153543D03*
D12*
X422910Y174879D03*
D14*
X422910Y184404D03*
D12*
X422910Y193929D03*
D14*
X422910Y201930D03*
D21*
X422148Y144780D03*
D12*
X422148Y174879D03*
D14*
X422148Y184404D03*
D12*
X422148Y193929D03*
D14*
X422148Y201930D03*
D22*
X421386Y144780D03*
D12*
X421386Y174879D03*
X421386Y184023D03*
X421386Y187833D03*
X421386Y193929D03*
X421386Y202311D03*
D23*
X420624Y144780D03*
D12*
X420624Y174879D03*
D16*
X420624Y184023D03*
X420624Y187833D03*
D12*
X420624Y193929D03*
D14*
X420624Y201930D03*
D10*
X419862Y142494D03*
D16*
X419862Y145161D03*
D12*
X419862Y174879D03*
D14*
X419862Y184404D03*
D11*
X419862Y188976D03*
D12*
X419862Y193929D03*
D14*
X419862Y201930D03*
D12*
X419100Y174879D03*
D14*
X419100Y184404D03*
D12*
X419100Y190119D03*
X419100Y193929D03*
X419100Y202311D03*
X418338Y174879D03*
X418338Y184023D03*
D14*
X418338Y190500D03*
D12*
X418338Y193929D03*
D14*
X418338Y201930D03*
D12*
X417576Y174879D03*
D16*
X417576Y184023D03*
D14*
X417576Y190500D03*
D12*
X417576Y193929D03*
X417576Y201549D03*
X416814Y174879D03*
D16*
X416814Y184785D03*
D10*
X416814Y187452D03*
D16*
X416814Y190119D03*
D11*
X416814Y195072D03*
D15*
X416814Y200025D03*
D12*
X416052Y174879D03*
D18*
X416052Y187071D03*
D19*
X416052Y197358D03*
D12*
X415290Y174879D03*
D17*
X415290Y186690D03*
X415290Y196596D03*
D24*
X425831Y367835D02*
X435229Y367835D01*
X425831Y367835D02*
X425831Y370446D01*
X425833Y370547D01*
X425839Y370648D01*
X425849Y370749D01*
X425862Y370849D01*
X425880Y370949D01*
X425901Y371048D01*
X425927Y371146D01*
X425956Y371243D01*
X425988Y371339D01*
X426025Y371433D01*
X426065Y371526D01*
X426109Y371618D01*
X426156Y371707D01*
X426207Y371795D01*
X426261Y371881D01*
X426318Y371964D01*
X426378Y372046D01*
X426442Y372124D01*
X426508Y372201D01*
X426578Y372274D01*
X426650Y372345D01*
X426725Y372413D01*
X426803Y372478D01*
X426883Y372540D01*
X426965Y372599D01*
X427050Y372655D01*
X427137Y372707D01*
X427225Y372756D01*
X427316Y372802D01*
X427408Y372843D01*
X427502Y372882D01*
X427597Y372916D01*
X427693Y372947D01*
X427791Y372974D01*
X427889Y372998D01*
X427989Y373017D01*
X428089Y373033D01*
X428189Y373045D01*
X428290Y373053D01*
X428391Y373057D01*
X428493Y373057D01*
X428594Y373053D01*
X428695Y373045D01*
X428795Y373033D01*
X428895Y373017D01*
X428995Y372998D01*
X429093Y372974D01*
X429191Y372947D01*
X429287Y372916D01*
X429382Y372882D01*
X429476Y372843D01*
X429568Y372802D01*
X429659Y372756D01*
X429748Y372707D01*
X429834Y372655D01*
X429919Y372599D01*
X430001Y372540D01*
X430081Y372478D01*
X430159Y372413D01*
X430234Y372345D01*
X430306Y372274D01*
X430376Y372201D01*
X430442Y372124D01*
X430506Y372046D01*
X430566Y371964D01*
X430623Y371881D01*
X430677Y371795D01*
X430728Y371707D01*
X430775Y371618D01*
X430819Y371526D01*
X430859Y371433D01*
X430896Y371339D01*
X430928Y371243D01*
X430957Y371146D01*
X430983Y371048D01*
X431004Y370949D01*
X431022Y370849D01*
X431035Y370749D01*
X431045Y370648D01*
X431051Y370547D01*
X431053Y370446D01*
X431052Y370446D02*
X431052Y367835D01*
X431052Y370968D02*
X435229Y373056D01*
X435229Y378401D02*
X435229Y381012D01*
X435229Y378401D02*
X435227Y378324D01*
X435221Y378248D01*
X435212Y378171D01*
X435199Y378095D01*
X435182Y378020D01*
X435162Y377946D01*
X435137Y377873D01*
X435110Y377802D01*
X435079Y377731D01*
X435044Y377663D01*
X435006Y377596D01*
X434965Y377531D01*
X434921Y377468D01*
X434874Y377408D01*
X434823Y377349D01*
X434770Y377294D01*
X434715Y377241D01*
X434656Y377190D01*
X434596Y377143D01*
X434533Y377099D01*
X434468Y377058D01*
X434401Y377020D01*
X434333Y376985D01*
X434262Y376954D01*
X434191Y376927D01*
X434118Y376902D01*
X434044Y376882D01*
X433969Y376865D01*
X433893Y376852D01*
X433816Y376843D01*
X433740Y376837D01*
X433663Y376835D01*
X431052Y376835D01*
X430962Y376837D01*
X430873Y376843D01*
X430783Y376852D01*
X430694Y376866D01*
X430606Y376883D01*
X430519Y376904D01*
X430432Y376929D01*
X430347Y376958D01*
X430263Y376990D01*
X430181Y377025D01*
X430100Y377065D01*
X430021Y377107D01*
X429944Y377153D01*
X429869Y377203D01*
X429796Y377255D01*
X429725Y377311D01*
X429657Y377369D01*
X429592Y377431D01*
X429529Y377495D01*
X429469Y377562D01*
X429412Y377631D01*
X429358Y377703D01*
X429307Y377777D01*
X429259Y377853D01*
X429215Y377931D01*
X429174Y378011D01*
X429136Y378093D01*
X429102Y378176D01*
X429072Y378261D01*
X429045Y378347D01*
X429022Y378433D01*
X429003Y378521D01*
X428988Y378610D01*
X428976Y378699D01*
X428968Y378788D01*
X428964Y378878D01*
X428964Y378968D01*
X428968Y379058D01*
X428976Y379147D01*
X428988Y379236D01*
X429003Y379325D01*
X429022Y379413D01*
X429045Y379499D01*
X429072Y379585D01*
X429102Y379670D01*
X429136Y379753D01*
X429174Y379835D01*
X429215Y379915D01*
X429259Y379993D01*
X429307Y380069D01*
X429358Y380143D01*
X429412Y380215D01*
X429469Y380284D01*
X429529Y380351D01*
X429592Y380415D01*
X429657Y380477D01*
X429725Y380535D01*
X429796Y380591D01*
X429869Y380643D01*
X429944Y380693D01*
X430021Y380739D01*
X430100Y380781D01*
X430181Y380821D01*
X430263Y380856D01*
X430347Y380888D01*
X430432Y380917D01*
X430519Y380942D01*
X430606Y380963D01*
X430694Y380980D01*
X430783Y380994D01*
X430873Y381003D01*
X430962Y381009D01*
X431052Y381011D01*
X431052Y381012D02*
X432096Y381012D01*
X432096Y376835D01*
X428964Y384455D02*
X435229Y386543D01*
X428964Y388631D01*
X434707Y391768D02*
X435229Y391768D01*
X434707Y391768D02*
X434707Y392290D01*
X435229Y392290D01*
X435229Y391768D01*
X427919Y400696D02*
X425831Y403307D01*
X435229Y403307D01*
X435229Y405917D02*
X435229Y400696D01*
X435229Y409447D02*
X434707Y409447D01*
X434707Y409969D01*
X435229Y409969D01*
X435229Y409447D01*
X430530Y413498D02*
X430345Y413500D01*
X430160Y413507D01*
X429976Y413518D01*
X429792Y413533D01*
X429608Y413553D01*
X429424Y413577D01*
X429242Y413606D01*
X429060Y413639D01*
X428879Y413676D01*
X428699Y413718D01*
X428519Y413764D01*
X428341Y413814D01*
X428165Y413868D01*
X427989Y413927D01*
X427815Y413989D01*
X427643Y414056D01*
X427472Y414127D01*
X427303Y414202D01*
X427136Y414281D01*
X427136Y414280D02*
X427056Y414310D01*
X426977Y414343D01*
X426900Y414380D01*
X426824Y414420D01*
X426750Y414463D01*
X426678Y414509D01*
X426609Y414559D01*
X426541Y414611D01*
X426476Y414667D01*
X426413Y414725D01*
X426354Y414787D01*
X426296Y414850D01*
X426242Y414917D01*
X426191Y414985D01*
X426143Y415056D01*
X426098Y415129D01*
X426056Y415203D01*
X426018Y415280D01*
X425983Y415358D01*
X425951Y415437D01*
X425923Y415518D01*
X425899Y415600D01*
X425878Y415684D01*
X425861Y415767D01*
X425848Y415852D01*
X425839Y415937D01*
X425833Y416022D01*
X425831Y416108D01*
X425833Y416194D01*
X425839Y416279D01*
X425848Y416364D01*
X425861Y416449D01*
X425878Y416532D01*
X425899Y416616D01*
X425923Y416698D01*
X425951Y416779D01*
X425983Y416858D01*
X426018Y416936D01*
X426056Y417013D01*
X426098Y417087D01*
X426143Y417160D01*
X426191Y417231D01*
X426242Y417299D01*
X426296Y417366D01*
X426354Y417429D01*
X426413Y417491D01*
X426476Y417549D01*
X426541Y417605D01*
X426609Y417657D01*
X426678Y417707D01*
X426750Y417753D01*
X426824Y417796D01*
X426900Y417836D01*
X426977Y417873D01*
X427056Y417906D01*
X427136Y417936D01*
X427303Y418015D01*
X427472Y418090D01*
X427643Y418161D01*
X427815Y418228D01*
X427989Y418290D01*
X428165Y418349D01*
X428341Y418403D01*
X428519Y418453D01*
X428699Y418499D01*
X428879Y418541D01*
X429060Y418578D01*
X429242Y418611D01*
X429424Y418640D01*
X429608Y418664D01*
X429792Y418684D01*
X429976Y418699D01*
X430160Y418710D01*
X430345Y418717D01*
X430530Y418719D01*
X430530Y413498D02*
X430715Y413500D01*
X430900Y413507D01*
X431084Y413518D01*
X431268Y413533D01*
X431452Y413553D01*
X431636Y413577D01*
X431818Y413606D01*
X432000Y413639D01*
X432181Y413676D01*
X432361Y413718D01*
X432541Y413764D01*
X432719Y413814D01*
X432895Y413868D01*
X433071Y413927D01*
X433245Y413989D01*
X433417Y414056D01*
X433588Y414127D01*
X433757Y414202D01*
X433924Y414281D01*
X433924Y414280D02*
X434004Y414310D01*
X434083Y414343D01*
X434160Y414380D01*
X434236Y414420D01*
X434310Y414463D01*
X434382Y414509D01*
X434451Y414559D01*
X434519Y414612D01*
X434584Y414667D01*
X434647Y414726D01*
X434706Y414787D01*
X434764Y414850D01*
X434818Y414917D01*
X434869Y414985D01*
X434917Y415056D01*
X434962Y415129D01*
X435004Y415203D01*
X435042Y415280D01*
X435077Y415358D01*
X435109Y415437D01*
X435137Y415518D01*
X435161Y415600D01*
X435182Y415684D01*
X435199Y415767D01*
X435212Y415852D01*
X435221Y415937D01*
X435227Y416022D01*
X435229Y416108D01*
X433924Y417936D02*
X433757Y418015D01*
X433588Y418090D01*
X433417Y418161D01*
X433245Y418228D01*
X433071Y418290D01*
X432895Y418349D01*
X432719Y418403D01*
X432541Y418453D01*
X432361Y418499D01*
X432181Y418541D01*
X432000Y418578D01*
X431818Y418611D01*
X431636Y418640D01*
X431452Y418664D01*
X431268Y418684D01*
X431084Y418699D01*
X430900Y418710D01*
X430715Y418717D01*
X430530Y418719D01*
X433924Y417936D02*
X434004Y417906D01*
X434083Y417873D01*
X434160Y417836D01*
X434236Y417796D01*
X434310Y417753D01*
X434382Y417707D01*
X434451Y417657D01*
X434519Y417605D01*
X434584Y417549D01*
X434647Y417491D01*
X434706Y417429D01*
X434764Y417366D01*
X434818Y417299D01*
X434869Y417231D01*
X434917Y417160D01*
X434962Y417087D01*
X435004Y417013D01*
X435042Y416936D01*
X435077Y416858D01*
X435109Y416779D01*
X435137Y416698D01*
X435161Y416616D01*
X435182Y416532D01*
X435199Y416449D01*
X435212Y416364D01*
X435221Y416279D01*
X435227Y416194D01*
X435229Y416108D01*
X433141Y414020D02*
X427919Y418197D01*
X409829Y264686D02*
X400431Y264686D01*
X409829Y264686D02*
X409829Y268863D01*
X407741Y272201D02*
X405652Y272201D01*
X405652Y272202D02*
X405562Y272204D01*
X405473Y272210D01*
X405383Y272219D01*
X405294Y272233D01*
X405206Y272250D01*
X405119Y272271D01*
X405032Y272296D01*
X404947Y272325D01*
X404863Y272357D01*
X404781Y272392D01*
X404700Y272432D01*
X404621Y272474D01*
X404544Y272520D01*
X404469Y272570D01*
X404396Y272622D01*
X404325Y272678D01*
X404257Y272736D01*
X404192Y272798D01*
X404129Y272862D01*
X404069Y272929D01*
X404012Y272998D01*
X403958Y273070D01*
X403907Y273144D01*
X403859Y273220D01*
X403815Y273298D01*
X403774Y273378D01*
X403736Y273460D01*
X403702Y273543D01*
X403672Y273628D01*
X403645Y273714D01*
X403622Y273800D01*
X403603Y273888D01*
X403588Y273977D01*
X403576Y274066D01*
X403568Y274155D01*
X403564Y274245D01*
X403564Y274335D01*
X403568Y274425D01*
X403576Y274514D01*
X403588Y274603D01*
X403603Y274692D01*
X403622Y274780D01*
X403645Y274866D01*
X403672Y274952D01*
X403702Y275037D01*
X403736Y275120D01*
X403774Y275202D01*
X403815Y275282D01*
X403859Y275360D01*
X403907Y275436D01*
X403958Y275510D01*
X404012Y275582D01*
X404069Y275651D01*
X404129Y275718D01*
X404192Y275782D01*
X404257Y275844D01*
X404325Y275902D01*
X404396Y275958D01*
X404469Y276010D01*
X404544Y276060D01*
X404621Y276106D01*
X404700Y276148D01*
X404781Y276188D01*
X404863Y276223D01*
X404947Y276255D01*
X405032Y276284D01*
X405119Y276309D01*
X405206Y276330D01*
X405294Y276347D01*
X405383Y276361D01*
X405473Y276370D01*
X405562Y276376D01*
X405652Y276378D01*
X407741Y276378D01*
X407831Y276376D01*
X407920Y276370D01*
X408010Y276361D01*
X408099Y276347D01*
X408187Y276330D01*
X408274Y276309D01*
X408361Y276284D01*
X408446Y276255D01*
X408530Y276223D01*
X408612Y276188D01*
X408693Y276148D01*
X408772Y276106D01*
X408849Y276060D01*
X408924Y276010D01*
X408997Y275958D01*
X409068Y275902D01*
X409136Y275844D01*
X409201Y275782D01*
X409264Y275718D01*
X409324Y275651D01*
X409381Y275582D01*
X409435Y275510D01*
X409486Y275436D01*
X409534Y275360D01*
X409578Y275282D01*
X409619Y275202D01*
X409657Y275120D01*
X409691Y275037D01*
X409721Y274952D01*
X409748Y274866D01*
X409771Y274780D01*
X409790Y274692D01*
X409805Y274603D01*
X409817Y274514D01*
X409825Y274425D01*
X409829Y274335D01*
X409829Y274245D01*
X409825Y274155D01*
X409817Y274066D01*
X409805Y273977D01*
X409790Y273888D01*
X409771Y273800D01*
X409748Y273714D01*
X409721Y273628D01*
X409691Y273543D01*
X409657Y273460D01*
X409619Y273378D01*
X409578Y273298D01*
X409534Y273220D01*
X409486Y273144D01*
X409435Y273070D01*
X409381Y272998D01*
X409324Y272929D01*
X409264Y272862D01*
X409201Y272798D01*
X409136Y272736D01*
X409068Y272678D01*
X408997Y272622D01*
X408924Y272570D01*
X408849Y272520D01*
X408772Y272474D01*
X408693Y272432D01*
X408612Y272392D01*
X408530Y272357D01*
X408446Y272325D01*
X408361Y272296D01*
X408274Y272271D01*
X408187Y272250D01*
X408099Y272233D01*
X408010Y272219D01*
X407920Y272210D01*
X407831Y272204D01*
X407741Y272202D01*
X406174Y280909D02*
X407218Y283520D01*
X406174Y280909D02*
X406146Y280843D01*
X406113Y280778D01*
X406078Y280715D01*
X406039Y280654D01*
X405997Y280595D01*
X405952Y280539D01*
X405904Y280485D01*
X405853Y280434D01*
X405800Y280385D01*
X405743Y280340D01*
X405685Y280297D01*
X405625Y280258D01*
X405562Y280221D01*
X405497Y280189D01*
X405431Y280160D01*
X405364Y280134D01*
X405295Y280112D01*
X405225Y280094D01*
X405154Y280079D01*
X405083Y280068D01*
X405011Y280061D01*
X404939Y280058D01*
X404867Y280059D01*
X404794Y280064D01*
X404723Y280072D01*
X404651Y280084D01*
X404581Y280100D01*
X404512Y280120D01*
X404443Y280144D01*
X404376Y280171D01*
X404311Y280201D01*
X404247Y280235D01*
X404185Y280273D01*
X404125Y280313D01*
X404068Y280357D01*
X404013Y280404D01*
X403960Y280454D01*
X403911Y280506D01*
X403864Y280561D01*
X403820Y280618D01*
X403779Y280678D01*
X403742Y280740D01*
X403707Y280804D01*
X403677Y280869D01*
X403649Y280936D01*
X403626Y281004D01*
X403606Y281074D01*
X403590Y281144D01*
X403577Y281215D01*
X403569Y281287D01*
X403564Y281359D01*
X403563Y281431D01*
X403564Y281432D02*
X403568Y281583D01*
X403576Y281734D01*
X403587Y281885D01*
X403603Y282036D01*
X403623Y282186D01*
X403646Y282336D01*
X403673Y282485D01*
X403704Y282633D01*
X403739Y282781D01*
X403777Y282927D01*
X403820Y283073D01*
X403866Y283217D01*
X403915Y283360D01*
X403968Y283502D01*
X404025Y283642D01*
X404086Y283781D01*
X407218Y283520D02*
X407246Y283586D01*
X407279Y283651D01*
X407314Y283714D01*
X407353Y283775D01*
X407395Y283834D01*
X407440Y283890D01*
X407488Y283944D01*
X407539Y283995D01*
X407592Y284044D01*
X407649Y284090D01*
X407707Y284132D01*
X407767Y284171D01*
X407830Y284208D01*
X407895Y284240D01*
X407961Y284269D01*
X408028Y284295D01*
X408097Y284317D01*
X408167Y284335D01*
X408238Y284350D01*
X408309Y284361D01*
X408381Y284368D01*
X408453Y284371D01*
X408525Y284370D01*
X408598Y284365D01*
X408669Y284357D01*
X408741Y284345D01*
X408811Y284329D01*
X408880Y284309D01*
X408949Y284285D01*
X409016Y284258D01*
X409081Y284228D01*
X409145Y284194D01*
X409207Y284156D01*
X409267Y284116D01*
X409324Y284072D01*
X409379Y284025D01*
X409432Y283975D01*
X409481Y283923D01*
X409528Y283868D01*
X409572Y283811D01*
X409613Y283751D01*
X409650Y283689D01*
X409685Y283625D01*
X409715Y283560D01*
X409743Y283493D01*
X409766Y283425D01*
X409786Y283355D01*
X409802Y283285D01*
X409815Y283214D01*
X409823Y283142D01*
X409828Y283070D01*
X409829Y282998D01*
X409824Y282788D01*
X409813Y282579D01*
X409798Y282370D01*
X409778Y282162D01*
X409752Y281954D01*
X409722Y281747D01*
X409687Y281540D01*
X409647Y281335D01*
X409603Y281130D01*
X409553Y280927D01*
X409499Y280724D01*
X409439Y280523D01*
X409376Y280324D01*
X409307Y280126D01*
X406174Y288834D02*
X407218Y291445D01*
X406174Y288834D02*
X406146Y288768D01*
X406113Y288703D01*
X406078Y288640D01*
X406039Y288579D01*
X405997Y288520D01*
X405952Y288464D01*
X405904Y288410D01*
X405853Y288359D01*
X405800Y288310D01*
X405743Y288265D01*
X405685Y288222D01*
X405625Y288183D01*
X405562Y288146D01*
X405497Y288114D01*
X405431Y288085D01*
X405364Y288059D01*
X405295Y288037D01*
X405225Y288019D01*
X405154Y288004D01*
X405083Y287993D01*
X405011Y287986D01*
X404939Y287983D01*
X404867Y287984D01*
X404794Y287989D01*
X404723Y287997D01*
X404651Y288009D01*
X404581Y288025D01*
X404512Y288045D01*
X404443Y288069D01*
X404376Y288096D01*
X404311Y288126D01*
X404247Y288160D01*
X404185Y288198D01*
X404125Y288238D01*
X404068Y288282D01*
X404013Y288329D01*
X403960Y288379D01*
X403911Y288431D01*
X403864Y288486D01*
X403820Y288543D01*
X403779Y288603D01*
X403742Y288665D01*
X403707Y288729D01*
X403677Y288794D01*
X403649Y288861D01*
X403626Y288929D01*
X403606Y288999D01*
X403590Y289069D01*
X403577Y289140D01*
X403569Y289212D01*
X403564Y289284D01*
X403563Y289356D01*
X403564Y289356D02*
X403568Y289507D01*
X403576Y289658D01*
X403587Y289809D01*
X403603Y289960D01*
X403623Y290110D01*
X403646Y290260D01*
X403673Y290409D01*
X403704Y290557D01*
X403739Y290705D01*
X403777Y290851D01*
X403820Y290997D01*
X403866Y291141D01*
X403915Y291284D01*
X403968Y291426D01*
X404025Y291566D01*
X404086Y291705D01*
X407218Y291445D02*
X407246Y291511D01*
X407279Y291576D01*
X407314Y291639D01*
X407353Y291700D01*
X407395Y291759D01*
X407440Y291815D01*
X407488Y291869D01*
X407539Y291920D01*
X407592Y291969D01*
X407649Y292015D01*
X407707Y292057D01*
X407767Y292096D01*
X407830Y292133D01*
X407895Y292165D01*
X407961Y292194D01*
X408028Y292220D01*
X408097Y292242D01*
X408167Y292260D01*
X408238Y292275D01*
X408309Y292286D01*
X408381Y292293D01*
X408453Y292296D01*
X408525Y292295D01*
X408598Y292290D01*
X408669Y292282D01*
X408741Y292270D01*
X408811Y292254D01*
X408880Y292234D01*
X408949Y292210D01*
X409016Y292183D01*
X409081Y292153D01*
X409145Y292119D01*
X409207Y292081D01*
X409267Y292041D01*
X409324Y291997D01*
X409379Y291950D01*
X409432Y291900D01*
X409481Y291848D01*
X409528Y291793D01*
X409572Y291736D01*
X409613Y291676D01*
X409650Y291614D01*
X409685Y291550D01*
X409715Y291485D01*
X409743Y291418D01*
X409766Y291350D01*
X409786Y291280D01*
X409802Y291210D01*
X409815Y291139D01*
X409823Y291067D01*
X409828Y290995D01*
X409829Y290923D01*
X409824Y290713D01*
X409813Y290504D01*
X409798Y290295D01*
X409778Y290087D01*
X409752Y289879D01*
X409722Y289672D01*
X409687Y289465D01*
X409647Y289260D01*
X409603Y289055D01*
X409553Y288852D01*
X409499Y288649D01*
X409439Y288448D01*
X409376Y288249D01*
X409307Y288051D01*
X409829Y301376D02*
X400431Y301376D01*
X400431Y303986D01*
X400433Y304087D01*
X400439Y304188D01*
X400449Y304289D01*
X400462Y304389D01*
X400480Y304489D01*
X400501Y304588D01*
X400527Y304686D01*
X400556Y304783D01*
X400588Y304879D01*
X400625Y304973D01*
X400665Y305066D01*
X400709Y305158D01*
X400756Y305247D01*
X400807Y305335D01*
X400861Y305421D01*
X400918Y305504D01*
X400978Y305586D01*
X401042Y305664D01*
X401108Y305741D01*
X401178Y305814D01*
X401250Y305885D01*
X401325Y305953D01*
X401403Y306018D01*
X401483Y306080D01*
X401565Y306139D01*
X401650Y306195D01*
X401737Y306247D01*
X401825Y306296D01*
X401916Y306342D01*
X402008Y306383D01*
X402102Y306422D01*
X402197Y306456D01*
X402293Y306487D01*
X402391Y306514D01*
X402489Y306538D01*
X402589Y306557D01*
X402689Y306573D01*
X402789Y306585D01*
X402890Y306593D01*
X402991Y306597D01*
X403093Y306597D01*
X403194Y306593D01*
X403295Y306585D01*
X403395Y306573D01*
X403495Y306557D01*
X403595Y306538D01*
X403693Y306514D01*
X403791Y306487D01*
X403887Y306456D01*
X403982Y306422D01*
X404076Y306383D01*
X404168Y306342D01*
X404259Y306296D01*
X404348Y306247D01*
X404434Y306195D01*
X404519Y306139D01*
X404601Y306080D01*
X404681Y306018D01*
X404759Y305953D01*
X404834Y305885D01*
X404906Y305814D01*
X404976Y305741D01*
X405042Y305664D01*
X405106Y305586D01*
X405166Y305504D01*
X405223Y305421D01*
X405277Y305335D01*
X405328Y305247D01*
X405375Y305158D01*
X405419Y305066D01*
X405459Y304973D01*
X405496Y304879D01*
X405528Y304783D01*
X405557Y304686D01*
X405583Y304588D01*
X405604Y304489D01*
X405622Y304389D01*
X405635Y304289D01*
X405645Y304188D01*
X405651Y304087D01*
X405653Y303986D01*
X405652Y303986D02*
X405652Y301376D01*
X403564Y310353D02*
X409829Y310353D01*
X403564Y310353D02*
X403564Y313485D01*
X404608Y313485D01*
X409829Y317963D02*
X409829Y320574D01*
X409829Y317963D02*
X409827Y317886D01*
X409821Y317810D01*
X409812Y317733D01*
X409799Y317657D01*
X409782Y317582D01*
X409762Y317508D01*
X409737Y317435D01*
X409710Y317364D01*
X409679Y317293D01*
X409644Y317225D01*
X409606Y317158D01*
X409565Y317093D01*
X409521Y317030D01*
X409474Y316970D01*
X409423Y316911D01*
X409370Y316856D01*
X409315Y316803D01*
X409256Y316752D01*
X409196Y316705D01*
X409133Y316661D01*
X409068Y316620D01*
X409001Y316582D01*
X408933Y316547D01*
X408862Y316516D01*
X408791Y316489D01*
X408718Y316464D01*
X408644Y316444D01*
X408569Y316427D01*
X408493Y316414D01*
X408416Y316405D01*
X408340Y316399D01*
X408263Y316397D01*
X405652Y316397D01*
X405652Y316398D02*
X405562Y316400D01*
X405473Y316406D01*
X405383Y316415D01*
X405294Y316429D01*
X405206Y316446D01*
X405119Y316467D01*
X405032Y316492D01*
X404947Y316521D01*
X404863Y316553D01*
X404781Y316588D01*
X404700Y316628D01*
X404621Y316670D01*
X404544Y316716D01*
X404469Y316766D01*
X404396Y316818D01*
X404325Y316874D01*
X404257Y316932D01*
X404192Y316994D01*
X404129Y317058D01*
X404069Y317125D01*
X404012Y317194D01*
X403958Y317266D01*
X403907Y317340D01*
X403859Y317416D01*
X403815Y317494D01*
X403774Y317574D01*
X403736Y317656D01*
X403702Y317739D01*
X403672Y317824D01*
X403645Y317910D01*
X403622Y317996D01*
X403603Y318084D01*
X403588Y318173D01*
X403576Y318262D01*
X403568Y318351D01*
X403564Y318441D01*
X403564Y318531D01*
X403568Y318621D01*
X403576Y318710D01*
X403588Y318799D01*
X403603Y318888D01*
X403622Y318976D01*
X403645Y319062D01*
X403672Y319148D01*
X403702Y319233D01*
X403736Y319316D01*
X403774Y319398D01*
X403815Y319478D01*
X403859Y319556D01*
X403907Y319632D01*
X403958Y319706D01*
X404012Y319778D01*
X404069Y319847D01*
X404129Y319914D01*
X404192Y319978D01*
X404257Y320040D01*
X404325Y320098D01*
X404396Y320154D01*
X404469Y320206D01*
X404544Y320256D01*
X404621Y320302D01*
X404700Y320344D01*
X404781Y320384D01*
X404863Y320419D01*
X404947Y320451D01*
X405032Y320480D01*
X405119Y320505D01*
X405206Y320526D01*
X405294Y320543D01*
X405383Y320557D01*
X405473Y320566D01*
X405562Y320572D01*
X405652Y320574D01*
X406696Y320574D01*
X406696Y316397D01*
X403564Y324017D02*
X409829Y326105D01*
X403564Y328194D01*
X409829Y333203D02*
X409829Y335814D01*
X409829Y333203D02*
X409827Y333126D01*
X409821Y333050D01*
X409812Y332973D01*
X409799Y332897D01*
X409782Y332822D01*
X409762Y332748D01*
X409737Y332675D01*
X409710Y332604D01*
X409679Y332533D01*
X409644Y332465D01*
X409606Y332398D01*
X409565Y332333D01*
X409521Y332270D01*
X409474Y332210D01*
X409423Y332151D01*
X409370Y332096D01*
X409315Y332043D01*
X409256Y331992D01*
X409196Y331945D01*
X409133Y331901D01*
X409068Y331860D01*
X409001Y331822D01*
X408933Y331787D01*
X408862Y331756D01*
X408791Y331729D01*
X408718Y331704D01*
X408644Y331684D01*
X408569Y331667D01*
X408493Y331654D01*
X408416Y331645D01*
X408340Y331639D01*
X408263Y331637D01*
X405652Y331637D01*
X405562Y331639D01*
X405473Y331645D01*
X405383Y331654D01*
X405294Y331668D01*
X405206Y331685D01*
X405119Y331706D01*
X405032Y331731D01*
X404947Y331760D01*
X404863Y331792D01*
X404781Y331827D01*
X404700Y331867D01*
X404621Y331909D01*
X404544Y331955D01*
X404469Y332005D01*
X404396Y332057D01*
X404325Y332113D01*
X404257Y332171D01*
X404192Y332233D01*
X404129Y332297D01*
X404069Y332364D01*
X404012Y332433D01*
X403958Y332505D01*
X403907Y332579D01*
X403859Y332655D01*
X403815Y332733D01*
X403774Y332813D01*
X403736Y332895D01*
X403702Y332978D01*
X403672Y333063D01*
X403645Y333149D01*
X403622Y333235D01*
X403603Y333323D01*
X403588Y333412D01*
X403576Y333501D01*
X403568Y333590D01*
X403564Y333680D01*
X403564Y333770D01*
X403568Y333860D01*
X403576Y333949D01*
X403588Y334038D01*
X403603Y334127D01*
X403622Y334215D01*
X403645Y334301D01*
X403672Y334387D01*
X403702Y334472D01*
X403736Y334555D01*
X403774Y334637D01*
X403815Y334717D01*
X403859Y334795D01*
X403907Y334871D01*
X403958Y334945D01*
X404012Y335017D01*
X404069Y335086D01*
X404129Y335153D01*
X404192Y335217D01*
X404257Y335279D01*
X404325Y335337D01*
X404396Y335393D01*
X404469Y335445D01*
X404544Y335495D01*
X404621Y335541D01*
X404700Y335583D01*
X404781Y335623D01*
X404863Y335658D01*
X404947Y335690D01*
X405032Y335719D01*
X405119Y335744D01*
X405206Y335765D01*
X405294Y335782D01*
X405383Y335796D01*
X405473Y335805D01*
X405562Y335811D01*
X405652Y335813D01*
X405652Y335814D02*
X406696Y335814D01*
X406696Y331637D01*
X403564Y339867D02*
X409829Y339867D01*
X403564Y339867D02*
X403564Y342477D01*
X403566Y342554D01*
X403572Y342630D01*
X403581Y342707D01*
X403594Y342783D01*
X403611Y342858D01*
X403631Y342932D01*
X403656Y343005D01*
X403683Y343076D01*
X403714Y343147D01*
X403749Y343215D01*
X403787Y343282D01*
X403828Y343347D01*
X403872Y343410D01*
X403919Y343470D01*
X403970Y343529D01*
X404023Y343584D01*
X404078Y343637D01*
X404137Y343688D01*
X404197Y343735D01*
X404260Y343779D01*
X404325Y343820D01*
X404392Y343858D01*
X404460Y343893D01*
X404531Y343924D01*
X404602Y343951D01*
X404675Y343976D01*
X404749Y343996D01*
X404824Y344013D01*
X404900Y344026D01*
X404976Y344035D01*
X405053Y344041D01*
X405130Y344043D01*
X409829Y344043D01*
X403564Y347327D02*
X403564Y350460D01*
X400431Y348372D02*
X408263Y348372D01*
X408340Y348374D01*
X408416Y348380D01*
X408493Y348389D01*
X408569Y348402D01*
X408644Y348419D01*
X408718Y348439D01*
X408791Y348464D01*
X408862Y348491D01*
X408933Y348522D01*
X409001Y348557D01*
X409068Y348595D01*
X409133Y348636D01*
X409196Y348680D01*
X409256Y348727D01*
X409315Y348778D01*
X409370Y348831D01*
X409423Y348886D01*
X409474Y348945D01*
X409521Y349005D01*
X409565Y349068D01*
X409606Y349133D01*
X409644Y349200D01*
X409679Y349268D01*
X409710Y349339D01*
X409737Y349410D01*
X409762Y349483D01*
X409782Y349557D01*
X409799Y349632D01*
X409812Y349708D01*
X409821Y349785D01*
X409827Y349861D01*
X409829Y349938D01*
X409829Y350460D01*
X409829Y353842D02*
X403564Y353842D01*
X400953Y353581D02*
X400431Y353581D01*
X400431Y354103D01*
X400953Y354103D01*
X400953Y353581D01*
X405652Y357545D02*
X407741Y357545D01*
X405652Y357545D02*
X405562Y357547D01*
X405473Y357553D01*
X405383Y357562D01*
X405294Y357576D01*
X405206Y357593D01*
X405119Y357614D01*
X405032Y357639D01*
X404947Y357668D01*
X404863Y357700D01*
X404781Y357735D01*
X404700Y357775D01*
X404621Y357817D01*
X404544Y357863D01*
X404469Y357913D01*
X404396Y357965D01*
X404325Y358021D01*
X404257Y358079D01*
X404192Y358141D01*
X404129Y358205D01*
X404069Y358272D01*
X404012Y358341D01*
X403958Y358413D01*
X403907Y358487D01*
X403859Y358563D01*
X403815Y358641D01*
X403774Y358721D01*
X403736Y358803D01*
X403702Y358886D01*
X403672Y358971D01*
X403645Y359057D01*
X403622Y359143D01*
X403603Y359231D01*
X403588Y359320D01*
X403576Y359409D01*
X403568Y359498D01*
X403564Y359588D01*
X403564Y359678D01*
X403568Y359768D01*
X403576Y359857D01*
X403588Y359946D01*
X403603Y360035D01*
X403622Y360123D01*
X403645Y360209D01*
X403672Y360295D01*
X403702Y360380D01*
X403736Y360463D01*
X403774Y360545D01*
X403815Y360625D01*
X403859Y360703D01*
X403907Y360779D01*
X403958Y360853D01*
X404012Y360925D01*
X404069Y360994D01*
X404129Y361061D01*
X404192Y361125D01*
X404257Y361187D01*
X404325Y361245D01*
X404396Y361301D01*
X404469Y361353D01*
X404544Y361403D01*
X404621Y361449D01*
X404700Y361491D01*
X404781Y361531D01*
X404863Y361566D01*
X404947Y361598D01*
X405032Y361627D01*
X405119Y361652D01*
X405206Y361673D01*
X405294Y361690D01*
X405383Y361704D01*
X405473Y361713D01*
X405562Y361719D01*
X405652Y361721D01*
X405652Y361722D02*
X407741Y361722D01*
X407741Y361721D02*
X407831Y361719D01*
X407920Y361713D01*
X408010Y361704D01*
X408099Y361690D01*
X408187Y361673D01*
X408274Y361652D01*
X408361Y361627D01*
X408446Y361598D01*
X408530Y361566D01*
X408612Y361531D01*
X408693Y361491D01*
X408772Y361449D01*
X408849Y361403D01*
X408924Y361353D01*
X408997Y361301D01*
X409068Y361245D01*
X409136Y361187D01*
X409201Y361125D01*
X409264Y361061D01*
X409324Y360994D01*
X409381Y360925D01*
X409435Y360853D01*
X409486Y360779D01*
X409534Y360703D01*
X409578Y360625D01*
X409619Y360545D01*
X409657Y360463D01*
X409691Y360380D01*
X409721Y360295D01*
X409748Y360209D01*
X409771Y360123D01*
X409790Y360035D01*
X409805Y359946D01*
X409817Y359857D01*
X409825Y359768D01*
X409829Y359678D01*
X409829Y359588D01*
X409825Y359498D01*
X409817Y359409D01*
X409805Y359320D01*
X409790Y359231D01*
X409771Y359143D01*
X409748Y359057D01*
X409721Y358971D01*
X409691Y358886D01*
X409657Y358803D01*
X409619Y358721D01*
X409578Y358641D01*
X409534Y358563D01*
X409486Y358487D01*
X409435Y358413D01*
X409381Y358341D01*
X409324Y358272D01*
X409264Y358205D01*
X409201Y358141D01*
X409136Y358079D01*
X409068Y358021D01*
X408997Y357965D01*
X408924Y357913D01*
X408849Y357863D01*
X408772Y357817D01*
X408693Y357775D01*
X408612Y357735D01*
X408530Y357700D01*
X408446Y357668D01*
X408361Y357639D01*
X408274Y357614D01*
X408187Y357593D01*
X408099Y357576D01*
X408010Y357562D01*
X407920Y357553D01*
X407831Y357547D01*
X407741Y357545D01*
X409829Y365774D02*
X403564Y365774D01*
X403564Y368385D01*
X403566Y368462D01*
X403572Y368538D01*
X403581Y368615D01*
X403594Y368691D01*
X403611Y368766D01*
X403631Y368840D01*
X403656Y368913D01*
X403683Y368984D01*
X403714Y369055D01*
X403749Y369123D01*
X403787Y369190D01*
X403828Y369255D01*
X403872Y369318D01*
X403919Y369378D01*
X403970Y369437D01*
X404023Y369492D01*
X404078Y369545D01*
X404137Y369596D01*
X404197Y369643D01*
X404260Y369687D01*
X404325Y369728D01*
X404392Y369766D01*
X404460Y369801D01*
X404531Y369832D01*
X404602Y369859D01*
X404675Y369884D01*
X404749Y369904D01*
X404824Y369921D01*
X404900Y369934D01*
X404976Y369943D01*
X405053Y369949D01*
X405130Y369951D01*
X409829Y369951D01*
X409829Y379273D02*
X400431Y379273D01*
X400431Y381884D01*
X400433Y381984D01*
X400439Y382084D01*
X400448Y382183D01*
X400462Y382283D01*
X400479Y382381D01*
X400500Y382479D01*
X400524Y382576D01*
X400553Y382672D01*
X400585Y382767D01*
X400620Y382860D01*
X400659Y382952D01*
X400702Y383043D01*
X400748Y383131D01*
X400798Y383218D01*
X400850Y383303D01*
X400906Y383386D01*
X400965Y383467D01*
X401028Y383545D01*
X401093Y383621D01*
X401161Y383695D01*
X401231Y383765D01*
X401305Y383833D01*
X401381Y383898D01*
X401459Y383961D01*
X401540Y384020D01*
X401623Y384076D01*
X401708Y384128D01*
X401795Y384178D01*
X401883Y384224D01*
X401974Y384267D01*
X402066Y384306D01*
X402159Y384341D01*
X402254Y384373D01*
X402350Y384402D01*
X402447Y384426D01*
X402545Y384447D01*
X402643Y384464D01*
X402743Y384478D01*
X402842Y384487D01*
X402942Y384493D01*
X403042Y384495D01*
X403042Y384494D02*
X407218Y384494D01*
X407218Y384495D02*
X407318Y384493D01*
X407418Y384487D01*
X407517Y384478D01*
X407617Y384464D01*
X407715Y384447D01*
X407813Y384426D01*
X407910Y384402D01*
X408006Y384373D01*
X408101Y384341D01*
X408194Y384306D01*
X408286Y384267D01*
X408377Y384224D01*
X408465Y384178D01*
X408552Y384128D01*
X408637Y384076D01*
X408720Y384020D01*
X408801Y383961D01*
X408879Y383898D01*
X408955Y383833D01*
X409029Y383765D01*
X409099Y383695D01*
X409167Y383621D01*
X409232Y383545D01*
X409295Y383467D01*
X409354Y383386D01*
X409410Y383303D01*
X409462Y383218D01*
X409512Y383131D01*
X409558Y383043D01*
X409601Y382952D01*
X409640Y382860D01*
X409675Y382767D01*
X409707Y382672D01*
X409736Y382576D01*
X409760Y382479D01*
X409781Y382381D01*
X409798Y382283D01*
X409812Y382183D01*
X409821Y382084D01*
X409827Y381984D01*
X409829Y381884D01*
X409829Y379273D01*
X409829Y390201D02*
X409829Y392811D01*
X409829Y390201D02*
X409827Y390124D01*
X409821Y390048D01*
X409812Y389971D01*
X409799Y389895D01*
X409782Y389820D01*
X409762Y389746D01*
X409737Y389673D01*
X409710Y389602D01*
X409679Y389531D01*
X409644Y389463D01*
X409606Y389396D01*
X409565Y389331D01*
X409521Y389268D01*
X409474Y389208D01*
X409423Y389149D01*
X409370Y389094D01*
X409315Y389041D01*
X409256Y388990D01*
X409196Y388943D01*
X409133Y388899D01*
X409068Y388858D01*
X409001Y388820D01*
X408933Y388785D01*
X408862Y388754D01*
X408791Y388727D01*
X408718Y388702D01*
X408644Y388682D01*
X408569Y388665D01*
X408493Y388652D01*
X408416Y388643D01*
X408340Y388637D01*
X408263Y388635D01*
X408263Y388634D02*
X405652Y388634D01*
X405652Y388635D02*
X405562Y388637D01*
X405473Y388643D01*
X405383Y388652D01*
X405294Y388666D01*
X405206Y388683D01*
X405119Y388704D01*
X405032Y388729D01*
X404947Y388758D01*
X404863Y388790D01*
X404781Y388825D01*
X404700Y388865D01*
X404621Y388907D01*
X404544Y388953D01*
X404469Y389003D01*
X404396Y389055D01*
X404325Y389111D01*
X404257Y389169D01*
X404192Y389231D01*
X404129Y389295D01*
X404069Y389362D01*
X404012Y389431D01*
X403958Y389503D01*
X403907Y389577D01*
X403859Y389653D01*
X403815Y389731D01*
X403774Y389811D01*
X403736Y389893D01*
X403702Y389976D01*
X403672Y390061D01*
X403645Y390147D01*
X403622Y390233D01*
X403603Y390321D01*
X403588Y390410D01*
X403576Y390499D01*
X403568Y390588D01*
X403564Y390678D01*
X403564Y390768D01*
X403568Y390858D01*
X403576Y390947D01*
X403588Y391036D01*
X403603Y391125D01*
X403622Y391213D01*
X403645Y391299D01*
X403672Y391385D01*
X403702Y391470D01*
X403736Y391553D01*
X403774Y391635D01*
X403815Y391715D01*
X403859Y391793D01*
X403907Y391869D01*
X403958Y391943D01*
X404012Y392015D01*
X404069Y392084D01*
X404129Y392151D01*
X404192Y392215D01*
X404257Y392277D01*
X404325Y392335D01*
X404396Y392391D01*
X404469Y392443D01*
X404544Y392493D01*
X404621Y392539D01*
X404700Y392581D01*
X404781Y392621D01*
X404863Y392656D01*
X404947Y392688D01*
X405032Y392717D01*
X405119Y392742D01*
X405206Y392763D01*
X405294Y392780D01*
X405383Y392794D01*
X405473Y392803D01*
X405562Y392809D01*
X405652Y392811D01*
X406696Y392811D01*
X406696Y388634D01*
X403564Y396254D02*
X409829Y398343D01*
X403564Y400431D01*
X403564Y403829D02*
X409829Y403829D01*
X400953Y403568D02*
X400431Y403568D01*
X400431Y404090D01*
X400953Y404090D01*
X400953Y403568D01*
X409829Y409108D02*
X409829Y411197D01*
X409829Y409108D02*
X409827Y409031D01*
X409821Y408955D01*
X409812Y408878D01*
X409799Y408802D01*
X409782Y408727D01*
X409762Y408653D01*
X409737Y408580D01*
X409710Y408509D01*
X409679Y408438D01*
X409644Y408370D01*
X409606Y408303D01*
X409565Y408238D01*
X409521Y408175D01*
X409474Y408115D01*
X409423Y408056D01*
X409370Y408001D01*
X409315Y407948D01*
X409256Y407897D01*
X409196Y407850D01*
X409133Y407806D01*
X409068Y407765D01*
X409001Y407727D01*
X408933Y407692D01*
X408862Y407661D01*
X408791Y407634D01*
X408718Y407609D01*
X408644Y407589D01*
X408569Y407572D01*
X408493Y407559D01*
X408416Y407550D01*
X408340Y407544D01*
X408263Y407542D01*
X405130Y407542D01*
X405053Y407544D01*
X404977Y407550D01*
X404900Y407559D01*
X404824Y407572D01*
X404749Y407589D01*
X404675Y407609D01*
X404602Y407634D01*
X404531Y407661D01*
X404460Y407692D01*
X404392Y407727D01*
X404325Y407765D01*
X404260Y407806D01*
X404197Y407850D01*
X404137Y407897D01*
X404078Y407948D01*
X404023Y408001D01*
X403970Y408056D01*
X403919Y408115D01*
X403872Y408175D01*
X403828Y408238D01*
X403787Y408303D01*
X403749Y408370D01*
X403714Y408438D01*
X403683Y408509D01*
X403656Y408580D01*
X403631Y408653D01*
X403611Y408727D01*
X403594Y408802D01*
X403581Y408878D01*
X403572Y408955D01*
X403566Y409031D01*
X403564Y409108D01*
X403564Y411197D01*
X409829Y416108D02*
X409829Y418719D01*
X409829Y416108D02*
X409827Y416031D01*
X409821Y415955D01*
X409812Y415878D01*
X409799Y415802D01*
X409782Y415727D01*
X409762Y415653D01*
X409737Y415580D01*
X409710Y415509D01*
X409679Y415438D01*
X409644Y415370D01*
X409606Y415303D01*
X409565Y415238D01*
X409521Y415175D01*
X409474Y415115D01*
X409423Y415056D01*
X409370Y415001D01*
X409315Y414948D01*
X409256Y414897D01*
X409196Y414850D01*
X409133Y414806D01*
X409068Y414765D01*
X409001Y414727D01*
X408933Y414692D01*
X408862Y414661D01*
X408791Y414634D01*
X408718Y414609D01*
X408644Y414589D01*
X408569Y414572D01*
X408493Y414559D01*
X408416Y414550D01*
X408340Y414544D01*
X408263Y414542D01*
X405652Y414542D01*
X405652Y414543D02*
X405562Y414545D01*
X405473Y414551D01*
X405383Y414560D01*
X405294Y414574D01*
X405206Y414591D01*
X405119Y414612D01*
X405032Y414637D01*
X404947Y414666D01*
X404863Y414698D01*
X404781Y414733D01*
X404700Y414773D01*
X404621Y414815D01*
X404544Y414861D01*
X404469Y414911D01*
X404396Y414963D01*
X404325Y415019D01*
X404257Y415077D01*
X404192Y415139D01*
X404129Y415203D01*
X404069Y415270D01*
X404012Y415339D01*
X403958Y415411D01*
X403907Y415485D01*
X403859Y415561D01*
X403815Y415639D01*
X403774Y415719D01*
X403736Y415801D01*
X403702Y415884D01*
X403672Y415969D01*
X403645Y416055D01*
X403622Y416141D01*
X403603Y416229D01*
X403588Y416318D01*
X403576Y416407D01*
X403568Y416496D01*
X403564Y416586D01*
X403564Y416676D01*
X403568Y416766D01*
X403576Y416855D01*
X403588Y416944D01*
X403603Y417033D01*
X403622Y417121D01*
X403645Y417207D01*
X403672Y417293D01*
X403702Y417378D01*
X403736Y417461D01*
X403774Y417543D01*
X403815Y417623D01*
X403859Y417701D01*
X403907Y417777D01*
X403958Y417851D01*
X404012Y417923D01*
X404069Y417992D01*
X404129Y418059D01*
X404192Y418123D01*
X404257Y418185D01*
X404325Y418243D01*
X404396Y418299D01*
X404469Y418351D01*
X404544Y418401D01*
X404621Y418447D01*
X404700Y418489D01*
X404781Y418529D01*
X404863Y418564D01*
X404947Y418596D01*
X405032Y418625D01*
X405119Y418650D01*
X405206Y418671D01*
X405294Y418688D01*
X405383Y418702D01*
X405473Y418711D01*
X405562Y418717D01*
X405652Y418719D01*
X406696Y418719D01*
X406696Y414542D01*
D25*
X459796Y379194D02*
X458498Y375948D01*
X458499Y375948D02*
X458466Y375873D01*
X458430Y375799D01*
X458391Y375727D01*
X458348Y375657D01*
X458302Y375590D01*
X458252Y375524D01*
X458200Y375462D01*
X458144Y375401D01*
X458086Y375344D01*
X458025Y375289D01*
X457961Y375238D01*
X457895Y375190D01*
X457826Y375145D01*
X457756Y375103D01*
X457683Y375065D01*
X457609Y375030D01*
X457533Y374999D01*
X457456Y374972D01*
X457377Y374949D01*
X457298Y374929D01*
X457217Y374914D01*
X457136Y374902D01*
X457054Y374894D01*
X456973Y374890D01*
X456891Y374891D01*
X456809Y374895D01*
X456727Y374903D01*
X456646Y374915D01*
X456566Y374931D01*
X456486Y374951D01*
X456408Y374975D01*
X456331Y375003D01*
X456255Y375034D01*
X456181Y375069D01*
X456109Y375107D01*
X456038Y375149D01*
X455970Y375195D01*
X455904Y375243D01*
X455841Y375295D01*
X455780Y375350D01*
X455722Y375408D01*
X455666Y375468D01*
X455614Y375531D01*
X455565Y375597D01*
X455519Y375665D01*
X455477Y375735D01*
X455437Y375807D01*
X455402Y375881D01*
X455370Y375956D01*
X455342Y376033D01*
X455318Y376111D01*
X455297Y376191D01*
X455280Y376271D01*
X455268Y376352D01*
X455259Y376433D01*
X455254Y376515D01*
X455253Y376597D01*
X455257Y376774D01*
X455266Y376951D01*
X455280Y377128D01*
X455297Y377305D01*
X455319Y377480D01*
X455344Y377656D01*
X455375Y377830D01*
X455409Y378004D01*
X455447Y378177D01*
X455490Y378349D01*
X455537Y378520D01*
X455587Y378690D01*
X455642Y378859D01*
X455701Y379026D01*
X455764Y379192D01*
X455831Y379356D01*
X455902Y379518D01*
X459796Y379194D02*
X459829Y379269D01*
X459865Y379343D01*
X459904Y379415D01*
X459947Y379485D01*
X459993Y379552D01*
X460043Y379618D01*
X460095Y379680D01*
X460151Y379741D01*
X460209Y379798D01*
X460270Y379853D01*
X460334Y379904D01*
X460400Y379952D01*
X460469Y379997D01*
X460539Y380039D01*
X460612Y380077D01*
X460686Y380112D01*
X460762Y380143D01*
X460839Y380170D01*
X460918Y380193D01*
X460998Y380213D01*
X461078Y380228D01*
X461159Y380240D01*
X461241Y380248D01*
X461322Y380252D01*
X461404Y380251D01*
X461486Y380247D01*
X461568Y380239D01*
X461649Y380227D01*
X461729Y380211D01*
X461809Y380191D01*
X461887Y380167D01*
X461964Y380139D01*
X462040Y380108D01*
X462114Y380073D01*
X462186Y380035D01*
X462257Y379993D01*
X462325Y379947D01*
X462391Y379899D01*
X462454Y379847D01*
X462515Y379792D01*
X462573Y379734D01*
X462629Y379674D01*
X462681Y379611D01*
X462730Y379545D01*
X462776Y379477D01*
X462818Y379407D01*
X462858Y379335D01*
X462893Y379261D01*
X462925Y379186D01*
X462953Y379109D01*
X462977Y379031D01*
X462998Y378951D01*
X463015Y378871D01*
X463027Y378790D01*
X463036Y378709D01*
X463041Y378627D01*
X463042Y378545D01*
X463035Y378285D01*
X463022Y378025D01*
X463003Y377765D01*
X462978Y377506D01*
X462946Y377247D01*
X462909Y376990D01*
X462865Y376733D01*
X462816Y376477D01*
X462760Y376223D01*
X462699Y375970D01*
X462631Y375719D01*
X462557Y375469D01*
X462478Y375221D01*
X462393Y374975D01*
D26*
X455676Y383794D02*
X448564Y383794D01*
X455676Y383794D02*
X455676Y385770D01*
X455674Y385836D01*
X455669Y385903D01*
X455659Y385968D01*
X455646Y386034D01*
X455630Y386098D01*
X455610Y386161D01*
X455586Y386223D01*
X455559Y386284D01*
X455528Y386343D01*
X455494Y386400D01*
X455457Y386456D01*
X455417Y386509D01*
X455375Y386560D01*
X455329Y386608D01*
X455281Y386654D01*
X455230Y386696D01*
X455177Y386736D01*
X455121Y386773D01*
X455064Y386807D01*
X455005Y386838D01*
X454944Y386865D01*
X454882Y386889D01*
X454819Y386909D01*
X454755Y386925D01*
X454689Y386938D01*
X454624Y386948D01*
X454557Y386953D01*
X454491Y386955D01*
X452120Y386955D01*
X452054Y386953D01*
X451987Y386948D01*
X451922Y386938D01*
X451856Y386925D01*
X451792Y386909D01*
X451729Y386889D01*
X451667Y386865D01*
X451606Y386838D01*
X451547Y386807D01*
X451490Y386773D01*
X451434Y386736D01*
X451381Y386696D01*
X451330Y386654D01*
X451282Y386608D01*
X451236Y386560D01*
X451194Y386509D01*
X451154Y386456D01*
X451117Y386400D01*
X451083Y386343D01*
X451052Y386284D01*
X451025Y386223D01*
X451001Y386161D01*
X450981Y386098D01*
X450965Y386034D01*
X450952Y385968D01*
X450942Y385903D01*
X450937Y385836D01*
X450935Y385770D01*
X450935Y383794D01*
X450935Y389601D02*
X455676Y390786D01*
X452515Y391971D01*
X455676Y393157D01*
X450935Y394342D01*
D27*
X31750Y342900D02*
X31750Y546100D01*
X31750Y342900D02*
X31757Y342286D01*
X31780Y341673D01*
X31817Y341060D01*
X31869Y340449D01*
X31935Y339838D01*
X32017Y339230D01*
X32113Y338624D01*
X32223Y338020D01*
X32348Y337419D01*
X32488Y336821D01*
X32642Y336227D01*
X32811Y335637D01*
X32993Y335051D01*
X33190Y334470D01*
X33401Y333893D01*
X33625Y333322D01*
X33863Y332756D01*
X34115Y332196D01*
X34381Y331643D01*
X34659Y331096D01*
X34951Y330556D01*
X35256Y330023D01*
X35574Y329498D01*
X35904Y328980D01*
X36246Y328471D01*
X36601Y327970D01*
X36968Y327478D01*
X37346Y326995D01*
X37736Y326521D01*
X38138Y326057D01*
X38550Y325602D01*
X38974Y325158D01*
X39408Y324724D01*
X39852Y324300D01*
X40307Y323888D01*
X40771Y323486D01*
X41245Y323096D01*
X41728Y322718D01*
X42220Y322351D01*
X42721Y321996D01*
X43230Y321654D01*
X43748Y321324D01*
X44273Y321006D01*
X44806Y320701D01*
X45346Y320409D01*
X45893Y320131D01*
X46446Y319865D01*
X47006Y319613D01*
X47572Y319375D01*
X48143Y319151D01*
X48720Y318940D01*
X49301Y318743D01*
X49887Y318561D01*
X50477Y318392D01*
X51071Y318238D01*
X51669Y318098D01*
X52270Y317973D01*
X52874Y317863D01*
X53480Y317767D01*
X54088Y317685D01*
X54699Y317619D01*
X55310Y317567D01*
X55923Y317530D01*
X56536Y317507D01*
X57150Y317500D01*
X260350Y317500D01*
X260964Y317507D01*
X261577Y317530D01*
X262190Y317567D01*
X262801Y317619D01*
X263412Y317685D01*
X264020Y317767D01*
X264626Y317863D01*
X265230Y317973D01*
X265831Y318098D01*
X266429Y318238D01*
X267023Y318392D01*
X267613Y318561D01*
X268199Y318743D01*
X268780Y318940D01*
X269357Y319151D01*
X269928Y319375D01*
X270494Y319613D01*
X271054Y319865D01*
X271607Y320131D01*
X272154Y320409D01*
X272694Y320701D01*
X273227Y321006D01*
X273752Y321324D01*
X274270Y321654D01*
X274779Y321996D01*
X275280Y322351D01*
X275772Y322718D01*
X276255Y323096D01*
X276729Y323486D01*
X277193Y323888D01*
X277648Y324300D01*
X278092Y324724D01*
X278526Y325158D01*
X278950Y325602D01*
X279362Y326057D01*
X279764Y326521D01*
X280154Y326995D01*
X280532Y327478D01*
X280899Y327970D01*
X281254Y328471D01*
X281596Y328980D01*
X281926Y329498D01*
X282244Y330023D01*
X282549Y330556D01*
X282841Y331096D01*
X283119Y331643D01*
X283385Y332196D01*
X283637Y332756D01*
X283875Y333322D01*
X284099Y333893D01*
X284310Y334470D01*
X284507Y335051D01*
X284689Y335637D01*
X284858Y336227D01*
X285012Y336821D01*
X285152Y337419D01*
X285277Y338020D01*
X285387Y338624D01*
X285483Y339230D01*
X285565Y339838D01*
X285631Y340449D01*
X285683Y341060D01*
X285720Y341673D01*
X285743Y342286D01*
X285750Y342900D01*
X285750Y546100D01*
X285743Y546714D01*
X285720Y547327D01*
X285683Y547940D01*
X285631Y548551D01*
X285565Y549162D01*
X285483Y549770D01*
X285387Y550376D01*
X285277Y550980D01*
X285152Y551581D01*
X285012Y552179D01*
X284858Y552773D01*
X284689Y553363D01*
X284507Y553949D01*
X284310Y554530D01*
X284099Y555107D01*
X283875Y555678D01*
X283637Y556244D01*
X283385Y556804D01*
X283119Y557357D01*
X282841Y557904D01*
X282549Y558444D01*
X282244Y558977D01*
X281926Y559502D01*
X281596Y560020D01*
X281254Y560529D01*
X280899Y561030D01*
X280532Y561522D01*
X280154Y562005D01*
X279764Y562479D01*
X279362Y562943D01*
X278950Y563398D01*
X278526Y563842D01*
X278092Y564276D01*
X277648Y564700D01*
X277193Y565112D01*
X276729Y565514D01*
X276255Y565904D01*
X275772Y566282D01*
X275280Y566649D01*
X274779Y567004D01*
X274270Y567346D01*
X273752Y567676D01*
X273227Y567994D01*
X272694Y568299D01*
X272154Y568591D01*
X271607Y568869D01*
X271054Y569135D01*
X270494Y569387D01*
X269928Y569625D01*
X269357Y569849D01*
X268780Y570060D01*
X268199Y570257D01*
X267613Y570439D01*
X267023Y570608D01*
X266429Y570762D01*
X265831Y570902D01*
X265230Y571027D01*
X264626Y571137D01*
X264020Y571233D01*
X263412Y571315D01*
X262801Y571381D01*
X262190Y571433D01*
X261577Y571470D01*
X260964Y571493D01*
X260350Y571500D01*
X184150Y571500D01*
X133350Y571500D01*
X57150Y571500D01*
X56536Y571493D01*
X55923Y571470D01*
X55310Y571433D01*
X54699Y571381D01*
X54088Y571315D01*
X53480Y571233D01*
X52874Y571137D01*
X52270Y571027D01*
X51669Y570902D01*
X51071Y570762D01*
X50477Y570608D01*
X49887Y570439D01*
X49301Y570257D01*
X48720Y570060D01*
X48143Y569849D01*
X47572Y569625D01*
X47006Y569387D01*
X46446Y569135D01*
X45893Y568869D01*
X45346Y568591D01*
X44806Y568299D01*
X44273Y567994D01*
X43748Y567676D01*
X43230Y567346D01*
X42721Y567004D01*
X42220Y566649D01*
X41728Y566282D01*
X41245Y565904D01*
X40771Y565514D01*
X40307Y565112D01*
X39852Y564700D01*
X39408Y564276D01*
X38974Y563842D01*
X38550Y563398D01*
X38138Y562943D01*
X37736Y562479D01*
X37346Y562005D01*
X36968Y561522D01*
X36601Y561030D01*
X36246Y560529D01*
X35904Y560020D01*
X35574Y559502D01*
X35256Y558977D01*
X34951Y558444D01*
X34659Y557904D01*
X34381Y557357D01*
X34115Y556804D01*
X33863Y556244D01*
X33625Y555678D01*
X33401Y555107D01*
X33190Y554530D01*
X32993Y553949D01*
X32811Y553363D01*
X32642Y552773D01*
X32488Y552179D01*
X32348Y551581D01*
X32223Y550980D01*
X32113Y550376D01*
X32017Y549770D01*
X31935Y549162D01*
X31869Y548551D01*
X31817Y547940D01*
X31780Y547327D01*
X31757Y546714D01*
X31750Y546100D01*
X133350Y571500D02*
X133350Y520700D01*
X184150Y520700D01*
X184150Y571500D01*
D28*
X105043Y454293D02*
X102334Y454293D01*
X105043Y454293D02*
X105043Y445262D01*
X99624Y445262D01*
X99506Y445264D01*
X99388Y445270D01*
X99270Y445279D01*
X99153Y445293D01*
X99036Y445310D01*
X98919Y445331D01*
X98804Y445356D01*
X98689Y445385D01*
X98575Y445418D01*
X98463Y445454D01*
X98352Y445494D01*
X98242Y445537D01*
X98133Y445584D01*
X98026Y445634D01*
X97921Y445689D01*
X97818Y445746D01*
X97717Y445807D01*
X97617Y445871D01*
X97520Y445938D01*
X97425Y446008D01*
X97333Y446082D01*
X97242Y446158D01*
X97155Y446238D01*
X97070Y446320D01*
X96988Y446405D01*
X96908Y446492D01*
X96832Y446583D01*
X96758Y446675D01*
X96688Y446770D01*
X96621Y446867D01*
X96557Y446967D01*
X96496Y447068D01*
X96439Y447171D01*
X96384Y447276D01*
X96334Y447383D01*
X96287Y447492D01*
X96244Y447602D01*
X96204Y447713D01*
X96168Y447825D01*
X96135Y447939D01*
X96106Y448054D01*
X96081Y448169D01*
X96060Y448286D01*
X96043Y448403D01*
X96029Y448520D01*
X96020Y448638D01*
X96014Y448756D01*
X96012Y448874D01*
X96012Y457906D01*
X96014Y458024D01*
X96020Y458142D01*
X96029Y458260D01*
X96043Y458377D01*
X96060Y458494D01*
X96081Y458611D01*
X96106Y458726D01*
X96135Y458841D01*
X96168Y458955D01*
X96204Y459067D01*
X96244Y459178D01*
X96287Y459288D01*
X96334Y459397D01*
X96384Y459504D01*
X96438Y459609D01*
X96496Y459712D01*
X96557Y459813D01*
X96621Y459913D01*
X96688Y460010D01*
X96758Y460105D01*
X96832Y460197D01*
X96908Y460288D01*
X96988Y460375D01*
X97070Y460460D01*
X97155Y460542D01*
X97242Y460622D01*
X97333Y460698D01*
X97425Y460772D01*
X97520Y460842D01*
X97617Y460909D01*
X97717Y460973D01*
X97818Y461034D01*
X97921Y461091D01*
X98026Y461145D01*
X98133Y461196D01*
X98242Y461243D01*
X98352Y461286D01*
X98463Y461326D01*
X98575Y461362D01*
X98689Y461395D01*
X98804Y461424D01*
X98919Y461449D01*
X99036Y461470D01*
X99153Y461487D01*
X99270Y461501D01*
X99388Y461510D01*
X99506Y461516D01*
X99624Y461518D01*
X105043Y461518D01*
X112896Y461518D02*
X112896Y445262D01*
X112896Y461518D02*
X117412Y461518D01*
X117545Y461516D01*
X117677Y461510D01*
X117809Y461500D01*
X117941Y461487D01*
X118073Y461469D01*
X118203Y461448D01*
X118334Y461423D01*
X118463Y461394D01*
X118591Y461361D01*
X118719Y461325D01*
X118845Y461285D01*
X118970Y461241D01*
X119094Y461193D01*
X119216Y461142D01*
X119337Y461087D01*
X119456Y461029D01*
X119574Y460967D01*
X119689Y460902D01*
X119803Y460833D01*
X119914Y460762D01*
X120023Y460686D01*
X120130Y460608D01*
X120235Y460527D01*
X120337Y460442D01*
X120437Y460355D01*
X120534Y460265D01*
X120629Y460172D01*
X120720Y460076D01*
X120809Y459978D01*
X120895Y459877D01*
X120978Y459773D01*
X121058Y459667D01*
X121134Y459559D01*
X121208Y459449D01*
X121278Y459336D01*
X121345Y459222D01*
X121408Y459105D01*
X121468Y458987D01*
X121525Y458867D01*
X121578Y458745D01*
X121627Y458622D01*
X121673Y458498D01*
X121715Y458372D01*
X121753Y458245D01*
X121788Y458117D01*
X121819Y457988D01*
X121846Y457859D01*
X121869Y457728D01*
X121889Y457597D01*
X121904Y457465D01*
X121916Y457333D01*
X121924Y457201D01*
X121928Y457068D01*
X121928Y456936D01*
X121924Y456803D01*
X121916Y456671D01*
X121904Y456539D01*
X121889Y456407D01*
X121869Y456276D01*
X121846Y456145D01*
X121819Y456016D01*
X121788Y455887D01*
X121753Y455759D01*
X121715Y455632D01*
X121673Y455506D01*
X121627Y455382D01*
X121578Y455259D01*
X121525Y455137D01*
X121468Y455017D01*
X121408Y454899D01*
X121345Y454782D01*
X121278Y454668D01*
X121208Y454555D01*
X121134Y454445D01*
X121058Y454337D01*
X120978Y454231D01*
X120895Y454127D01*
X120809Y454026D01*
X120720Y453928D01*
X120629Y453832D01*
X120534Y453739D01*
X120437Y453649D01*
X120337Y453562D01*
X120235Y453477D01*
X120130Y453396D01*
X120023Y453318D01*
X119914Y453242D01*
X119803Y453171D01*
X119689Y453102D01*
X119574Y453037D01*
X119456Y452975D01*
X119337Y452917D01*
X119216Y452862D01*
X119094Y452811D01*
X118970Y452763D01*
X118845Y452719D01*
X118719Y452679D01*
X118591Y452643D01*
X118463Y452610D01*
X118334Y452581D01*
X118203Y452556D01*
X118073Y452535D01*
X117941Y452517D01*
X117809Y452504D01*
X117677Y452494D01*
X117545Y452488D01*
X117412Y452486D01*
X117412Y452487D02*
X112896Y452487D01*
X132693Y445262D02*
X132811Y445264D01*
X132929Y445270D01*
X133047Y445279D01*
X133164Y445293D01*
X133281Y445310D01*
X133398Y445331D01*
X133513Y445356D01*
X133628Y445385D01*
X133742Y445418D01*
X133854Y445454D01*
X133965Y445494D01*
X134075Y445537D01*
X134184Y445584D01*
X134291Y445634D01*
X134396Y445689D01*
X134499Y445746D01*
X134600Y445807D01*
X134700Y445871D01*
X134797Y445938D01*
X134892Y446008D01*
X134984Y446082D01*
X135075Y446158D01*
X135162Y446238D01*
X135247Y446320D01*
X135329Y446405D01*
X135409Y446492D01*
X135485Y446583D01*
X135559Y446675D01*
X135629Y446770D01*
X135696Y446867D01*
X135760Y446967D01*
X135821Y447068D01*
X135878Y447171D01*
X135933Y447276D01*
X135983Y447383D01*
X136030Y447492D01*
X136073Y447602D01*
X136113Y447713D01*
X136149Y447825D01*
X136182Y447939D01*
X136211Y448054D01*
X136236Y448169D01*
X136257Y448286D01*
X136274Y448403D01*
X136288Y448520D01*
X136297Y448638D01*
X136303Y448756D01*
X136305Y448874D01*
X132693Y445262D02*
X132510Y445264D01*
X132328Y445271D01*
X132146Y445282D01*
X131964Y445297D01*
X131782Y445317D01*
X131601Y445340D01*
X131421Y445369D01*
X131241Y445401D01*
X131062Y445438D01*
X130885Y445479D01*
X130708Y445525D01*
X130532Y445574D01*
X130358Y445628D01*
X130184Y445686D01*
X130013Y445748D01*
X129843Y445814D01*
X129674Y445885D01*
X129507Y445959D01*
X129342Y446037D01*
X129179Y446119D01*
X129018Y446205D01*
X128859Y446295D01*
X128702Y446389D01*
X128548Y446486D01*
X128396Y446587D01*
X128246Y446692D01*
X128099Y446800D01*
X127955Y446911D01*
X127813Y447026D01*
X127674Y447145D01*
X127538Y447267D01*
X127405Y447392D01*
X127275Y447520D01*
X127726Y457906D02*
X127728Y458024D01*
X127734Y458142D01*
X127743Y458260D01*
X127757Y458377D01*
X127774Y458494D01*
X127795Y458611D01*
X127820Y458726D01*
X127849Y458841D01*
X127882Y458955D01*
X127918Y459067D01*
X127958Y459178D01*
X128001Y459288D01*
X128048Y459397D01*
X128098Y459504D01*
X128153Y459609D01*
X128210Y459712D01*
X128271Y459813D01*
X128335Y459913D01*
X128402Y460010D01*
X128472Y460105D01*
X128546Y460197D01*
X128622Y460288D01*
X128702Y460375D01*
X128784Y460460D01*
X128869Y460542D01*
X128956Y460622D01*
X129047Y460698D01*
X129139Y460772D01*
X129234Y460842D01*
X129331Y460909D01*
X129431Y460973D01*
X129532Y461034D01*
X129635Y461092D01*
X129740Y461146D01*
X129847Y461196D01*
X129956Y461243D01*
X130066Y461287D01*
X130177Y461326D01*
X130290Y461362D01*
X130403Y461395D01*
X130518Y461424D01*
X130633Y461449D01*
X130750Y461470D01*
X130867Y461487D01*
X130984Y461501D01*
X131102Y461510D01*
X131220Y461516D01*
X131338Y461518D01*
X131499Y461516D01*
X131661Y461510D01*
X131822Y461501D01*
X131983Y461487D01*
X132143Y461470D01*
X132303Y461449D01*
X132463Y461424D01*
X132622Y461395D01*
X132780Y461363D01*
X132937Y461327D01*
X133093Y461287D01*
X133249Y461243D01*
X133403Y461195D01*
X133556Y461144D01*
X133708Y461090D01*
X133859Y461031D01*
X134008Y460970D01*
X134155Y460904D01*
X134301Y460835D01*
X134446Y460763D01*
X134588Y460687D01*
X134729Y460608D01*
X134868Y460526D01*
X135004Y460440D01*
X135139Y460351D01*
X135272Y460259D01*
X135402Y460163D01*
X129532Y454745D02*
X129431Y454807D01*
X129331Y454872D01*
X129234Y454941D01*
X129139Y455013D01*
X129046Y455087D01*
X128956Y455165D01*
X128868Y455246D01*
X128783Y455329D01*
X128701Y455415D01*
X128622Y455504D01*
X128545Y455595D01*
X128472Y455689D01*
X128401Y455785D01*
X128334Y455883D01*
X128270Y455983D01*
X128209Y456086D01*
X128152Y456190D01*
X128098Y456296D01*
X128048Y456404D01*
X128001Y456513D01*
X127957Y456624D01*
X127917Y456736D01*
X127881Y456850D01*
X127849Y456964D01*
X127820Y457080D01*
X127795Y457196D01*
X127774Y457313D01*
X127757Y457431D01*
X127743Y457549D01*
X127734Y457668D01*
X127728Y457787D01*
X127726Y457906D01*
X134500Y452035D02*
X134601Y451973D01*
X134701Y451908D01*
X134798Y451839D01*
X134893Y451767D01*
X134986Y451693D01*
X135076Y451615D01*
X135164Y451534D01*
X135249Y451451D01*
X135331Y451365D01*
X135410Y451276D01*
X135487Y451185D01*
X135560Y451091D01*
X135631Y450995D01*
X135698Y450897D01*
X135762Y450797D01*
X135823Y450694D01*
X135880Y450590D01*
X135934Y450484D01*
X135984Y450376D01*
X136031Y450267D01*
X136075Y450156D01*
X136115Y450044D01*
X136151Y449930D01*
X136183Y449816D01*
X136212Y449700D01*
X136237Y449584D01*
X136258Y449467D01*
X136275Y449349D01*
X136289Y449231D01*
X136298Y449112D01*
X136304Y448993D01*
X136306Y448874D01*
X134499Y452035D02*
X129532Y454745D01*
X151381Y456099D02*
X151381Y445262D01*
X151381Y456099D02*
X159509Y456099D01*
X159610Y456097D01*
X159711Y456091D01*
X159812Y456082D01*
X159913Y456069D01*
X160013Y456052D01*
X160112Y456031D01*
X160210Y456007D01*
X160307Y455979D01*
X160404Y455947D01*
X160499Y455912D01*
X160592Y455873D01*
X160684Y455831D01*
X160775Y455785D01*
X160864Y455736D01*
X160950Y455684D01*
X161035Y455628D01*
X161118Y455570D01*
X161198Y455508D01*
X161276Y455443D01*
X161352Y455376D01*
X161425Y455306D01*
X161495Y455233D01*
X161562Y455157D01*
X161627Y455079D01*
X161689Y454999D01*
X161747Y454916D01*
X161803Y454831D01*
X161855Y454745D01*
X161904Y454656D01*
X161950Y454565D01*
X161992Y454473D01*
X162031Y454380D01*
X162066Y454285D01*
X162098Y454188D01*
X162126Y454091D01*
X162150Y453993D01*
X162171Y453894D01*
X162188Y453794D01*
X162201Y453693D01*
X162210Y453592D01*
X162216Y453491D01*
X162218Y453390D01*
X162219Y453390D02*
X162219Y445262D01*
X156800Y445262D02*
X156800Y456099D01*
X169340Y452487D02*
X169340Y448874D01*
X169340Y452487D02*
X169342Y452606D01*
X169348Y452726D01*
X169358Y452845D01*
X169372Y452963D01*
X169389Y453082D01*
X169411Y453199D01*
X169436Y453316D01*
X169466Y453431D01*
X169499Y453546D01*
X169536Y453660D01*
X169576Y453772D01*
X169621Y453883D01*
X169669Y453992D01*
X169720Y454100D01*
X169775Y454206D01*
X169834Y454310D01*
X169896Y454412D01*
X169961Y454512D01*
X170030Y454610D01*
X170102Y454706D01*
X170177Y454799D01*
X170254Y454889D01*
X170335Y454977D01*
X170419Y455062D01*
X170506Y455144D01*
X170595Y455224D01*
X170687Y455300D01*
X170781Y455374D01*
X170878Y455444D01*
X170976Y455511D01*
X171077Y455575D01*
X171181Y455635D01*
X171286Y455692D01*
X171393Y455745D01*
X171501Y455795D01*
X171611Y455841D01*
X171723Y455883D01*
X171836Y455922D01*
X171950Y455957D01*
X172065Y455988D01*
X172182Y456016D01*
X172299Y456039D01*
X172416Y456059D01*
X172535Y456075D01*
X172654Y456087D01*
X172773Y456095D01*
X172892Y456099D01*
X173012Y456099D01*
X173131Y456095D01*
X173250Y456087D01*
X173369Y456075D01*
X173488Y456059D01*
X173605Y456039D01*
X173722Y456016D01*
X173839Y455988D01*
X173954Y455957D01*
X174068Y455922D01*
X174181Y455883D01*
X174293Y455841D01*
X174403Y455795D01*
X174511Y455745D01*
X174618Y455692D01*
X174723Y455635D01*
X174827Y455575D01*
X174928Y455511D01*
X175026Y455444D01*
X175123Y455374D01*
X175217Y455300D01*
X175309Y455224D01*
X175398Y455144D01*
X175485Y455062D01*
X175569Y454977D01*
X175650Y454889D01*
X175727Y454799D01*
X175802Y454706D01*
X175874Y454610D01*
X175943Y454512D01*
X176008Y454412D01*
X176070Y454310D01*
X176129Y454206D01*
X176184Y454100D01*
X176235Y453992D01*
X176283Y453883D01*
X176328Y453772D01*
X176368Y453660D01*
X176405Y453546D01*
X176438Y453431D01*
X176468Y453316D01*
X176493Y453199D01*
X176515Y453082D01*
X176532Y452963D01*
X176546Y452845D01*
X176556Y452726D01*
X176562Y452606D01*
X176564Y452487D01*
X176565Y452487D02*
X176565Y448874D01*
X176564Y448874D02*
X176562Y448755D01*
X176556Y448635D01*
X176546Y448516D01*
X176532Y448398D01*
X176515Y448279D01*
X176493Y448162D01*
X176468Y448045D01*
X176438Y447930D01*
X176405Y447815D01*
X176368Y447701D01*
X176328Y447589D01*
X176283Y447478D01*
X176235Y447369D01*
X176184Y447261D01*
X176129Y447155D01*
X176070Y447051D01*
X176008Y446949D01*
X175943Y446849D01*
X175874Y446751D01*
X175802Y446655D01*
X175727Y446562D01*
X175650Y446472D01*
X175569Y446384D01*
X175485Y446299D01*
X175398Y446217D01*
X175309Y446137D01*
X175217Y446061D01*
X175123Y445987D01*
X175026Y445917D01*
X174928Y445850D01*
X174827Y445786D01*
X174723Y445726D01*
X174618Y445669D01*
X174511Y445616D01*
X174403Y445566D01*
X174293Y445520D01*
X174181Y445478D01*
X174068Y445439D01*
X173954Y445404D01*
X173839Y445373D01*
X173722Y445345D01*
X173605Y445322D01*
X173488Y445302D01*
X173369Y445286D01*
X173250Y445274D01*
X173131Y445266D01*
X173012Y445262D01*
X172892Y445262D01*
X172773Y445266D01*
X172654Y445274D01*
X172535Y445286D01*
X172416Y445302D01*
X172299Y445322D01*
X172182Y445345D01*
X172065Y445373D01*
X171950Y445404D01*
X171836Y445439D01*
X171723Y445478D01*
X171611Y445520D01*
X171501Y445566D01*
X171393Y445616D01*
X171286Y445669D01*
X171181Y445726D01*
X171077Y445786D01*
X170976Y445850D01*
X170878Y445917D01*
X170781Y445987D01*
X170687Y446061D01*
X170595Y446137D01*
X170506Y446217D01*
X170419Y446299D01*
X170335Y446384D01*
X170254Y446472D01*
X170177Y446562D01*
X170102Y446655D01*
X170030Y446751D01*
X169961Y446849D01*
X169896Y446949D01*
X169834Y447051D01*
X169775Y447155D01*
X169720Y447261D01*
X169669Y447369D01*
X169621Y447478D01*
X169576Y447589D01*
X169536Y447701D01*
X169499Y447815D01*
X169466Y447930D01*
X169436Y448045D01*
X169411Y448162D01*
X169389Y448279D01*
X169372Y448398D01*
X169358Y448516D01*
X169348Y448635D01*
X169342Y448755D01*
X169340Y448874D01*
X190039Y445262D02*
X190039Y461518D01*
X190039Y445262D02*
X185523Y445262D01*
X185422Y445264D01*
X185321Y445270D01*
X185220Y445279D01*
X185119Y445292D01*
X185019Y445309D01*
X184920Y445330D01*
X184822Y445354D01*
X184725Y445382D01*
X184628Y445414D01*
X184533Y445449D01*
X184440Y445488D01*
X184348Y445530D01*
X184257Y445576D01*
X184169Y445625D01*
X184082Y445677D01*
X183997Y445733D01*
X183914Y445791D01*
X183834Y445853D01*
X183756Y445918D01*
X183680Y445985D01*
X183607Y446055D01*
X183537Y446128D01*
X183470Y446204D01*
X183405Y446282D01*
X183343Y446362D01*
X183285Y446445D01*
X183229Y446530D01*
X183177Y446617D01*
X183128Y446705D01*
X183082Y446796D01*
X183040Y446888D01*
X183001Y446981D01*
X182966Y447076D01*
X182934Y447173D01*
X182906Y447270D01*
X182882Y447368D01*
X182861Y447467D01*
X182844Y447567D01*
X182831Y447668D01*
X182822Y447769D01*
X182816Y447870D01*
X182814Y447971D01*
X182814Y453390D01*
X182816Y453491D01*
X182822Y453592D01*
X182831Y453693D01*
X182844Y453794D01*
X182861Y453894D01*
X182882Y453993D01*
X182906Y454091D01*
X182934Y454188D01*
X182966Y454285D01*
X183001Y454380D01*
X183040Y454473D01*
X183082Y454565D01*
X183128Y454656D01*
X183177Y454745D01*
X183229Y454831D01*
X183285Y454916D01*
X183343Y454999D01*
X183405Y455079D01*
X183470Y455157D01*
X183537Y455233D01*
X183607Y455306D01*
X183680Y455376D01*
X183756Y455443D01*
X183834Y455508D01*
X183914Y455570D01*
X183997Y455628D01*
X184082Y455684D01*
X184169Y455736D01*
X184257Y455785D01*
X184348Y455831D01*
X184440Y455873D01*
X184533Y455912D01*
X184628Y455947D01*
X184725Y455979D01*
X184822Y456007D01*
X184920Y456031D01*
X185019Y456052D01*
X185119Y456069D01*
X185220Y456082D01*
X185321Y456091D01*
X185422Y456097D01*
X185523Y456099D01*
X190039Y456099D01*
X197476Y456099D02*
X197476Y447971D01*
X197478Y447870D01*
X197484Y447769D01*
X197493Y447668D01*
X197506Y447567D01*
X197523Y447467D01*
X197544Y447368D01*
X197568Y447270D01*
X197596Y447173D01*
X197628Y447076D01*
X197663Y446981D01*
X197702Y446888D01*
X197744Y446796D01*
X197790Y446705D01*
X197839Y446617D01*
X197891Y446530D01*
X197947Y446445D01*
X198005Y446362D01*
X198067Y446282D01*
X198132Y446204D01*
X198199Y446128D01*
X198269Y446055D01*
X198342Y445985D01*
X198418Y445918D01*
X198496Y445853D01*
X198576Y445791D01*
X198659Y445733D01*
X198744Y445677D01*
X198831Y445625D01*
X198919Y445576D01*
X199010Y445530D01*
X199102Y445488D01*
X199195Y445449D01*
X199290Y445414D01*
X199387Y445382D01*
X199484Y445354D01*
X199582Y445330D01*
X199681Y445309D01*
X199781Y445292D01*
X199882Y445279D01*
X199983Y445270D01*
X200084Y445264D01*
X200185Y445262D01*
X204701Y445262D01*
X204701Y456099D01*
X211781Y461518D02*
X211781Y447971D01*
X211783Y447870D01*
X211789Y447769D01*
X211798Y447668D01*
X211811Y447567D01*
X211828Y447467D01*
X211849Y447368D01*
X211873Y447270D01*
X211901Y447173D01*
X211933Y447076D01*
X211968Y446981D01*
X212007Y446888D01*
X212049Y446796D01*
X212095Y446705D01*
X212144Y446617D01*
X212196Y446530D01*
X212252Y446445D01*
X212310Y446362D01*
X212372Y446282D01*
X212437Y446204D01*
X212504Y446128D01*
X212574Y446055D01*
X212647Y445985D01*
X212723Y445918D01*
X212801Y445853D01*
X212881Y445791D01*
X212964Y445733D01*
X213049Y445677D01*
X213136Y445625D01*
X213224Y445576D01*
X213315Y445530D01*
X213407Y445488D01*
X213500Y445449D01*
X213595Y445414D01*
X213692Y445382D01*
X213789Y445354D01*
X213887Y445330D01*
X213986Y445309D01*
X214086Y445292D01*
X214187Y445279D01*
X214288Y445270D01*
X214389Y445264D01*
X214490Y445262D01*
X222590Y445262D02*
X227106Y445262D01*
X222590Y445262D02*
X222489Y445264D01*
X222388Y445270D01*
X222287Y445279D01*
X222186Y445292D01*
X222086Y445309D01*
X221987Y445330D01*
X221889Y445354D01*
X221792Y445382D01*
X221695Y445414D01*
X221600Y445449D01*
X221507Y445488D01*
X221415Y445530D01*
X221324Y445576D01*
X221236Y445625D01*
X221149Y445677D01*
X221064Y445733D01*
X220981Y445791D01*
X220901Y445853D01*
X220823Y445918D01*
X220747Y445985D01*
X220674Y446055D01*
X220604Y446128D01*
X220537Y446204D01*
X220472Y446282D01*
X220410Y446362D01*
X220352Y446445D01*
X220296Y446530D01*
X220244Y446617D01*
X220195Y446705D01*
X220149Y446796D01*
X220107Y446888D01*
X220068Y446981D01*
X220033Y447076D01*
X220001Y447173D01*
X219973Y447270D01*
X219949Y447368D01*
X219928Y447467D01*
X219911Y447567D01*
X219898Y447668D01*
X219889Y447769D01*
X219883Y447870D01*
X219881Y447971D01*
X219881Y452487D01*
X219883Y452606D01*
X219889Y452726D01*
X219899Y452845D01*
X219913Y452963D01*
X219930Y453082D01*
X219952Y453199D01*
X219977Y453316D01*
X220007Y453431D01*
X220040Y453546D01*
X220077Y453660D01*
X220117Y453772D01*
X220162Y453883D01*
X220210Y453992D01*
X220261Y454100D01*
X220316Y454206D01*
X220375Y454310D01*
X220437Y454412D01*
X220502Y454512D01*
X220571Y454610D01*
X220643Y454706D01*
X220718Y454799D01*
X220795Y454889D01*
X220876Y454977D01*
X220960Y455062D01*
X221047Y455144D01*
X221136Y455224D01*
X221228Y455300D01*
X221322Y455374D01*
X221419Y455444D01*
X221517Y455511D01*
X221618Y455575D01*
X221722Y455635D01*
X221827Y455692D01*
X221934Y455745D01*
X222042Y455795D01*
X222152Y455841D01*
X222264Y455883D01*
X222377Y455922D01*
X222491Y455957D01*
X222606Y455988D01*
X222723Y456016D01*
X222840Y456039D01*
X222957Y456059D01*
X223076Y456075D01*
X223195Y456087D01*
X223314Y456095D01*
X223433Y456099D01*
X223553Y456099D01*
X223672Y456095D01*
X223791Y456087D01*
X223910Y456075D01*
X224029Y456059D01*
X224146Y456039D01*
X224263Y456016D01*
X224380Y455988D01*
X224495Y455957D01*
X224609Y455922D01*
X224722Y455883D01*
X224834Y455841D01*
X224944Y455795D01*
X225052Y455745D01*
X225159Y455692D01*
X225264Y455635D01*
X225368Y455575D01*
X225469Y455511D01*
X225567Y455444D01*
X225664Y455374D01*
X225758Y455300D01*
X225850Y455224D01*
X225939Y455144D01*
X226026Y455062D01*
X226110Y454977D01*
X226191Y454889D01*
X226268Y454799D01*
X226343Y454706D01*
X226415Y454610D01*
X226484Y454512D01*
X226549Y454412D01*
X226611Y454310D01*
X226670Y454206D01*
X226725Y454100D01*
X226776Y453992D01*
X226824Y453883D01*
X226869Y453772D01*
X226909Y453660D01*
X226946Y453546D01*
X226979Y453431D01*
X227009Y453316D01*
X227034Y453199D01*
X227056Y453082D01*
X227073Y452963D01*
X227087Y452845D01*
X227097Y452726D01*
X227103Y452606D01*
X227105Y452487D01*
X227106Y452487D02*
X227106Y450681D01*
X219881Y450681D01*
D29*
X138200Y15700D02*
X138201Y15700D01*
X141200Y15700D01*
X144200Y12700D02*
X262200Y12700D01*
X265200Y15700D02*
X268200Y15700D01*
X268200Y96700D01*
X268200Y134700D02*
X268200Y151700D01*
X242200Y151700D01*
X164200Y151700D02*
X138200Y151700D01*
X138200Y134700D01*
X138200Y96700D02*
X138200Y15700D01*
X138201Y15700D02*
X138199Y15593D01*
X138193Y15486D01*
X138184Y15379D01*
X138170Y15273D01*
X138153Y15167D01*
X138132Y15062D01*
X138108Y14958D01*
X138079Y14855D01*
X138047Y14753D01*
X138012Y14652D01*
X137973Y14552D01*
X137930Y14454D01*
X137884Y14357D01*
X137834Y14262D01*
X137781Y14169D01*
X137725Y14078D01*
X137665Y13989D01*
X137603Y13902D01*
X137537Y13818D01*
X137468Y13735D01*
X137397Y13656D01*
X137322Y13579D01*
X137245Y13504D01*
X137166Y13433D01*
X137083Y13364D01*
X136999Y13298D01*
X136912Y13236D01*
X136823Y13176D01*
X136732Y13120D01*
X136639Y13067D01*
X136544Y13017D01*
X136447Y12971D01*
X136349Y12928D01*
X136249Y12889D01*
X136148Y12854D01*
X136046Y12822D01*
X135943Y12793D01*
X135839Y12769D01*
X135734Y12748D01*
X135628Y12731D01*
X135522Y12717D01*
X135415Y12708D01*
X135308Y12702D01*
X135201Y12700D01*
X135200Y12700D02*
X133200Y12700D01*
X141200Y15700D02*
X141307Y15698D01*
X141414Y15692D01*
X141521Y15683D01*
X141627Y15669D01*
X141733Y15652D01*
X141838Y15631D01*
X141942Y15607D01*
X142045Y15578D01*
X142147Y15546D01*
X142248Y15511D01*
X142348Y15472D01*
X142446Y15429D01*
X142543Y15383D01*
X142638Y15333D01*
X142731Y15280D01*
X142822Y15224D01*
X142911Y15164D01*
X142998Y15102D01*
X143082Y15036D01*
X143165Y14967D01*
X143244Y14896D01*
X143321Y14821D01*
X143396Y14744D01*
X143467Y14665D01*
X143536Y14582D01*
X143602Y14498D01*
X143664Y14411D01*
X143724Y14322D01*
X143780Y14231D01*
X143833Y14138D01*
X143883Y14043D01*
X143929Y13946D01*
X143972Y13848D01*
X144011Y13748D01*
X144046Y13647D01*
X144078Y13545D01*
X144107Y13442D01*
X144131Y13338D01*
X144152Y13233D01*
X144169Y13127D01*
X144183Y13021D01*
X144192Y12914D01*
X144198Y12807D01*
X144200Y12700D01*
X268200Y15700D02*
X268202Y15593D01*
X268208Y15486D01*
X268217Y15379D01*
X268231Y15273D01*
X268248Y15167D01*
X268269Y15062D01*
X268293Y14958D01*
X268322Y14855D01*
X268354Y14753D01*
X268389Y14652D01*
X268428Y14552D01*
X268471Y14454D01*
X268517Y14357D01*
X268567Y14262D01*
X268620Y14169D01*
X268676Y14078D01*
X268736Y13989D01*
X268798Y13902D01*
X268864Y13818D01*
X268933Y13735D01*
X269004Y13656D01*
X269079Y13579D01*
X269156Y13504D01*
X269235Y13433D01*
X269318Y13364D01*
X269402Y13298D01*
X269489Y13236D01*
X269578Y13176D01*
X269669Y13120D01*
X269762Y13067D01*
X269857Y13017D01*
X269954Y12971D01*
X270052Y12928D01*
X270152Y12889D01*
X270253Y12854D01*
X270355Y12822D01*
X270458Y12793D01*
X270562Y12769D01*
X270667Y12748D01*
X270773Y12731D01*
X270879Y12717D01*
X270986Y12708D01*
X271093Y12702D01*
X271200Y12700D01*
X265200Y15701D02*
X265093Y15699D01*
X264986Y15693D01*
X264879Y15684D01*
X264773Y15670D01*
X264667Y15653D01*
X264562Y15632D01*
X264458Y15608D01*
X264355Y15579D01*
X264253Y15547D01*
X264152Y15512D01*
X264052Y15472D01*
X263954Y15430D01*
X263857Y15383D01*
X263762Y15334D01*
X263669Y15281D01*
X263578Y15224D01*
X263489Y15165D01*
X263402Y15102D01*
X263318Y15036D01*
X263235Y14968D01*
X263156Y14896D01*
X263079Y14822D01*
X263004Y14745D01*
X262933Y14665D01*
X262864Y14583D01*
X262798Y14498D01*
X262736Y14411D01*
X262676Y14322D01*
X262620Y14231D01*
X262567Y14138D01*
X262517Y14043D01*
X262471Y13946D01*
X262428Y13848D01*
X262389Y13749D01*
X262354Y13648D01*
X262322Y13545D01*
X262293Y13442D01*
X262269Y13338D01*
X262248Y13233D01*
X262231Y13127D01*
X262217Y13021D01*
X262208Y12914D01*
X262202Y12807D01*
X262200Y12700D01*
X163200Y32700D02*
X153200Y92700D01*
X163200Y32700D02*
X173200Y32700D01*
X183200Y92700D01*
X253200Y92700D02*
X243200Y32700D01*
X233200Y32700D01*
X223200Y92700D01*
X271200Y12700D02*
X273200Y12700D01*
X234200Y151700D02*
X217200Y151700D01*
X189200Y151700D02*
X172200Y151700D01*
X197200Y151700D02*
X209200Y151700D01*
D30*
X155998Y28575D02*
X153035Y19685D01*
X158962Y19685D02*
X155998Y28575D01*
X158221Y21908D02*
X153776Y21908D01*
X163093Y19685D02*
X163093Y28575D01*
X166057Y23636D01*
X169020Y28575D01*
X169020Y19685D01*
X174124Y19685D02*
X174124Y28575D01*
X176593Y28575D01*
X176691Y28573D01*
X176789Y28567D01*
X176887Y28557D01*
X176984Y28544D01*
X177081Y28526D01*
X177177Y28505D01*
X177271Y28480D01*
X177365Y28451D01*
X177458Y28419D01*
X177549Y28382D01*
X177639Y28343D01*
X177727Y28299D01*
X177813Y28252D01*
X177898Y28202D01*
X177980Y28149D01*
X178060Y28092D01*
X178138Y28032D01*
X178213Y27969D01*
X178286Y27903D01*
X178356Y27834D01*
X178423Y27763D01*
X178488Y27689D01*
X178549Y27612D01*
X178608Y27533D01*
X178663Y27452D01*
X178715Y27369D01*
X178763Y27283D01*
X178808Y27196D01*
X178850Y27107D01*
X178888Y27017D01*
X178922Y26925D01*
X178953Y26832D01*
X178980Y26737D01*
X179003Y26642D01*
X179023Y26545D01*
X179038Y26449D01*
X179050Y26351D01*
X179058Y26253D01*
X179062Y26155D01*
X179062Y26057D01*
X179058Y25959D01*
X179050Y25861D01*
X179038Y25763D01*
X179023Y25667D01*
X179003Y25570D01*
X178980Y25475D01*
X178953Y25380D01*
X178922Y25287D01*
X178888Y25195D01*
X178850Y25105D01*
X178808Y25016D01*
X178763Y24929D01*
X178715Y24843D01*
X178663Y24760D01*
X178608Y24679D01*
X178549Y24600D01*
X178488Y24523D01*
X178423Y24449D01*
X178356Y24378D01*
X178286Y24309D01*
X178213Y24243D01*
X178138Y24180D01*
X178060Y24120D01*
X177980Y24063D01*
X177898Y24010D01*
X177813Y23960D01*
X177727Y23913D01*
X177639Y23869D01*
X177549Y23830D01*
X177458Y23793D01*
X177365Y23761D01*
X177271Y23732D01*
X177177Y23707D01*
X177081Y23686D01*
X176984Y23668D01*
X176887Y23655D01*
X176789Y23645D01*
X176691Y23639D01*
X176593Y23637D01*
X176593Y23636D02*
X174124Y23636D01*
X187666Y27587D02*
X187666Y28575D01*
X192605Y28575D01*
X190136Y19685D01*
X196811Y22154D02*
X196813Y22252D01*
X196819Y22350D01*
X196829Y22448D01*
X196842Y22545D01*
X196860Y22642D01*
X196881Y22738D01*
X196906Y22832D01*
X196935Y22926D01*
X196967Y23019D01*
X197004Y23110D01*
X197043Y23200D01*
X197087Y23288D01*
X197134Y23374D01*
X197184Y23459D01*
X197237Y23541D01*
X197294Y23621D01*
X197354Y23699D01*
X197417Y23774D01*
X197483Y23847D01*
X197552Y23917D01*
X197623Y23984D01*
X197697Y24049D01*
X197774Y24110D01*
X197853Y24169D01*
X197934Y24224D01*
X198017Y24276D01*
X198103Y24324D01*
X198190Y24369D01*
X198279Y24411D01*
X198369Y24449D01*
X198461Y24483D01*
X198554Y24514D01*
X198649Y24541D01*
X198744Y24564D01*
X198841Y24584D01*
X198937Y24599D01*
X199035Y24611D01*
X199133Y24619D01*
X199231Y24623D01*
X199329Y24623D01*
X199427Y24619D01*
X199525Y24611D01*
X199623Y24599D01*
X199719Y24584D01*
X199816Y24564D01*
X199911Y24541D01*
X200006Y24514D01*
X200099Y24483D01*
X200191Y24449D01*
X200281Y24411D01*
X200370Y24369D01*
X200457Y24324D01*
X200543Y24276D01*
X200626Y24224D01*
X200707Y24169D01*
X200786Y24110D01*
X200863Y24049D01*
X200937Y23984D01*
X201008Y23917D01*
X201077Y23847D01*
X201143Y23774D01*
X201206Y23699D01*
X201266Y23621D01*
X201323Y23541D01*
X201376Y23459D01*
X201426Y23374D01*
X201473Y23288D01*
X201517Y23200D01*
X201556Y23110D01*
X201593Y23019D01*
X201625Y22926D01*
X201654Y22832D01*
X201679Y22738D01*
X201700Y22642D01*
X201718Y22545D01*
X201731Y22448D01*
X201741Y22350D01*
X201747Y22252D01*
X201749Y22154D01*
X201747Y22056D01*
X201741Y21958D01*
X201731Y21860D01*
X201718Y21763D01*
X201700Y21666D01*
X201679Y21570D01*
X201654Y21476D01*
X201625Y21382D01*
X201593Y21289D01*
X201556Y21198D01*
X201517Y21108D01*
X201473Y21020D01*
X201426Y20934D01*
X201376Y20849D01*
X201323Y20767D01*
X201266Y20687D01*
X201206Y20609D01*
X201143Y20534D01*
X201077Y20461D01*
X201008Y20391D01*
X200937Y20324D01*
X200863Y20259D01*
X200786Y20198D01*
X200707Y20139D01*
X200626Y20084D01*
X200543Y20032D01*
X200457Y19984D01*
X200370Y19939D01*
X200281Y19897D01*
X200191Y19859D01*
X200099Y19825D01*
X200006Y19794D01*
X199911Y19767D01*
X199816Y19744D01*
X199719Y19724D01*
X199623Y19709D01*
X199525Y19697D01*
X199427Y19689D01*
X199329Y19685D01*
X199231Y19685D01*
X199133Y19689D01*
X199035Y19697D01*
X198937Y19709D01*
X198841Y19724D01*
X198744Y19744D01*
X198649Y19767D01*
X198554Y19794D01*
X198461Y19825D01*
X198369Y19859D01*
X198279Y19897D01*
X198190Y19939D01*
X198103Y19984D01*
X198017Y20032D01*
X197934Y20084D01*
X197853Y20139D01*
X197774Y20198D01*
X197697Y20259D01*
X197623Y20324D01*
X197552Y20391D01*
X197483Y20461D01*
X197417Y20534D01*
X197354Y20609D01*
X197294Y20687D01*
X197237Y20767D01*
X197184Y20849D01*
X197134Y20934D01*
X197087Y21020D01*
X197043Y21108D01*
X197004Y21198D01*
X196967Y21289D01*
X196935Y21382D01*
X196906Y21476D01*
X196881Y21570D01*
X196860Y21666D01*
X196842Y21763D01*
X196829Y21860D01*
X196819Y21958D01*
X196813Y22056D01*
X196811Y22154D01*
X197304Y26599D02*
X197306Y26686D01*
X197312Y26774D01*
X197321Y26861D01*
X197335Y26947D01*
X197352Y27033D01*
X197373Y27117D01*
X197398Y27201D01*
X197427Y27284D01*
X197459Y27365D01*
X197494Y27445D01*
X197533Y27523D01*
X197576Y27600D01*
X197622Y27674D01*
X197671Y27746D01*
X197723Y27816D01*
X197779Y27884D01*
X197837Y27949D01*
X197898Y28012D01*
X197962Y28071D01*
X198029Y28128D01*
X198097Y28182D01*
X198169Y28233D01*
X198242Y28280D01*
X198317Y28325D01*
X198395Y28366D01*
X198474Y28403D01*
X198554Y28437D01*
X198636Y28467D01*
X198719Y28494D01*
X198804Y28517D01*
X198889Y28536D01*
X198975Y28551D01*
X199062Y28563D01*
X199149Y28571D01*
X199236Y28575D01*
X199324Y28575D01*
X199411Y28571D01*
X199498Y28563D01*
X199585Y28551D01*
X199671Y28536D01*
X199756Y28517D01*
X199841Y28494D01*
X199924Y28467D01*
X200006Y28437D01*
X200086Y28403D01*
X200165Y28366D01*
X200243Y28325D01*
X200318Y28280D01*
X200391Y28233D01*
X200463Y28182D01*
X200531Y28128D01*
X200598Y28071D01*
X200662Y28012D01*
X200723Y27949D01*
X200781Y27884D01*
X200837Y27816D01*
X200889Y27746D01*
X200938Y27674D01*
X200984Y27600D01*
X201027Y27523D01*
X201066Y27445D01*
X201101Y27365D01*
X201133Y27284D01*
X201162Y27201D01*
X201187Y27117D01*
X201208Y27033D01*
X201225Y26947D01*
X201239Y26861D01*
X201248Y26774D01*
X201254Y26686D01*
X201256Y26599D01*
X201254Y26512D01*
X201248Y26424D01*
X201239Y26337D01*
X201225Y26251D01*
X201208Y26165D01*
X201187Y26081D01*
X201162Y25997D01*
X201133Y25914D01*
X201101Y25833D01*
X201066Y25753D01*
X201027Y25675D01*
X200984Y25598D01*
X200938Y25524D01*
X200889Y25452D01*
X200837Y25382D01*
X200781Y25314D01*
X200723Y25249D01*
X200662Y25186D01*
X200598Y25127D01*
X200531Y25070D01*
X200463Y25016D01*
X200391Y24965D01*
X200318Y24918D01*
X200243Y24873D01*
X200165Y24832D01*
X200086Y24795D01*
X200006Y24761D01*
X199924Y24731D01*
X199841Y24704D01*
X199756Y24681D01*
X199671Y24662D01*
X199585Y24647D01*
X199498Y24635D01*
X199411Y24627D01*
X199324Y24623D01*
X199236Y24623D01*
X199149Y24627D01*
X199062Y24635D01*
X198975Y24647D01*
X198889Y24662D01*
X198804Y24681D01*
X198719Y24704D01*
X198636Y24731D01*
X198554Y24761D01*
X198474Y24795D01*
X198395Y24832D01*
X198317Y24873D01*
X198242Y24918D01*
X198169Y24965D01*
X198097Y25016D01*
X198029Y25070D01*
X197962Y25127D01*
X197898Y25186D01*
X197837Y25249D01*
X197779Y25314D01*
X197723Y25382D01*
X197671Y25452D01*
X197622Y25524D01*
X197576Y25598D01*
X197533Y25675D01*
X197494Y25753D01*
X197459Y25833D01*
X197427Y25914D01*
X197398Y25997D01*
X197373Y26081D01*
X197352Y26165D01*
X197335Y26251D01*
X197321Y26337D01*
X197312Y26424D01*
X197306Y26512D01*
X197304Y26599D01*
X205954Y27587D02*
X205954Y28575D01*
X210893Y28575D01*
X208424Y19685D01*
X215098Y24624D02*
X218062Y24624D01*
X218148Y24622D01*
X218234Y24616D01*
X218320Y24607D01*
X218405Y24594D01*
X218490Y24577D01*
X218573Y24557D01*
X218656Y24533D01*
X218738Y24505D01*
X218818Y24474D01*
X218897Y24439D01*
X218974Y24401D01*
X219050Y24359D01*
X219124Y24315D01*
X219195Y24267D01*
X219265Y24216D01*
X219332Y24162D01*
X219397Y24105D01*
X219459Y24045D01*
X219519Y23983D01*
X219576Y23918D01*
X219630Y23851D01*
X219681Y23781D01*
X219729Y23710D01*
X219773Y23636D01*
X219815Y23560D01*
X219853Y23483D01*
X219888Y23404D01*
X219919Y23324D01*
X219947Y23242D01*
X219971Y23159D01*
X219991Y23076D01*
X220008Y22991D01*
X220021Y22906D01*
X220030Y22820D01*
X220036Y22734D01*
X220038Y22648D01*
X220037Y22648D02*
X220037Y22154D01*
X220035Y22056D01*
X220029Y21958D01*
X220019Y21860D01*
X220006Y21763D01*
X219988Y21666D01*
X219967Y21570D01*
X219942Y21476D01*
X219913Y21382D01*
X219881Y21289D01*
X219844Y21198D01*
X219805Y21108D01*
X219761Y21020D01*
X219714Y20934D01*
X219664Y20849D01*
X219611Y20767D01*
X219554Y20687D01*
X219494Y20609D01*
X219431Y20534D01*
X219365Y20461D01*
X219296Y20391D01*
X219225Y20324D01*
X219151Y20259D01*
X219074Y20198D01*
X218995Y20139D01*
X218914Y20084D01*
X218831Y20032D01*
X218745Y19984D01*
X218658Y19939D01*
X218569Y19897D01*
X218479Y19859D01*
X218387Y19825D01*
X218294Y19794D01*
X218199Y19767D01*
X218104Y19744D01*
X218007Y19724D01*
X217911Y19709D01*
X217813Y19697D01*
X217715Y19689D01*
X217617Y19685D01*
X217519Y19685D01*
X217421Y19689D01*
X217323Y19697D01*
X217225Y19709D01*
X217129Y19724D01*
X217032Y19744D01*
X216937Y19767D01*
X216842Y19794D01*
X216749Y19825D01*
X216657Y19859D01*
X216567Y19897D01*
X216478Y19939D01*
X216391Y19984D01*
X216305Y20032D01*
X216222Y20084D01*
X216141Y20139D01*
X216062Y20198D01*
X215985Y20259D01*
X215911Y20324D01*
X215840Y20391D01*
X215771Y20461D01*
X215705Y20534D01*
X215642Y20609D01*
X215582Y20687D01*
X215525Y20767D01*
X215472Y20849D01*
X215422Y20934D01*
X215375Y21020D01*
X215331Y21108D01*
X215292Y21198D01*
X215255Y21289D01*
X215223Y21382D01*
X215194Y21476D01*
X215169Y21570D01*
X215148Y21666D01*
X215130Y21763D01*
X215117Y21860D01*
X215107Y21958D01*
X215101Y22056D01*
X215099Y22154D01*
X215098Y22154D02*
X215098Y24624D01*
X215099Y24624D02*
X215101Y24748D01*
X215107Y24872D01*
X215117Y24996D01*
X215130Y25119D01*
X215148Y25242D01*
X215169Y25364D01*
X215194Y25486D01*
X215223Y25607D01*
X215256Y25726D01*
X215292Y25845D01*
X215333Y25962D01*
X215376Y26078D01*
X215424Y26193D01*
X215475Y26306D01*
X215530Y26418D01*
X215588Y26527D01*
X215649Y26635D01*
X215714Y26741D01*
X215782Y26845D01*
X215854Y26946D01*
X215928Y27046D01*
X216006Y27142D01*
X216086Y27237D01*
X216170Y27329D01*
X216256Y27418D01*
X216345Y27504D01*
X216437Y27588D01*
X216532Y27668D01*
X216628Y27746D01*
X216728Y27820D01*
X216829Y27892D01*
X216933Y27960D01*
X217039Y28025D01*
X217147Y28086D01*
X217256Y28144D01*
X217368Y28199D01*
X217481Y28250D01*
X217596Y28298D01*
X217712Y28341D01*
X217829Y28382D01*
X217948Y28418D01*
X218067Y28451D01*
X218188Y28480D01*
X218310Y28505D01*
X218432Y28526D01*
X218555Y28544D01*
X218678Y28557D01*
X218802Y28567D01*
X218926Y28573D01*
X219050Y28575D01*
X224242Y26599D02*
X226712Y28575D01*
X226712Y19685D01*
X229181Y19685D02*
X224242Y19685D01*
X233386Y24624D02*
X236350Y24624D01*
X236436Y24622D01*
X236522Y24616D01*
X236608Y24607D01*
X236693Y24594D01*
X236778Y24577D01*
X236861Y24557D01*
X236944Y24533D01*
X237026Y24505D01*
X237106Y24474D01*
X237185Y24439D01*
X237262Y24401D01*
X237338Y24359D01*
X237412Y24315D01*
X237483Y24267D01*
X237553Y24216D01*
X237620Y24162D01*
X237685Y24105D01*
X237747Y24045D01*
X237807Y23983D01*
X237864Y23918D01*
X237918Y23851D01*
X237969Y23781D01*
X238017Y23710D01*
X238061Y23636D01*
X238103Y23560D01*
X238141Y23483D01*
X238176Y23404D01*
X238207Y23324D01*
X238235Y23242D01*
X238259Y23159D01*
X238279Y23076D01*
X238296Y22991D01*
X238309Y22906D01*
X238318Y22820D01*
X238324Y22734D01*
X238326Y22648D01*
X238325Y22648D02*
X238325Y22154D01*
X238323Y22056D01*
X238317Y21958D01*
X238307Y21860D01*
X238294Y21763D01*
X238276Y21666D01*
X238255Y21570D01*
X238230Y21476D01*
X238201Y21382D01*
X238169Y21289D01*
X238132Y21198D01*
X238093Y21108D01*
X238049Y21020D01*
X238002Y20934D01*
X237952Y20849D01*
X237899Y20767D01*
X237842Y20687D01*
X237782Y20609D01*
X237719Y20534D01*
X237653Y20461D01*
X237584Y20391D01*
X237513Y20324D01*
X237439Y20259D01*
X237362Y20198D01*
X237283Y20139D01*
X237202Y20084D01*
X237119Y20032D01*
X237033Y19984D01*
X236946Y19939D01*
X236857Y19897D01*
X236767Y19859D01*
X236675Y19825D01*
X236582Y19794D01*
X236487Y19767D01*
X236392Y19744D01*
X236295Y19724D01*
X236199Y19709D01*
X236101Y19697D01*
X236003Y19689D01*
X235905Y19685D01*
X235807Y19685D01*
X235709Y19689D01*
X235611Y19697D01*
X235513Y19709D01*
X235417Y19724D01*
X235320Y19744D01*
X235225Y19767D01*
X235130Y19794D01*
X235037Y19825D01*
X234945Y19859D01*
X234855Y19897D01*
X234766Y19939D01*
X234679Y19984D01*
X234593Y20032D01*
X234510Y20084D01*
X234429Y20139D01*
X234350Y20198D01*
X234273Y20259D01*
X234199Y20324D01*
X234128Y20391D01*
X234059Y20461D01*
X233993Y20534D01*
X233930Y20609D01*
X233870Y20687D01*
X233813Y20767D01*
X233760Y20849D01*
X233710Y20934D01*
X233663Y21020D01*
X233619Y21108D01*
X233580Y21198D01*
X233543Y21289D01*
X233511Y21382D01*
X233482Y21476D01*
X233457Y21570D01*
X233436Y21666D01*
X233418Y21763D01*
X233405Y21860D01*
X233395Y21958D01*
X233389Y22056D01*
X233387Y22154D01*
X233386Y22154D02*
X233386Y24624D01*
X233387Y24624D02*
X233389Y24748D01*
X233395Y24872D01*
X233405Y24996D01*
X233418Y25119D01*
X233436Y25242D01*
X233457Y25364D01*
X233482Y25486D01*
X233511Y25607D01*
X233544Y25726D01*
X233580Y25845D01*
X233621Y25962D01*
X233664Y26078D01*
X233712Y26193D01*
X233763Y26306D01*
X233818Y26418D01*
X233876Y26527D01*
X233937Y26635D01*
X234002Y26741D01*
X234070Y26845D01*
X234142Y26946D01*
X234216Y27046D01*
X234294Y27142D01*
X234374Y27237D01*
X234458Y27329D01*
X234544Y27418D01*
X234633Y27504D01*
X234725Y27588D01*
X234820Y27668D01*
X234916Y27746D01*
X235016Y27820D01*
X235117Y27892D01*
X235221Y27960D01*
X235327Y28025D01*
X235435Y28086D01*
X235544Y28144D01*
X235656Y28199D01*
X235769Y28250D01*
X235884Y28298D01*
X236000Y28341D01*
X236117Y28382D01*
X236236Y28418D01*
X236355Y28451D01*
X236476Y28480D01*
X236598Y28505D01*
X236720Y28526D01*
X236843Y28544D01*
X236966Y28557D01*
X237090Y28567D01*
X237214Y28573D01*
X237338Y28575D01*
X242646Y23142D02*
X248573Y23142D01*
X252894Y26599D02*
X255363Y28575D01*
X255363Y19685D01*
X252894Y19685D02*
X257832Y19685D01*
X138834Y158336D02*
X144761Y167226D01*
X138834Y167226D02*
X144761Y158336D01*
X148472Y165250D02*
X150941Y167226D01*
X150941Y158336D01*
X148472Y158336D02*
X153411Y158336D01*
D27*
X323850Y38100D02*
X323850Y12700D01*
X450850Y12700D01*
X450850Y38100D01*
X323850Y38100D01*
X304800Y101600D02*
X469900Y101600D01*
X469900Y482600D01*
X304800Y482600D01*
X304800Y101600D01*
D28*
X324612Y447943D02*
X329128Y447943D01*
X329128Y447944D02*
X329261Y447942D01*
X329393Y447936D01*
X329525Y447926D01*
X329657Y447913D01*
X329789Y447895D01*
X329919Y447874D01*
X330050Y447849D01*
X330179Y447820D01*
X330307Y447787D01*
X330435Y447751D01*
X330561Y447711D01*
X330686Y447667D01*
X330810Y447619D01*
X330932Y447568D01*
X331053Y447513D01*
X331172Y447455D01*
X331290Y447393D01*
X331405Y447328D01*
X331519Y447259D01*
X331630Y447188D01*
X331739Y447112D01*
X331846Y447034D01*
X331951Y446953D01*
X332053Y446868D01*
X332153Y446781D01*
X332250Y446691D01*
X332345Y446598D01*
X332436Y446502D01*
X332525Y446404D01*
X332611Y446303D01*
X332694Y446199D01*
X332774Y446093D01*
X332850Y445985D01*
X332924Y445875D01*
X332994Y445762D01*
X333061Y445648D01*
X333124Y445531D01*
X333184Y445413D01*
X333241Y445293D01*
X333294Y445171D01*
X333343Y445048D01*
X333389Y444924D01*
X333431Y444798D01*
X333469Y444671D01*
X333504Y444543D01*
X333535Y444414D01*
X333562Y444285D01*
X333585Y444154D01*
X333605Y444023D01*
X333620Y443891D01*
X333632Y443759D01*
X333640Y443627D01*
X333644Y443494D01*
X333644Y443362D01*
X333640Y443229D01*
X333632Y443097D01*
X333620Y442965D01*
X333605Y442833D01*
X333585Y442702D01*
X333562Y442571D01*
X333535Y442442D01*
X333504Y442313D01*
X333469Y442185D01*
X333431Y442058D01*
X333389Y441932D01*
X333343Y441808D01*
X333294Y441685D01*
X333241Y441563D01*
X333184Y441443D01*
X333124Y441325D01*
X333061Y441208D01*
X332994Y441094D01*
X332924Y440981D01*
X332850Y440871D01*
X332774Y440763D01*
X332694Y440657D01*
X332611Y440553D01*
X332525Y440452D01*
X332436Y440354D01*
X332345Y440258D01*
X332250Y440165D01*
X332153Y440075D01*
X332053Y439988D01*
X331951Y439903D01*
X331846Y439822D01*
X331739Y439744D01*
X331630Y439668D01*
X331519Y439597D01*
X331405Y439528D01*
X331290Y439463D01*
X331172Y439401D01*
X331053Y439343D01*
X330932Y439288D01*
X330810Y439237D01*
X330686Y439189D01*
X330561Y439145D01*
X330435Y439105D01*
X330307Y439069D01*
X330179Y439036D01*
X330050Y439007D01*
X329919Y438982D01*
X329789Y438961D01*
X329657Y438943D01*
X329525Y438930D01*
X329393Y438920D01*
X329261Y438914D01*
X329128Y438912D01*
X324612Y438912D01*
X324612Y455168D01*
X329128Y455168D01*
X329247Y455166D01*
X329367Y455160D01*
X329486Y455150D01*
X329604Y455136D01*
X329723Y455119D01*
X329840Y455097D01*
X329957Y455072D01*
X330072Y455042D01*
X330187Y455009D01*
X330301Y454972D01*
X330413Y454932D01*
X330524Y454887D01*
X330633Y454839D01*
X330741Y454788D01*
X330847Y454733D01*
X330951Y454674D01*
X331053Y454612D01*
X331153Y454547D01*
X331251Y454478D01*
X331347Y454406D01*
X331440Y454331D01*
X331530Y454254D01*
X331618Y454173D01*
X331703Y454089D01*
X331785Y454002D01*
X331865Y453913D01*
X331941Y453821D01*
X332015Y453727D01*
X332085Y453630D01*
X332152Y453532D01*
X332216Y453431D01*
X332276Y453327D01*
X332333Y453222D01*
X332386Y453115D01*
X332436Y453007D01*
X332482Y452897D01*
X332524Y452785D01*
X332563Y452672D01*
X332598Y452558D01*
X332629Y452443D01*
X332657Y452326D01*
X332680Y452209D01*
X332700Y452092D01*
X332716Y451973D01*
X332728Y451854D01*
X332736Y451735D01*
X332740Y451616D01*
X332740Y451496D01*
X332736Y451377D01*
X332728Y451258D01*
X332716Y451139D01*
X332700Y451020D01*
X332680Y450903D01*
X332657Y450786D01*
X332629Y450669D01*
X332598Y450554D01*
X332563Y450440D01*
X332524Y450327D01*
X332482Y450215D01*
X332436Y450105D01*
X332386Y449997D01*
X332333Y449890D01*
X332276Y449785D01*
X332216Y449681D01*
X332152Y449580D01*
X332085Y449482D01*
X332015Y449385D01*
X331941Y449291D01*
X331865Y449199D01*
X331785Y449110D01*
X331703Y449023D01*
X331618Y448939D01*
X331530Y448858D01*
X331440Y448781D01*
X331347Y448706D01*
X331251Y448634D01*
X331153Y448565D01*
X331053Y448500D01*
X330951Y448438D01*
X330847Y448379D01*
X330741Y448324D01*
X330633Y448273D01*
X330524Y448225D01*
X330413Y448180D01*
X330301Y448140D01*
X330187Y448103D01*
X330072Y448070D01*
X329957Y448040D01*
X329840Y448015D01*
X329723Y447993D01*
X329604Y447976D01*
X329486Y447962D01*
X329367Y447952D01*
X329247Y447946D01*
X329128Y447944D01*
X342985Y455168D02*
X342985Y438912D01*
X338469Y455168D02*
X347500Y455168D01*
X362055Y455168D02*
X362055Y438912D01*
X367474Y446137D02*
X362055Y455168D01*
X367474Y446137D02*
X372892Y455168D01*
X372892Y438912D01*
X380013Y442524D02*
X380013Y446137D01*
X380014Y446137D02*
X380016Y446256D01*
X380022Y446376D01*
X380032Y446495D01*
X380046Y446613D01*
X380063Y446732D01*
X380085Y446849D01*
X380110Y446966D01*
X380140Y447081D01*
X380173Y447196D01*
X380210Y447310D01*
X380250Y447422D01*
X380295Y447533D01*
X380343Y447642D01*
X380394Y447750D01*
X380449Y447856D01*
X380508Y447960D01*
X380570Y448062D01*
X380635Y448162D01*
X380704Y448260D01*
X380776Y448356D01*
X380851Y448449D01*
X380928Y448539D01*
X381009Y448627D01*
X381093Y448712D01*
X381180Y448794D01*
X381269Y448874D01*
X381361Y448950D01*
X381455Y449024D01*
X381552Y449094D01*
X381650Y449161D01*
X381751Y449225D01*
X381855Y449285D01*
X381960Y449342D01*
X382067Y449395D01*
X382175Y449445D01*
X382285Y449491D01*
X382397Y449533D01*
X382510Y449572D01*
X382624Y449607D01*
X382739Y449638D01*
X382856Y449666D01*
X382973Y449689D01*
X383090Y449709D01*
X383209Y449725D01*
X383328Y449737D01*
X383447Y449745D01*
X383566Y449749D01*
X383686Y449749D01*
X383805Y449745D01*
X383924Y449737D01*
X384043Y449725D01*
X384162Y449709D01*
X384279Y449689D01*
X384396Y449666D01*
X384513Y449638D01*
X384628Y449607D01*
X384742Y449572D01*
X384855Y449533D01*
X384967Y449491D01*
X385077Y449445D01*
X385185Y449395D01*
X385292Y449342D01*
X385397Y449285D01*
X385501Y449225D01*
X385602Y449161D01*
X385700Y449094D01*
X385797Y449024D01*
X385891Y448950D01*
X385983Y448874D01*
X386072Y448794D01*
X386159Y448712D01*
X386243Y448627D01*
X386324Y448539D01*
X386401Y448449D01*
X386476Y448356D01*
X386548Y448260D01*
X386617Y448162D01*
X386682Y448062D01*
X386744Y447960D01*
X386803Y447856D01*
X386858Y447750D01*
X386909Y447642D01*
X386957Y447533D01*
X387002Y447422D01*
X387042Y447310D01*
X387079Y447196D01*
X387112Y447081D01*
X387142Y446966D01*
X387167Y446849D01*
X387189Y446732D01*
X387206Y446613D01*
X387220Y446495D01*
X387230Y446376D01*
X387236Y446256D01*
X387238Y446137D01*
X387238Y442524D01*
X387236Y442405D01*
X387230Y442285D01*
X387220Y442166D01*
X387206Y442048D01*
X387189Y441929D01*
X387167Y441812D01*
X387142Y441695D01*
X387112Y441580D01*
X387079Y441465D01*
X387042Y441351D01*
X387002Y441239D01*
X386957Y441128D01*
X386909Y441019D01*
X386858Y440911D01*
X386803Y440805D01*
X386744Y440701D01*
X386682Y440599D01*
X386617Y440499D01*
X386548Y440401D01*
X386476Y440305D01*
X386401Y440212D01*
X386324Y440122D01*
X386243Y440034D01*
X386159Y439949D01*
X386072Y439867D01*
X385983Y439787D01*
X385891Y439711D01*
X385797Y439637D01*
X385700Y439567D01*
X385602Y439500D01*
X385501Y439436D01*
X385397Y439376D01*
X385292Y439319D01*
X385185Y439266D01*
X385077Y439216D01*
X384967Y439170D01*
X384855Y439128D01*
X384742Y439089D01*
X384628Y439054D01*
X384513Y439023D01*
X384396Y438995D01*
X384279Y438972D01*
X384162Y438952D01*
X384043Y438936D01*
X383924Y438924D01*
X383805Y438916D01*
X383686Y438912D01*
X383566Y438912D01*
X383447Y438916D01*
X383328Y438924D01*
X383209Y438936D01*
X383090Y438952D01*
X382973Y438972D01*
X382856Y438995D01*
X382739Y439023D01*
X382624Y439054D01*
X382510Y439089D01*
X382397Y439128D01*
X382285Y439170D01*
X382175Y439216D01*
X382067Y439266D01*
X381960Y439319D01*
X381855Y439376D01*
X381751Y439436D01*
X381650Y439500D01*
X381552Y439567D01*
X381455Y439637D01*
X381361Y439711D01*
X381269Y439787D01*
X381180Y439867D01*
X381093Y439949D01*
X381009Y440034D01*
X380928Y440122D01*
X380851Y440212D01*
X380776Y440305D01*
X380704Y440401D01*
X380635Y440499D01*
X380570Y440599D01*
X380508Y440701D01*
X380449Y440805D01*
X380394Y440911D01*
X380343Y441019D01*
X380295Y441128D01*
X380250Y441239D01*
X380210Y441351D01*
X380173Y441465D01*
X380140Y441580D01*
X380110Y441695D01*
X380085Y441812D01*
X380063Y441929D01*
X380046Y442048D01*
X380032Y442166D01*
X380022Y442285D01*
X380016Y442405D01*
X380014Y442524D01*
X400712Y438912D02*
X400712Y455168D01*
X400712Y438912D02*
X396197Y438912D01*
X396096Y438914D01*
X395995Y438920D01*
X395894Y438929D01*
X395793Y438942D01*
X395693Y438959D01*
X395594Y438980D01*
X395496Y439004D01*
X395399Y439032D01*
X395302Y439064D01*
X395207Y439099D01*
X395114Y439138D01*
X395022Y439180D01*
X394931Y439226D01*
X394843Y439275D01*
X394756Y439327D01*
X394671Y439383D01*
X394588Y439441D01*
X394508Y439503D01*
X394430Y439568D01*
X394354Y439635D01*
X394281Y439705D01*
X394211Y439778D01*
X394144Y439854D01*
X394079Y439932D01*
X394017Y440012D01*
X393959Y440095D01*
X393903Y440180D01*
X393851Y440267D01*
X393802Y440355D01*
X393756Y440446D01*
X393714Y440538D01*
X393675Y440631D01*
X393640Y440726D01*
X393608Y440823D01*
X393580Y440920D01*
X393556Y441018D01*
X393535Y441117D01*
X393518Y441217D01*
X393505Y441318D01*
X393496Y441419D01*
X393490Y441520D01*
X393488Y441621D01*
X393487Y441621D02*
X393487Y447040D01*
X393488Y447040D02*
X393490Y447141D01*
X393496Y447242D01*
X393505Y447343D01*
X393518Y447444D01*
X393535Y447544D01*
X393556Y447643D01*
X393580Y447741D01*
X393608Y447838D01*
X393640Y447935D01*
X393675Y448030D01*
X393714Y448123D01*
X393756Y448215D01*
X393802Y448306D01*
X393851Y448395D01*
X393903Y448481D01*
X393959Y448566D01*
X394017Y448649D01*
X394079Y448729D01*
X394144Y448807D01*
X394211Y448883D01*
X394281Y448956D01*
X394354Y449026D01*
X394430Y449093D01*
X394508Y449158D01*
X394588Y449220D01*
X394671Y449278D01*
X394756Y449334D01*
X394843Y449386D01*
X394931Y449435D01*
X395022Y449481D01*
X395114Y449523D01*
X395207Y449562D01*
X395302Y449597D01*
X395399Y449629D01*
X395496Y449657D01*
X395594Y449681D01*
X395693Y449702D01*
X395793Y449719D01*
X395894Y449732D01*
X395995Y449741D01*
X396096Y449747D01*
X396197Y449749D01*
X400712Y449749D01*
X408150Y449749D02*
X408150Y441621D01*
X408152Y441520D01*
X408158Y441419D01*
X408167Y441318D01*
X408180Y441217D01*
X408197Y441117D01*
X408218Y441018D01*
X408242Y440920D01*
X408270Y440823D01*
X408302Y440726D01*
X408337Y440631D01*
X408376Y440538D01*
X408418Y440446D01*
X408464Y440355D01*
X408513Y440267D01*
X408565Y440180D01*
X408621Y440095D01*
X408679Y440012D01*
X408741Y439932D01*
X408806Y439854D01*
X408873Y439778D01*
X408943Y439705D01*
X409016Y439635D01*
X409092Y439568D01*
X409170Y439503D01*
X409250Y439441D01*
X409333Y439383D01*
X409418Y439327D01*
X409505Y439275D01*
X409593Y439226D01*
X409684Y439180D01*
X409776Y439138D01*
X409869Y439099D01*
X409964Y439064D01*
X410061Y439032D01*
X410158Y439004D01*
X410256Y438980D01*
X410355Y438959D01*
X410455Y438942D01*
X410556Y438929D01*
X410657Y438920D01*
X410758Y438914D01*
X410859Y438912D01*
X415375Y438912D01*
X415375Y449749D01*
X422455Y455168D02*
X422455Y441621D01*
X422457Y441520D01*
X422463Y441419D01*
X422472Y441318D01*
X422485Y441217D01*
X422502Y441117D01*
X422523Y441018D01*
X422547Y440920D01*
X422575Y440823D01*
X422607Y440726D01*
X422642Y440631D01*
X422681Y440538D01*
X422723Y440446D01*
X422769Y440355D01*
X422818Y440267D01*
X422870Y440180D01*
X422926Y440095D01*
X422984Y440012D01*
X423046Y439932D01*
X423111Y439854D01*
X423178Y439778D01*
X423248Y439705D01*
X423321Y439635D01*
X423397Y439568D01*
X423475Y439503D01*
X423555Y439441D01*
X423638Y439383D01*
X423723Y439327D01*
X423810Y439275D01*
X423898Y439226D01*
X423989Y439180D01*
X424081Y439138D01*
X424174Y439099D01*
X424269Y439064D01*
X424366Y439032D01*
X424463Y439004D01*
X424561Y438980D01*
X424660Y438959D01*
X424760Y438942D01*
X424861Y438929D01*
X424962Y438920D01*
X425063Y438914D01*
X425164Y438912D01*
X433264Y438912D02*
X437779Y438912D01*
X433264Y438912D02*
X433163Y438914D01*
X433062Y438920D01*
X432961Y438929D01*
X432860Y438942D01*
X432760Y438959D01*
X432661Y438980D01*
X432563Y439004D01*
X432466Y439032D01*
X432369Y439064D01*
X432274Y439099D01*
X432181Y439138D01*
X432089Y439180D01*
X431998Y439226D01*
X431910Y439275D01*
X431823Y439327D01*
X431738Y439383D01*
X431655Y439441D01*
X431575Y439503D01*
X431497Y439568D01*
X431421Y439635D01*
X431348Y439705D01*
X431278Y439778D01*
X431211Y439854D01*
X431146Y439932D01*
X431084Y440012D01*
X431026Y440095D01*
X430970Y440180D01*
X430918Y440267D01*
X430869Y440355D01*
X430823Y440446D01*
X430781Y440538D01*
X430742Y440631D01*
X430707Y440726D01*
X430675Y440823D01*
X430647Y440920D01*
X430623Y441018D01*
X430602Y441117D01*
X430585Y441217D01*
X430572Y441318D01*
X430563Y441419D01*
X430557Y441520D01*
X430555Y441621D01*
X430554Y441621D02*
X430554Y446137D01*
X430555Y446137D02*
X430557Y446256D01*
X430563Y446376D01*
X430573Y446495D01*
X430587Y446613D01*
X430604Y446732D01*
X430626Y446849D01*
X430651Y446966D01*
X430681Y447081D01*
X430714Y447196D01*
X430751Y447310D01*
X430791Y447422D01*
X430836Y447533D01*
X430884Y447642D01*
X430935Y447750D01*
X430990Y447856D01*
X431049Y447960D01*
X431111Y448062D01*
X431176Y448162D01*
X431245Y448260D01*
X431317Y448356D01*
X431392Y448449D01*
X431469Y448539D01*
X431550Y448627D01*
X431634Y448712D01*
X431721Y448794D01*
X431810Y448874D01*
X431902Y448950D01*
X431996Y449024D01*
X432093Y449094D01*
X432191Y449161D01*
X432292Y449225D01*
X432396Y449285D01*
X432501Y449342D01*
X432608Y449395D01*
X432716Y449445D01*
X432826Y449491D01*
X432938Y449533D01*
X433051Y449572D01*
X433165Y449607D01*
X433280Y449638D01*
X433397Y449666D01*
X433514Y449689D01*
X433631Y449709D01*
X433750Y449725D01*
X433869Y449737D01*
X433988Y449745D01*
X434107Y449749D01*
X434227Y449749D01*
X434346Y449745D01*
X434465Y449737D01*
X434584Y449725D01*
X434703Y449709D01*
X434820Y449689D01*
X434937Y449666D01*
X435054Y449638D01*
X435169Y449607D01*
X435283Y449572D01*
X435396Y449533D01*
X435508Y449491D01*
X435618Y449445D01*
X435726Y449395D01*
X435833Y449342D01*
X435938Y449285D01*
X436042Y449225D01*
X436143Y449161D01*
X436241Y449094D01*
X436338Y449024D01*
X436432Y448950D01*
X436524Y448874D01*
X436613Y448794D01*
X436700Y448712D01*
X436784Y448627D01*
X436865Y448539D01*
X436942Y448449D01*
X437017Y448356D01*
X437089Y448260D01*
X437158Y448162D01*
X437223Y448062D01*
X437285Y447960D01*
X437344Y447856D01*
X437399Y447750D01*
X437450Y447642D01*
X437498Y447533D01*
X437543Y447422D01*
X437583Y447310D01*
X437620Y447196D01*
X437653Y447081D01*
X437683Y446966D01*
X437708Y446849D01*
X437730Y446732D01*
X437747Y446613D01*
X437761Y446495D01*
X437771Y446376D01*
X437777Y446256D01*
X437779Y446137D01*
X437779Y444331D01*
X430554Y444331D01*
D26*
X347105Y47865D02*
X344734Y47865D01*
X344656Y47867D01*
X344579Y47873D01*
X344502Y47882D01*
X344426Y47895D01*
X344350Y47912D01*
X344275Y47933D01*
X344202Y47957D01*
X344129Y47985D01*
X344058Y48017D01*
X343989Y48052D01*
X343922Y48090D01*
X343856Y48131D01*
X343793Y48176D01*
X343732Y48224D01*
X343673Y48274D01*
X343617Y48328D01*
X343563Y48384D01*
X343513Y48443D01*
X343465Y48504D01*
X343420Y48567D01*
X343379Y48633D01*
X343341Y48700D01*
X343306Y48769D01*
X343274Y48840D01*
X343246Y48913D01*
X343222Y48986D01*
X343201Y49061D01*
X343184Y49137D01*
X343171Y49213D01*
X343162Y49290D01*
X343156Y49367D01*
X343154Y49445D01*
X343154Y49840D01*
X343156Y49927D01*
X343162Y50015D01*
X343171Y50102D01*
X343185Y50188D01*
X343202Y50274D01*
X343223Y50358D01*
X343248Y50442D01*
X343277Y50525D01*
X343309Y50606D01*
X343344Y50686D01*
X343383Y50764D01*
X343426Y50841D01*
X343472Y50915D01*
X343521Y50987D01*
X343573Y51057D01*
X343629Y51125D01*
X343687Y51190D01*
X343748Y51253D01*
X343812Y51312D01*
X343879Y51369D01*
X343947Y51423D01*
X344019Y51474D01*
X344092Y51521D01*
X344167Y51566D01*
X344245Y51607D01*
X344324Y51644D01*
X344404Y51678D01*
X344486Y51708D01*
X344569Y51735D01*
X344654Y51758D01*
X344739Y51777D01*
X344825Y51792D01*
X344912Y51804D01*
X344999Y51812D01*
X345086Y51816D01*
X345174Y51816D01*
X345261Y51812D01*
X345348Y51804D01*
X345435Y51792D01*
X345521Y51777D01*
X345606Y51758D01*
X345691Y51735D01*
X345774Y51708D01*
X345856Y51678D01*
X345936Y51644D01*
X346015Y51607D01*
X346093Y51566D01*
X346168Y51521D01*
X346241Y51474D01*
X346313Y51423D01*
X346381Y51369D01*
X346448Y51312D01*
X346512Y51253D01*
X346573Y51190D01*
X346631Y51125D01*
X346687Y51057D01*
X346739Y50987D01*
X346788Y50915D01*
X346834Y50841D01*
X346877Y50764D01*
X346916Y50686D01*
X346951Y50606D01*
X346983Y50525D01*
X347012Y50442D01*
X347037Y50358D01*
X347058Y50274D01*
X347075Y50188D01*
X347089Y50102D01*
X347098Y50015D01*
X347104Y49927D01*
X347106Y49840D01*
X347105Y49840D02*
X347105Y47865D01*
X347103Y47755D01*
X347097Y47644D01*
X347088Y47535D01*
X347074Y47425D01*
X347057Y47316D01*
X347036Y47208D01*
X347011Y47100D01*
X346983Y46994D01*
X346950Y46888D01*
X346914Y46784D01*
X346875Y46681D01*
X346832Y46579D01*
X346785Y46479D01*
X346735Y46381D01*
X346682Y46284D01*
X346625Y46190D01*
X346565Y46097D01*
X346501Y46007D01*
X346435Y45919D01*
X346365Y45833D01*
X346293Y45750D01*
X346218Y45669D01*
X346140Y45591D01*
X346059Y45516D01*
X345976Y45444D01*
X345890Y45374D01*
X345802Y45308D01*
X345712Y45244D01*
X345619Y45184D01*
X345525Y45127D01*
X345428Y45074D01*
X345330Y45024D01*
X345230Y44977D01*
X345128Y44934D01*
X345025Y44895D01*
X344921Y44859D01*
X344815Y44826D01*
X344709Y44798D01*
X344601Y44773D01*
X344493Y44752D01*
X344384Y44735D01*
X344274Y44721D01*
X344165Y44712D01*
X344054Y44706D01*
X343944Y44704D01*
X350012Y48260D02*
X350014Y48408D01*
X350019Y48555D01*
X350029Y48703D01*
X350042Y48850D01*
X350058Y48997D01*
X350079Y49143D01*
X350103Y49289D01*
X350131Y49434D01*
X350162Y49578D01*
X350197Y49721D01*
X350236Y49864D01*
X350278Y50005D01*
X350324Y50146D01*
X350373Y50285D01*
X350426Y50423D01*
X350482Y50560D01*
X350542Y50695D01*
X350605Y50828D01*
X350631Y50899D01*
X350661Y50968D01*
X350695Y51036D01*
X350732Y51102D01*
X350772Y51166D01*
X350816Y51228D01*
X350862Y51287D01*
X350912Y51344D01*
X350965Y51398D01*
X351020Y51450D01*
X351078Y51498D01*
X351138Y51544D01*
X351201Y51586D01*
X351266Y51625D01*
X351332Y51661D01*
X351401Y51693D01*
X351470Y51721D01*
X351542Y51746D01*
X351614Y51767D01*
X351688Y51785D01*
X351762Y51798D01*
X351837Y51808D01*
X351912Y51814D01*
X351988Y51816D01*
X352064Y51814D01*
X352139Y51808D01*
X352214Y51798D01*
X352288Y51785D01*
X352362Y51767D01*
X352434Y51746D01*
X352505Y51721D01*
X352575Y51693D01*
X352644Y51661D01*
X352710Y51625D01*
X352775Y51586D01*
X352838Y51544D01*
X352898Y51498D01*
X352956Y51450D01*
X353011Y51398D01*
X353064Y51344D01*
X353114Y51287D01*
X353160Y51228D01*
X353204Y51166D01*
X353244Y51102D01*
X353281Y51036D01*
X353315Y50968D01*
X353345Y50899D01*
X353371Y50828D01*
X353370Y50828D02*
X353433Y50695D01*
X353493Y50560D01*
X353549Y50423D01*
X353602Y50285D01*
X353651Y50146D01*
X353697Y50005D01*
X353739Y49864D01*
X353778Y49721D01*
X353813Y49578D01*
X353844Y49434D01*
X353872Y49289D01*
X353896Y49143D01*
X353917Y48997D01*
X353933Y48850D01*
X353946Y48703D01*
X353956Y48555D01*
X353961Y48408D01*
X353963Y48260D01*
X350012Y48260D02*
X350014Y48112D01*
X350019Y47965D01*
X350029Y47817D01*
X350042Y47670D01*
X350058Y47523D01*
X350079Y47377D01*
X350103Y47232D01*
X350131Y47086D01*
X350162Y46942D01*
X350197Y46799D01*
X350236Y46656D01*
X350278Y46515D01*
X350324Y46374D01*
X350373Y46235D01*
X350426Y46097D01*
X350482Y45960D01*
X350542Y45825D01*
X350605Y45692D01*
X350631Y45621D01*
X350661Y45552D01*
X350695Y45484D01*
X350732Y45418D01*
X350772Y45354D01*
X350816Y45292D01*
X350862Y45233D01*
X350912Y45176D01*
X350965Y45122D01*
X351020Y45070D01*
X351078Y45022D01*
X351138Y44976D01*
X351201Y44934D01*
X351266Y44895D01*
X351332Y44859D01*
X351401Y44827D01*
X351471Y44799D01*
X351542Y44774D01*
X351614Y44753D01*
X351688Y44735D01*
X351762Y44722D01*
X351837Y44712D01*
X351912Y44706D01*
X351988Y44704D01*
X353370Y45692D02*
X353433Y45825D01*
X353493Y45960D01*
X353549Y46097D01*
X353602Y46235D01*
X353651Y46374D01*
X353697Y46515D01*
X353739Y46656D01*
X353778Y46799D01*
X353813Y46942D01*
X353844Y47086D01*
X353872Y47232D01*
X353896Y47377D01*
X353917Y47523D01*
X353933Y47670D01*
X353946Y47817D01*
X353956Y47965D01*
X353961Y48112D01*
X353963Y48260D01*
X353371Y45692D02*
X353345Y45621D01*
X353315Y45552D01*
X353281Y45484D01*
X353244Y45418D01*
X353204Y45354D01*
X353160Y45292D01*
X353114Y45233D01*
X353064Y45176D01*
X353011Y45122D01*
X352956Y45070D01*
X352898Y45022D01*
X352838Y44976D01*
X352775Y44934D01*
X352710Y44895D01*
X352644Y44859D01*
X352575Y44827D01*
X352505Y44799D01*
X352434Y44774D01*
X352362Y44753D01*
X352288Y44735D01*
X352214Y44722D01*
X352139Y44712D01*
X352064Y44706D01*
X351988Y44704D01*
X350407Y46284D02*
X353568Y50236D01*
X360756Y51816D02*
X360756Y44704D01*
X360756Y51816D02*
X362732Y51816D01*
X362818Y51814D01*
X362904Y51808D01*
X362990Y51799D01*
X363075Y51786D01*
X363160Y51769D01*
X363243Y51749D01*
X363326Y51725D01*
X363408Y51697D01*
X363488Y51666D01*
X363567Y51631D01*
X363644Y51593D01*
X363720Y51551D01*
X363794Y51507D01*
X363865Y51459D01*
X363935Y51408D01*
X364002Y51354D01*
X364067Y51297D01*
X364129Y51237D01*
X364189Y51175D01*
X364246Y51110D01*
X364300Y51043D01*
X364351Y50973D01*
X364399Y50902D01*
X364443Y50828D01*
X364485Y50752D01*
X364523Y50675D01*
X364558Y50596D01*
X364589Y50516D01*
X364617Y50434D01*
X364641Y50351D01*
X364661Y50268D01*
X364678Y50183D01*
X364691Y50098D01*
X364700Y50012D01*
X364706Y49926D01*
X364708Y49840D01*
X364707Y49840D02*
X364707Y46680D01*
X364708Y46680D02*
X364706Y46594D01*
X364700Y46508D01*
X364691Y46422D01*
X364678Y46337D01*
X364661Y46252D01*
X364641Y46169D01*
X364617Y46086D01*
X364589Y46004D01*
X364558Y45924D01*
X364523Y45845D01*
X364485Y45768D01*
X364443Y45692D01*
X364399Y45618D01*
X364351Y45547D01*
X364300Y45477D01*
X364246Y45410D01*
X364189Y45345D01*
X364129Y45283D01*
X364067Y45223D01*
X364002Y45166D01*
X363935Y45112D01*
X363865Y45061D01*
X363794Y45013D01*
X363720Y44969D01*
X363644Y44927D01*
X363567Y44889D01*
X363488Y44854D01*
X363408Y44823D01*
X363326Y44795D01*
X363243Y44771D01*
X363160Y44751D01*
X363075Y44734D01*
X362990Y44721D01*
X362904Y44712D01*
X362818Y44706D01*
X362732Y44704D01*
X360756Y44704D01*
X368966Y44704D02*
X370941Y44704D01*
X368966Y44704D02*
X368900Y44706D01*
X368833Y44711D01*
X368768Y44721D01*
X368702Y44734D01*
X368638Y44750D01*
X368575Y44770D01*
X368513Y44794D01*
X368452Y44821D01*
X368393Y44852D01*
X368336Y44886D01*
X368280Y44923D01*
X368227Y44963D01*
X368176Y45005D01*
X368128Y45051D01*
X368082Y45099D01*
X368040Y45150D01*
X368000Y45203D01*
X367963Y45259D01*
X367929Y45316D01*
X367898Y45375D01*
X367871Y45436D01*
X367847Y45498D01*
X367827Y45561D01*
X367811Y45625D01*
X367798Y45691D01*
X367788Y45756D01*
X367783Y45823D01*
X367781Y45889D01*
X367781Y47865D01*
X367783Y47944D01*
X367789Y48022D01*
X367799Y48100D01*
X367812Y48178D01*
X367830Y48255D01*
X367851Y48331D01*
X367876Y48405D01*
X367905Y48479D01*
X367937Y48551D01*
X367973Y48621D01*
X368013Y48689D01*
X368056Y48755D01*
X368102Y48819D01*
X368151Y48881D01*
X368203Y48940D01*
X368258Y48996D01*
X368316Y49050D01*
X368376Y49100D01*
X368439Y49148D01*
X368504Y49192D01*
X368571Y49233D01*
X368640Y49271D01*
X368711Y49305D01*
X368784Y49336D01*
X368858Y49363D01*
X368933Y49386D01*
X369009Y49405D01*
X369087Y49421D01*
X369165Y49433D01*
X369243Y49441D01*
X369322Y49445D01*
X369400Y49445D01*
X369479Y49441D01*
X369557Y49433D01*
X369635Y49421D01*
X369713Y49405D01*
X369789Y49386D01*
X369864Y49363D01*
X369938Y49336D01*
X370011Y49305D01*
X370082Y49271D01*
X370151Y49233D01*
X370218Y49192D01*
X370283Y49148D01*
X370346Y49100D01*
X370406Y49050D01*
X370464Y48996D01*
X370519Y48940D01*
X370571Y48881D01*
X370620Y48819D01*
X370666Y48755D01*
X370709Y48689D01*
X370749Y48621D01*
X370785Y48551D01*
X370817Y48479D01*
X370846Y48405D01*
X370871Y48331D01*
X370892Y48255D01*
X370910Y48178D01*
X370923Y48100D01*
X370933Y48022D01*
X370939Y47944D01*
X370941Y47865D01*
X370941Y47075D01*
X367781Y47075D01*
X374877Y44704D02*
X376853Y44704D01*
X374877Y44704D02*
X374811Y44706D01*
X374744Y44711D01*
X374679Y44721D01*
X374613Y44734D01*
X374549Y44750D01*
X374486Y44770D01*
X374424Y44794D01*
X374363Y44821D01*
X374304Y44852D01*
X374247Y44886D01*
X374191Y44923D01*
X374138Y44963D01*
X374087Y45005D01*
X374039Y45051D01*
X373993Y45099D01*
X373951Y45150D01*
X373911Y45203D01*
X373874Y45259D01*
X373840Y45316D01*
X373809Y45375D01*
X373782Y45436D01*
X373758Y45498D01*
X373738Y45561D01*
X373722Y45625D01*
X373709Y45691D01*
X373699Y45756D01*
X373694Y45823D01*
X373692Y45889D01*
X373692Y48260D01*
X373694Y48326D01*
X373699Y48393D01*
X373709Y48458D01*
X373722Y48524D01*
X373738Y48588D01*
X373758Y48651D01*
X373782Y48713D01*
X373809Y48774D01*
X373840Y48833D01*
X373874Y48890D01*
X373911Y48946D01*
X373951Y48999D01*
X373993Y49050D01*
X374039Y49098D01*
X374087Y49144D01*
X374138Y49186D01*
X374191Y49226D01*
X374247Y49263D01*
X374304Y49297D01*
X374363Y49328D01*
X374424Y49355D01*
X374486Y49379D01*
X374549Y49399D01*
X374613Y49415D01*
X374679Y49428D01*
X374744Y49438D01*
X374811Y49443D01*
X374877Y49445D01*
X376853Y49445D01*
X376853Y43519D01*
X376852Y43519D02*
X376850Y43453D01*
X376845Y43386D01*
X376835Y43321D01*
X376822Y43255D01*
X376806Y43191D01*
X376786Y43128D01*
X376762Y43066D01*
X376735Y43005D01*
X376704Y42946D01*
X376670Y42889D01*
X376633Y42833D01*
X376593Y42780D01*
X376551Y42729D01*
X376505Y42681D01*
X376457Y42635D01*
X376406Y42593D01*
X376353Y42553D01*
X376297Y42516D01*
X376240Y42482D01*
X376181Y42451D01*
X376121Y42424D01*
X376058Y42401D01*
X375995Y42380D01*
X375931Y42364D01*
X375866Y42351D01*
X375800Y42341D01*
X375733Y42336D01*
X375667Y42334D01*
X375667Y42333D02*
X374087Y42333D01*
X383845Y44704D02*
X383845Y51816D01*
X383845Y48655D02*
X387796Y48655D01*
X387796Y51816D02*
X387796Y44704D01*
X392054Y44704D02*
X394030Y44704D01*
X392054Y44704D02*
X391988Y44706D01*
X391921Y44711D01*
X391856Y44721D01*
X391790Y44734D01*
X391726Y44750D01*
X391663Y44770D01*
X391601Y44794D01*
X391540Y44821D01*
X391481Y44852D01*
X391424Y44886D01*
X391368Y44923D01*
X391315Y44963D01*
X391264Y45005D01*
X391216Y45051D01*
X391170Y45099D01*
X391128Y45150D01*
X391088Y45203D01*
X391051Y45259D01*
X391017Y45316D01*
X390986Y45375D01*
X390959Y45436D01*
X390935Y45498D01*
X390915Y45561D01*
X390899Y45625D01*
X390886Y45691D01*
X390876Y45756D01*
X390871Y45823D01*
X390869Y45889D01*
X390869Y47865D01*
X390871Y47944D01*
X390877Y48022D01*
X390887Y48100D01*
X390900Y48178D01*
X390918Y48255D01*
X390939Y48331D01*
X390964Y48405D01*
X390993Y48479D01*
X391025Y48551D01*
X391061Y48621D01*
X391101Y48689D01*
X391144Y48755D01*
X391190Y48819D01*
X391239Y48881D01*
X391291Y48940D01*
X391346Y48996D01*
X391404Y49050D01*
X391464Y49100D01*
X391527Y49148D01*
X391592Y49192D01*
X391659Y49233D01*
X391728Y49271D01*
X391799Y49305D01*
X391872Y49336D01*
X391946Y49363D01*
X392021Y49386D01*
X392097Y49405D01*
X392175Y49421D01*
X392253Y49433D01*
X392331Y49441D01*
X392410Y49445D01*
X392488Y49445D01*
X392567Y49441D01*
X392645Y49433D01*
X392723Y49421D01*
X392801Y49405D01*
X392877Y49386D01*
X392952Y49363D01*
X393026Y49336D01*
X393099Y49305D01*
X393170Y49271D01*
X393239Y49233D01*
X393306Y49192D01*
X393371Y49148D01*
X393434Y49100D01*
X393494Y49050D01*
X393552Y48996D01*
X393607Y48940D01*
X393659Y48881D01*
X393708Y48819D01*
X393754Y48755D01*
X393797Y48689D01*
X393837Y48621D01*
X393873Y48551D01*
X393905Y48479D01*
X393934Y48405D01*
X393959Y48331D01*
X393980Y48255D01*
X393998Y48178D01*
X394011Y48100D01*
X394021Y48022D01*
X394027Y47944D01*
X394029Y47865D01*
X394030Y47865D02*
X394030Y47075D01*
X390869Y47075D01*
X398163Y47470D02*
X399941Y47470D01*
X398163Y47470D02*
X398089Y47468D01*
X398016Y47462D01*
X397943Y47452D01*
X397871Y47439D01*
X397799Y47421D01*
X397729Y47400D01*
X397659Y47375D01*
X397592Y47346D01*
X397525Y47314D01*
X397461Y47279D01*
X397398Y47239D01*
X397338Y47197D01*
X397280Y47152D01*
X397225Y47103D01*
X397172Y47052D01*
X397122Y46998D01*
X397075Y46941D01*
X397031Y46882D01*
X396991Y46821D01*
X396953Y46757D01*
X396919Y46692D01*
X396889Y46625D01*
X396862Y46556D01*
X396839Y46486D01*
X396820Y46415D01*
X396804Y46343D01*
X396792Y46271D01*
X396784Y46197D01*
X396780Y46124D01*
X396780Y46050D01*
X396784Y45977D01*
X396792Y45903D01*
X396804Y45831D01*
X396820Y45759D01*
X396839Y45688D01*
X396862Y45618D01*
X396889Y45549D01*
X396919Y45482D01*
X396953Y45417D01*
X396991Y45353D01*
X397031Y45292D01*
X397075Y45233D01*
X397122Y45176D01*
X397172Y45122D01*
X397225Y45071D01*
X397280Y45022D01*
X397338Y44977D01*
X397398Y44935D01*
X397461Y44895D01*
X397525Y44860D01*
X397592Y44828D01*
X397659Y44799D01*
X397729Y44774D01*
X397799Y44753D01*
X397871Y44735D01*
X397943Y44722D01*
X398016Y44712D01*
X398089Y44706D01*
X398163Y44704D01*
X399941Y44704D01*
X399941Y48260D01*
X399939Y48326D01*
X399934Y48393D01*
X399924Y48458D01*
X399911Y48524D01*
X399895Y48588D01*
X399875Y48651D01*
X399851Y48713D01*
X399824Y48774D01*
X399793Y48833D01*
X399759Y48890D01*
X399722Y48946D01*
X399682Y48999D01*
X399640Y49050D01*
X399594Y49098D01*
X399546Y49144D01*
X399495Y49186D01*
X399442Y49226D01*
X399386Y49263D01*
X399329Y49297D01*
X399270Y49328D01*
X399209Y49355D01*
X399147Y49379D01*
X399084Y49399D01*
X399020Y49415D01*
X398954Y49428D01*
X398889Y49438D01*
X398822Y49443D01*
X398756Y49445D01*
X397175Y49445D01*
X406113Y51816D02*
X406113Y44704D01*
X404138Y44704D01*
X404072Y44706D01*
X404005Y44711D01*
X403940Y44721D01*
X403874Y44734D01*
X403810Y44750D01*
X403747Y44770D01*
X403685Y44794D01*
X403624Y44821D01*
X403565Y44852D01*
X403508Y44886D01*
X403452Y44923D01*
X403399Y44963D01*
X403348Y45005D01*
X403300Y45051D01*
X403254Y45099D01*
X403212Y45150D01*
X403172Y45203D01*
X403135Y45259D01*
X403101Y45316D01*
X403070Y45375D01*
X403043Y45436D01*
X403019Y45498D01*
X402999Y45561D01*
X402983Y45625D01*
X402970Y45691D01*
X402960Y45756D01*
X402955Y45823D01*
X402953Y45889D01*
X402952Y45889D02*
X402952Y48260D01*
X402953Y48260D02*
X402955Y48326D01*
X402960Y48393D01*
X402970Y48458D01*
X402983Y48524D01*
X402999Y48588D01*
X403019Y48651D01*
X403043Y48713D01*
X403070Y48774D01*
X403101Y48833D01*
X403135Y48890D01*
X403172Y48946D01*
X403212Y48999D01*
X403254Y49050D01*
X403300Y49098D01*
X403348Y49144D01*
X403399Y49186D01*
X403452Y49226D01*
X403508Y49263D01*
X403565Y49297D01*
X403624Y49328D01*
X403685Y49355D01*
X403747Y49379D01*
X403810Y49399D01*
X403874Y49415D01*
X403940Y49428D01*
X404005Y49438D01*
X404072Y49443D01*
X404138Y49445D01*
X406113Y49445D01*
X410342Y44704D02*
X412318Y44704D01*
X410342Y44704D02*
X410276Y44706D01*
X410209Y44711D01*
X410144Y44721D01*
X410078Y44734D01*
X410014Y44750D01*
X409951Y44770D01*
X409889Y44794D01*
X409828Y44821D01*
X409769Y44852D01*
X409712Y44886D01*
X409656Y44923D01*
X409603Y44963D01*
X409552Y45005D01*
X409504Y45051D01*
X409458Y45099D01*
X409416Y45150D01*
X409376Y45203D01*
X409339Y45259D01*
X409305Y45316D01*
X409274Y45375D01*
X409247Y45436D01*
X409223Y45498D01*
X409203Y45561D01*
X409187Y45625D01*
X409174Y45691D01*
X409164Y45756D01*
X409159Y45823D01*
X409157Y45889D01*
X409157Y47865D01*
X409159Y47944D01*
X409165Y48022D01*
X409175Y48100D01*
X409188Y48178D01*
X409206Y48255D01*
X409227Y48331D01*
X409252Y48405D01*
X409281Y48479D01*
X409313Y48551D01*
X409349Y48621D01*
X409389Y48689D01*
X409432Y48755D01*
X409478Y48819D01*
X409527Y48881D01*
X409579Y48940D01*
X409634Y48996D01*
X409692Y49050D01*
X409752Y49100D01*
X409815Y49148D01*
X409880Y49192D01*
X409947Y49233D01*
X410016Y49271D01*
X410087Y49305D01*
X410160Y49336D01*
X410234Y49363D01*
X410309Y49386D01*
X410385Y49405D01*
X410463Y49421D01*
X410541Y49433D01*
X410619Y49441D01*
X410698Y49445D01*
X410776Y49445D01*
X410855Y49441D01*
X410933Y49433D01*
X411011Y49421D01*
X411089Y49405D01*
X411165Y49386D01*
X411240Y49363D01*
X411314Y49336D01*
X411387Y49305D01*
X411458Y49271D01*
X411527Y49233D01*
X411594Y49192D01*
X411659Y49148D01*
X411722Y49100D01*
X411782Y49050D01*
X411840Y48996D01*
X411895Y48940D01*
X411947Y48881D01*
X411996Y48819D01*
X412042Y48755D01*
X412085Y48689D01*
X412125Y48621D01*
X412161Y48551D01*
X412193Y48479D01*
X412222Y48405D01*
X412247Y48331D01*
X412268Y48255D01*
X412286Y48178D01*
X412299Y48100D01*
X412309Y48022D01*
X412315Y47944D01*
X412317Y47865D01*
X412318Y47865D02*
X412318Y47075D01*
X409157Y47075D01*
X415366Y49445D02*
X415366Y44704D01*
X415366Y49445D02*
X417736Y49445D01*
X417736Y48655D01*
M02*
