G04 EAGLE Gerber RS-274X export*
G75*
%MOMM*%
%FSLAX34Y34*%
%LPD*%
%INSoldermask Bottom*%
%IPPOS*%
%AMOC8*
5,1,8,0,0,1.08239X$1,22.5*%
G01*
%ADD10R,1.057200X1.057200*%
%ADD11C,1.552400*%
%ADD12C,3.372400*%
%ADD13R,1.676400X1.676400*%
%ADD14P,1.814519X8X112.500000*%
%ADD15C,4.597400*%
%ADD16C,0.609600*%
%ADD17C,1.168400*%


D10*
X107950Y342900D03*
X133350Y342900D03*
X158750Y342900D03*
X184150Y342900D03*
X209550Y342900D03*
D11*
X168200Y142600D03*
X193200Y142600D03*
X213200Y142600D03*
X238200Y142600D03*
D12*
X137500Y115499D03*
X268900Y115499D03*
D10*
X349250Y25400D03*
X374650Y25400D03*
X400050Y25400D03*
X425450Y25400D03*
D13*
X345700Y71800D03*
D14*
X320300Y71800D03*
X345700Y97200D03*
X320300Y97200D03*
X345700Y122600D03*
X320300Y122600D03*
X345700Y148000D03*
X320300Y148000D03*
X345700Y173400D03*
X320300Y173400D03*
X345700Y198800D03*
X320300Y198800D03*
X345700Y224200D03*
X320300Y224200D03*
X345700Y249600D03*
X320300Y249600D03*
X345700Y275000D03*
X320300Y275000D03*
X345700Y300400D03*
X320300Y300400D03*
X345700Y325800D03*
X320300Y325800D03*
X345700Y351200D03*
X320300Y351200D03*
X345700Y376600D03*
X320300Y376600D03*
X345700Y402000D03*
X320300Y402000D03*
X345700Y427400D03*
X320300Y427400D03*
X345700Y452800D03*
X320300Y452800D03*
X345700Y478200D03*
X320300Y478200D03*
X345700Y503600D03*
X320300Y503600D03*
D13*
X91700Y71800D03*
D14*
X66300Y71800D03*
X91700Y97200D03*
X66300Y97200D03*
X91700Y122600D03*
X66300Y122600D03*
X91700Y148000D03*
X66300Y148000D03*
X91700Y173400D03*
X66300Y173400D03*
X91700Y198800D03*
X66300Y198800D03*
X91700Y224200D03*
X66300Y224200D03*
X91700Y249600D03*
X66300Y249600D03*
X91700Y275000D03*
X66300Y275000D03*
X91700Y300400D03*
X66300Y300400D03*
X91700Y325800D03*
X66300Y325800D03*
X91700Y351200D03*
X66300Y351200D03*
X91700Y376600D03*
X66300Y376600D03*
X91700Y402000D03*
X66300Y402000D03*
X91700Y427400D03*
X66300Y427400D03*
X91700Y452800D03*
X66300Y452800D03*
X91700Y478200D03*
X66300Y478200D03*
X91700Y503600D03*
X66300Y503600D03*
D15*
X31750Y31750D03*
X450850Y69850D03*
X450850Y552450D03*
D16*
X11430Y76200D02*
X11432Y76387D01*
X11439Y76574D01*
X11451Y76761D01*
X11467Y76947D01*
X11487Y77133D01*
X11512Y77318D01*
X11542Y77503D01*
X11576Y77687D01*
X11615Y77870D01*
X11658Y78052D01*
X11706Y78232D01*
X11758Y78412D01*
X11815Y78590D01*
X11875Y78767D01*
X11941Y78942D01*
X12010Y79116D01*
X12084Y79288D01*
X12162Y79458D01*
X12244Y79626D01*
X12330Y79792D01*
X12420Y79956D01*
X12514Y80117D01*
X12612Y80277D01*
X12714Y80433D01*
X12820Y80588D01*
X12930Y80739D01*
X13043Y80888D01*
X13160Y81034D01*
X13280Y81177D01*
X13404Y81317D01*
X13531Y81454D01*
X13662Y81588D01*
X13796Y81719D01*
X13933Y81846D01*
X14073Y81970D01*
X14216Y82090D01*
X14362Y82207D01*
X14511Y82320D01*
X14662Y82430D01*
X14817Y82536D01*
X14973Y82638D01*
X15133Y82736D01*
X15294Y82830D01*
X15458Y82920D01*
X15624Y83006D01*
X15792Y83088D01*
X15962Y83166D01*
X16134Y83240D01*
X16308Y83309D01*
X16483Y83375D01*
X16660Y83435D01*
X16838Y83492D01*
X17018Y83544D01*
X17198Y83592D01*
X17380Y83635D01*
X17563Y83674D01*
X17747Y83708D01*
X17932Y83738D01*
X18117Y83763D01*
X18303Y83783D01*
X18489Y83799D01*
X18676Y83811D01*
X18863Y83818D01*
X19050Y83820D01*
X19237Y83818D01*
X19424Y83811D01*
X19611Y83799D01*
X19797Y83783D01*
X19983Y83763D01*
X20168Y83738D01*
X20353Y83708D01*
X20537Y83674D01*
X20720Y83635D01*
X20902Y83592D01*
X21082Y83544D01*
X21262Y83492D01*
X21440Y83435D01*
X21617Y83375D01*
X21792Y83309D01*
X21966Y83240D01*
X22138Y83166D01*
X22308Y83088D01*
X22476Y83006D01*
X22642Y82920D01*
X22806Y82830D01*
X22967Y82736D01*
X23127Y82638D01*
X23283Y82536D01*
X23438Y82430D01*
X23589Y82320D01*
X23738Y82207D01*
X23884Y82090D01*
X24027Y81970D01*
X24167Y81846D01*
X24304Y81719D01*
X24438Y81588D01*
X24569Y81454D01*
X24696Y81317D01*
X24820Y81177D01*
X24940Y81034D01*
X25057Y80888D01*
X25170Y80739D01*
X25280Y80588D01*
X25386Y80433D01*
X25488Y80277D01*
X25586Y80117D01*
X25680Y79956D01*
X25770Y79792D01*
X25856Y79626D01*
X25938Y79458D01*
X26016Y79288D01*
X26090Y79116D01*
X26159Y78942D01*
X26225Y78767D01*
X26285Y78590D01*
X26342Y78412D01*
X26394Y78232D01*
X26442Y78052D01*
X26485Y77870D01*
X26524Y77687D01*
X26558Y77503D01*
X26588Y77318D01*
X26613Y77133D01*
X26633Y76947D01*
X26649Y76761D01*
X26661Y76574D01*
X26668Y76387D01*
X26670Y76200D01*
X26668Y76013D01*
X26661Y75826D01*
X26649Y75639D01*
X26633Y75453D01*
X26613Y75267D01*
X26588Y75082D01*
X26558Y74897D01*
X26524Y74713D01*
X26485Y74530D01*
X26442Y74348D01*
X26394Y74168D01*
X26342Y73988D01*
X26285Y73810D01*
X26225Y73633D01*
X26159Y73458D01*
X26090Y73284D01*
X26016Y73112D01*
X25938Y72942D01*
X25856Y72774D01*
X25770Y72608D01*
X25680Y72444D01*
X25586Y72283D01*
X25488Y72123D01*
X25386Y71967D01*
X25280Y71812D01*
X25170Y71661D01*
X25057Y71512D01*
X24940Y71366D01*
X24820Y71223D01*
X24696Y71083D01*
X24569Y70946D01*
X24438Y70812D01*
X24304Y70681D01*
X24167Y70554D01*
X24027Y70430D01*
X23884Y70310D01*
X23738Y70193D01*
X23589Y70080D01*
X23438Y69970D01*
X23283Y69864D01*
X23127Y69762D01*
X22967Y69664D01*
X22806Y69570D01*
X22642Y69480D01*
X22476Y69394D01*
X22308Y69312D01*
X22138Y69234D01*
X21966Y69160D01*
X21792Y69091D01*
X21617Y69025D01*
X21440Y68965D01*
X21262Y68908D01*
X21082Y68856D01*
X20902Y68808D01*
X20720Y68765D01*
X20537Y68726D01*
X20353Y68692D01*
X20168Y68662D01*
X19983Y68637D01*
X19797Y68617D01*
X19611Y68601D01*
X19424Y68589D01*
X19237Y68582D01*
X19050Y68580D01*
X18863Y68582D01*
X18676Y68589D01*
X18489Y68601D01*
X18303Y68617D01*
X18117Y68637D01*
X17932Y68662D01*
X17747Y68692D01*
X17563Y68726D01*
X17380Y68765D01*
X17198Y68808D01*
X17018Y68856D01*
X16838Y68908D01*
X16660Y68965D01*
X16483Y69025D01*
X16308Y69091D01*
X16134Y69160D01*
X15962Y69234D01*
X15792Y69312D01*
X15624Y69394D01*
X15458Y69480D01*
X15294Y69570D01*
X15133Y69664D01*
X14973Y69762D01*
X14817Y69864D01*
X14662Y69970D01*
X14511Y70080D01*
X14362Y70193D01*
X14216Y70310D01*
X14073Y70430D01*
X13933Y70554D01*
X13796Y70681D01*
X13662Y70812D01*
X13531Y70946D01*
X13404Y71083D01*
X13280Y71223D01*
X13160Y71366D01*
X13043Y71512D01*
X12930Y71661D01*
X12820Y71812D01*
X12714Y71967D01*
X12612Y72123D01*
X12514Y72283D01*
X12420Y72444D01*
X12330Y72608D01*
X12244Y72774D01*
X12162Y72942D01*
X12084Y73112D01*
X12010Y73284D01*
X11941Y73458D01*
X11875Y73633D01*
X11815Y73810D01*
X11758Y73988D01*
X11706Y74168D01*
X11658Y74348D01*
X11615Y74530D01*
X11576Y74713D01*
X11542Y74897D01*
X11512Y75082D01*
X11487Y75267D01*
X11467Y75453D01*
X11451Y75639D01*
X11439Y75826D01*
X11432Y76013D01*
X11430Y76200D01*
D17*
X19050Y76200D03*
D16*
X398780Y76200D02*
X398782Y76387D01*
X398789Y76574D01*
X398801Y76761D01*
X398817Y76947D01*
X398837Y77133D01*
X398862Y77318D01*
X398892Y77503D01*
X398926Y77687D01*
X398965Y77870D01*
X399008Y78052D01*
X399056Y78232D01*
X399108Y78412D01*
X399165Y78590D01*
X399225Y78767D01*
X399291Y78942D01*
X399360Y79116D01*
X399434Y79288D01*
X399512Y79458D01*
X399594Y79626D01*
X399680Y79792D01*
X399770Y79956D01*
X399864Y80117D01*
X399962Y80277D01*
X400064Y80433D01*
X400170Y80588D01*
X400280Y80739D01*
X400393Y80888D01*
X400510Y81034D01*
X400630Y81177D01*
X400754Y81317D01*
X400881Y81454D01*
X401012Y81588D01*
X401146Y81719D01*
X401283Y81846D01*
X401423Y81970D01*
X401566Y82090D01*
X401712Y82207D01*
X401861Y82320D01*
X402012Y82430D01*
X402167Y82536D01*
X402323Y82638D01*
X402483Y82736D01*
X402644Y82830D01*
X402808Y82920D01*
X402974Y83006D01*
X403142Y83088D01*
X403312Y83166D01*
X403484Y83240D01*
X403658Y83309D01*
X403833Y83375D01*
X404010Y83435D01*
X404188Y83492D01*
X404368Y83544D01*
X404548Y83592D01*
X404730Y83635D01*
X404913Y83674D01*
X405097Y83708D01*
X405282Y83738D01*
X405467Y83763D01*
X405653Y83783D01*
X405839Y83799D01*
X406026Y83811D01*
X406213Y83818D01*
X406400Y83820D01*
X406587Y83818D01*
X406774Y83811D01*
X406961Y83799D01*
X407147Y83783D01*
X407333Y83763D01*
X407518Y83738D01*
X407703Y83708D01*
X407887Y83674D01*
X408070Y83635D01*
X408252Y83592D01*
X408432Y83544D01*
X408612Y83492D01*
X408790Y83435D01*
X408967Y83375D01*
X409142Y83309D01*
X409316Y83240D01*
X409488Y83166D01*
X409658Y83088D01*
X409826Y83006D01*
X409992Y82920D01*
X410156Y82830D01*
X410317Y82736D01*
X410477Y82638D01*
X410633Y82536D01*
X410788Y82430D01*
X410939Y82320D01*
X411088Y82207D01*
X411234Y82090D01*
X411377Y81970D01*
X411517Y81846D01*
X411654Y81719D01*
X411788Y81588D01*
X411919Y81454D01*
X412046Y81317D01*
X412170Y81177D01*
X412290Y81034D01*
X412407Y80888D01*
X412520Y80739D01*
X412630Y80588D01*
X412736Y80433D01*
X412838Y80277D01*
X412936Y80117D01*
X413030Y79956D01*
X413120Y79792D01*
X413206Y79626D01*
X413288Y79458D01*
X413366Y79288D01*
X413440Y79116D01*
X413509Y78942D01*
X413575Y78767D01*
X413635Y78590D01*
X413692Y78412D01*
X413744Y78232D01*
X413792Y78052D01*
X413835Y77870D01*
X413874Y77687D01*
X413908Y77503D01*
X413938Y77318D01*
X413963Y77133D01*
X413983Y76947D01*
X413999Y76761D01*
X414011Y76574D01*
X414018Y76387D01*
X414020Y76200D01*
X414018Y76013D01*
X414011Y75826D01*
X413999Y75639D01*
X413983Y75453D01*
X413963Y75267D01*
X413938Y75082D01*
X413908Y74897D01*
X413874Y74713D01*
X413835Y74530D01*
X413792Y74348D01*
X413744Y74168D01*
X413692Y73988D01*
X413635Y73810D01*
X413575Y73633D01*
X413509Y73458D01*
X413440Y73284D01*
X413366Y73112D01*
X413288Y72942D01*
X413206Y72774D01*
X413120Y72608D01*
X413030Y72444D01*
X412936Y72283D01*
X412838Y72123D01*
X412736Y71967D01*
X412630Y71812D01*
X412520Y71661D01*
X412407Y71512D01*
X412290Y71366D01*
X412170Y71223D01*
X412046Y71083D01*
X411919Y70946D01*
X411788Y70812D01*
X411654Y70681D01*
X411517Y70554D01*
X411377Y70430D01*
X411234Y70310D01*
X411088Y70193D01*
X410939Y70080D01*
X410788Y69970D01*
X410633Y69864D01*
X410477Y69762D01*
X410317Y69664D01*
X410156Y69570D01*
X409992Y69480D01*
X409826Y69394D01*
X409658Y69312D01*
X409488Y69234D01*
X409316Y69160D01*
X409142Y69091D01*
X408967Y69025D01*
X408790Y68965D01*
X408612Y68908D01*
X408432Y68856D01*
X408252Y68808D01*
X408070Y68765D01*
X407887Y68726D01*
X407703Y68692D01*
X407518Y68662D01*
X407333Y68637D01*
X407147Y68617D01*
X406961Y68601D01*
X406774Y68589D01*
X406587Y68582D01*
X406400Y68580D01*
X406213Y68582D01*
X406026Y68589D01*
X405839Y68601D01*
X405653Y68617D01*
X405467Y68637D01*
X405282Y68662D01*
X405097Y68692D01*
X404913Y68726D01*
X404730Y68765D01*
X404548Y68808D01*
X404368Y68856D01*
X404188Y68908D01*
X404010Y68965D01*
X403833Y69025D01*
X403658Y69091D01*
X403484Y69160D01*
X403312Y69234D01*
X403142Y69312D01*
X402974Y69394D01*
X402808Y69480D01*
X402644Y69570D01*
X402483Y69664D01*
X402323Y69762D01*
X402167Y69864D01*
X402012Y69970D01*
X401861Y70080D01*
X401712Y70193D01*
X401566Y70310D01*
X401423Y70430D01*
X401283Y70554D01*
X401146Y70681D01*
X401012Y70812D01*
X400881Y70946D01*
X400754Y71083D01*
X400630Y71223D01*
X400510Y71366D01*
X400393Y71512D01*
X400280Y71661D01*
X400170Y71812D01*
X400064Y71967D01*
X399962Y72123D01*
X399864Y72283D01*
X399770Y72444D01*
X399680Y72608D01*
X399594Y72774D01*
X399512Y72942D01*
X399434Y73112D01*
X399360Y73284D01*
X399291Y73458D01*
X399225Y73633D01*
X399165Y73810D01*
X399108Y73988D01*
X399056Y74168D01*
X399008Y74348D01*
X398965Y74530D01*
X398926Y74713D01*
X398892Y74897D01*
X398862Y75082D01*
X398837Y75267D01*
X398817Y75453D01*
X398801Y75639D01*
X398789Y75826D01*
X398782Y76013D01*
X398780Y76200D01*
D17*
X406400Y76200D03*
D16*
X398780Y501650D02*
X398782Y501837D01*
X398789Y502024D01*
X398801Y502211D01*
X398817Y502397D01*
X398837Y502583D01*
X398862Y502768D01*
X398892Y502953D01*
X398926Y503137D01*
X398965Y503320D01*
X399008Y503502D01*
X399056Y503682D01*
X399108Y503862D01*
X399165Y504040D01*
X399225Y504217D01*
X399291Y504392D01*
X399360Y504566D01*
X399434Y504738D01*
X399512Y504908D01*
X399594Y505076D01*
X399680Y505242D01*
X399770Y505406D01*
X399864Y505567D01*
X399962Y505727D01*
X400064Y505883D01*
X400170Y506038D01*
X400280Y506189D01*
X400393Y506338D01*
X400510Y506484D01*
X400630Y506627D01*
X400754Y506767D01*
X400881Y506904D01*
X401012Y507038D01*
X401146Y507169D01*
X401283Y507296D01*
X401423Y507420D01*
X401566Y507540D01*
X401712Y507657D01*
X401861Y507770D01*
X402012Y507880D01*
X402167Y507986D01*
X402323Y508088D01*
X402483Y508186D01*
X402644Y508280D01*
X402808Y508370D01*
X402974Y508456D01*
X403142Y508538D01*
X403312Y508616D01*
X403484Y508690D01*
X403658Y508759D01*
X403833Y508825D01*
X404010Y508885D01*
X404188Y508942D01*
X404368Y508994D01*
X404548Y509042D01*
X404730Y509085D01*
X404913Y509124D01*
X405097Y509158D01*
X405282Y509188D01*
X405467Y509213D01*
X405653Y509233D01*
X405839Y509249D01*
X406026Y509261D01*
X406213Y509268D01*
X406400Y509270D01*
X406587Y509268D01*
X406774Y509261D01*
X406961Y509249D01*
X407147Y509233D01*
X407333Y509213D01*
X407518Y509188D01*
X407703Y509158D01*
X407887Y509124D01*
X408070Y509085D01*
X408252Y509042D01*
X408432Y508994D01*
X408612Y508942D01*
X408790Y508885D01*
X408967Y508825D01*
X409142Y508759D01*
X409316Y508690D01*
X409488Y508616D01*
X409658Y508538D01*
X409826Y508456D01*
X409992Y508370D01*
X410156Y508280D01*
X410317Y508186D01*
X410477Y508088D01*
X410633Y507986D01*
X410788Y507880D01*
X410939Y507770D01*
X411088Y507657D01*
X411234Y507540D01*
X411377Y507420D01*
X411517Y507296D01*
X411654Y507169D01*
X411788Y507038D01*
X411919Y506904D01*
X412046Y506767D01*
X412170Y506627D01*
X412290Y506484D01*
X412407Y506338D01*
X412520Y506189D01*
X412630Y506038D01*
X412736Y505883D01*
X412838Y505727D01*
X412936Y505567D01*
X413030Y505406D01*
X413120Y505242D01*
X413206Y505076D01*
X413288Y504908D01*
X413366Y504738D01*
X413440Y504566D01*
X413509Y504392D01*
X413575Y504217D01*
X413635Y504040D01*
X413692Y503862D01*
X413744Y503682D01*
X413792Y503502D01*
X413835Y503320D01*
X413874Y503137D01*
X413908Y502953D01*
X413938Y502768D01*
X413963Y502583D01*
X413983Y502397D01*
X413999Y502211D01*
X414011Y502024D01*
X414018Y501837D01*
X414020Y501650D01*
X414018Y501463D01*
X414011Y501276D01*
X413999Y501089D01*
X413983Y500903D01*
X413963Y500717D01*
X413938Y500532D01*
X413908Y500347D01*
X413874Y500163D01*
X413835Y499980D01*
X413792Y499798D01*
X413744Y499618D01*
X413692Y499438D01*
X413635Y499260D01*
X413575Y499083D01*
X413509Y498908D01*
X413440Y498734D01*
X413366Y498562D01*
X413288Y498392D01*
X413206Y498224D01*
X413120Y498058D01*
X413030Y497894D01*
X412936Y497733D01*
X412838Y497573D01*
X412736Y497417D01*
X412630Y497262D01*
X412520Y497111D01*
X412407Y496962D01*
X412290Y496816D01*
X412170Y496673D01*
X412046Y496533D01*
X411919Y496396D01*
X411788Y496262D01*
X411654Y496131D01*
X411517Y496004D01*
X411377Y495880D01*
X411234Y495760D01*
X411088Y495643D01*
X410939Y495530D01*
X410788Y495420D01*
X410633Y495314D01*
X410477Y495212D01*
X410317Y495114D01*
X410156Y495020D01*
X409992Y494930D01*
X409826Y494844D01*
X409658Y494762D01*
X409488Y494684D01*
X409316Y494610D01*
X409142Y494541D01*
X408967Y494475D01*
X408790Y494415D01*
X408612Y494358D01*
X408432Y494306D01*
X408252Y494258D01*
X408070Y494215D01*
X407887Y494176D01*
X407703Y494142D01*
X407518Y494112D01*
X407333Y494087D01*
X407147Y494067D01*
X406961Y494051D01*
X406774Y494039D01*
X406587Y494032D01*
X406400Y494030D01*
X406213Y494032D01*
X406026Y494039D01*
X405839Y494051D01*
X405653Y494067D01*
X405467Y494087D01*
X405282Y494112D01*
X405097Y494142D01*
X404913Y494176D01*
X404730Y494215D01*
X404548Y494258D01*
X404368Y494306D01*
X404188Y494358D01*
X404010Y494415D01*
X403833Y494475D01*
X403658Y494541D01*
X403484Y494610D01*
X403312Y494684D01*
X403142Y494762D01*
X402974Y494844D01*
X402808Y494930D01*
X402644Y495020D01*
X402483Y495114D01*
X402323Y495212D01*
X402167Y495314D01*
X402012Y495420D01*
X401861Y495530D01*
X401712Y495643D01*
X401566Y495760D01*
X401423Y495880D01*
X401283Y496004D01*
X401146Y496131D01*
X401012Y496262D01*
X400881Y496396D01*
X400754Y496533D01*
X400630Y496673D01*
X400510Y496816D01*
X400393Y496962D01*
X400280Y497111D01*
X400170Y497262D01*
X400064Y497417D01*
X399962Y497573D01*
X399864Y497733D01*
X399770Y497894D01*
X399680Y498058D01*
X399594Y498224D01*
X399512Y498392D01*
X399434Y498562D01*
X399360Y498734D01*
X399291Y498908D01*
X399225Y499083D01*
X399165Y499260D01*
X399108Y499438D01*
X399056Y499618D01*
X399008Y499798D01*
X398965Y499980D01*
X398926Y500163D01*
X398892Y500347D01*
X398862Y500532D01*
X398837Y500717D01*
X398817Y500903D01*
X398801Y501089D01*
X398789Y501276D01*
X398782Y501463D01*
X398780Y501650D01*
D17*
X406400Y501650D03*
M02*
