M48
;GenerationSoftware,Autodesk,EAGLE,9.6.2*%
;CreationDate,2020-12-16T18:03:24Z*%
FMAT,2
ICI,OFF
METRIC,TZ,000.000
T5C0.600
T4C0.889
T3C1.000
T2C2.300
T1C3.175
%
G90
M71
T1
X3175Y3175
X45085Y55245
X45085Y6985
T2
X13750Y11550
X26890Y11550
T3
X16820Y14260
X19320Y14260
X21320Y14260
X23820Y14260
T4
X32030Y14800
X9170Y47820
X6630Y47820
X9170Y50360
X6630Y50360
X34570Y45280
X6630Y40200
X34570Y7180
X32030Y7180
X34570Y9720
X32030Y9720
X34570Y12260
X32030Y12260
X34570Y14800
X34570Y17340
X32030Y17340
X34570Y19880
X32030Y19880
X34570Y22420
X32030Y22420
X34570Y24960
X32030Y24960
X34570Y27500
X32030Y27500
X34570Y30040
X32030Y30040
X34570Y32580
X32030Y32580
X34570Y35120
X32030Y35120
X34570Y37660
X32030Y37660
X34570Y40200
X32030Y40200
X34570Y42740
X32030Y42740
X9170Y27500
X32030Y45280
X34570Y47820
X32030Y47820
X34570Y50360
X32030Y50360
X9170Y7180
X6630Y7180
X9170Y9720
X6630Y9720
X9170Y12260
X6630Y12260
X9170Y14800
X6630Y14800
X9170Y17340
X6630Y17340
X9170Y19880
X6630Y19880
X9170Y22420
X6630Y22420
X9170Y24960
X6630Y24960
X6630Y27500
X9170Y30040
X6630Y30040
X9170Y32580
X6630Y32580
X9170Y35120
X6630Y35120
X9170Y37660
X6630Y37660
X9170Y40200
X9170Y42740
X6630Y42740
X9170Y45280
X6630Y45280
T5
X13335Y34290
X15875Y34290
X18415Y34290
X20955Y34290
X37465Y2540
X10795Y34290
X42545Y2540
X40005Y2540
X34925Y2540
M30